SplineFontDB: 3.0
FontName: Vertical_Latin_Calligraphic
FullName: Vertical Latin Calligraphic
FamilyName: Vertical Latin Calligraphic
Weight: Medium
Copyright: OFL1.1 2016 Haruna Tachibana
UComments: "2012-11-2: Created." 
Version: 0.1.0
ItalicAngle: 0
UnderlinePosition: -100
UnderlineWidth: 50
Ascent: 800
Descent: 200
LayerCount: 2
Layer: 0 0 "+gMyXYgAA"  1
Layer: 1 0 "+Uk2XYgAA"  0
XUID: [1021 462 1422874815 11458930]
FSType: 8
OS2Version: 0
OS2_WeightWidthSlopeOnly: 0
OS2_UseTypoMetrics: 1
CreationTime: 1351839321
ModificationTime: 1454856594
PfmFamily: 17
TTFWeight: 500
TTFWidth: 5
LineGap: 90
VLineGap: 0
OS2TypoAscent: 0
OS2TypoAOffset: 1
OS2TypoDescent: 0
OS2TypoDOffset: 1
OS2TypoLinegap: 90
OS2WinAscent: 0
OS2WinAOffset: 1
OS2WinDescent: 0
OS2WinDOffset: 1
HheadAscent: 0
HheadAOffset: 1
HheadDescent: 0
HheadDOffset: 1
OS2Vendor: 'PfEd'
Lookup: 1 0 0 "'medi' +ip5OLV9i"  {"'medi' +ip5OLV9i 01" ("med" ) } ['medi' ('DFLT' <'dflt' > 'latn' <'dflt' > ) ]
Lookup: 1 0 0 "'init' +ip6YLV9i"  {"'init' +ip6YLV9i 01" ("ini" ) } ['init' ('DFLT' <'dflt' > 'latn' <'dflt' > ) ]
Lookup: 1 0 0 "'fina' +ip5cPl9i"  {"'fina' +ip5cPl9i 01" ("fin" ) } ['fina' ('DFLT' <'dflt' > 'latn' <'dflt' > ) ]
Lookup: 6 0 0 "'calt' +ZYcA 1"  {"'calt' +ZYcA 1-1"  } ['calt' ('DFLT' <'dflt' > 'latn' <'dflt' > ) ]
Lookup: 4 0 1 "'liga' +ahluljBuVAhbVwAA"  {} ['liga' ('DFLT' <'dflt' > 'latn' <'dflt' > ) ]
Lookup: 1 0 0 "'cv00' Character Variants 00"  {"'cv00' Character Variants 00-1" ("med0" ) "'cv00' Character Variants 00-2" ("fin0" ) } ['cv00' ('DFLT' <'dflt' > 'latn' <'dflt' > ) ]
Lookup: 1 0 0 "'cv01' Character Variants 01"  {"'cv01' Character Variants 01-1" ("med1" ) "'cv01' Character Variants 01-2" ("fin1" ) } ['cv01' ('DFLT' <'dflt' > 'latn' <'dflt' > ) ]
Lookup: 1 0 0 "'cv02' Character Variants 02"  {"'cv02' Character Variants 02-1" ("med2" ) "'cv02' Character Variants 02-2" ("fin2" ) } ['cv02' ('DFLT' <'dflt' > 'latn' <'dflt' > ) ]

StartChar: a
Encoding: 97 97 0
Width: 483
VWidth: 0
Flags: W
HStem: 525 20G<0 30> 525 20G<0 30> 635 20G<395 425>
VStem: 413 70<474.834 581.667>
LayerCount: 2
Fore
SplineSet
395 645 m 1x30
 415 655 l 1
 465 555 l 2
 477 531 483 505.333 483 478 c 0
 483 455.333 477.833 429.833 467.5 401.5 c 0
 457.167 373.167 446.833 350 436.5 332 c 0
 426.167 314 410.667 288.333 390 255 c 0
 369.333 222.333 353.833 196.667 343.5 178 c 0
 333.167 159.333 322.833 136 312.5 108 c 0
 302.167 80 297 54.3333 297 31 c 0
 297 3.66667 303 -21.6667 315 -45 c 1
 295 -55 l 1
 245 45 l 2
 233 68.3334 227 93.6667 227 121 c 0
 227 144.333 232.167 170 242.5 198 c 0
 252.833 226 263.167 249.333 273.5 268 c 0
 283.833 286.667 299.333 312.333 320 345 c 0
 340.667 378.333 356.167 404 366.5 422 c 0
 376.835 440 387.168 463.167 397.5 491.5 c 0
 407.833 519.833 413 545.333 413 568 c 0
 413 595.333 407 621 395 645 c 1x30
295 -55 m 1
 0 535 l 1
 20 545 l 1xb0
 315 -45 l 1
 295 -55 l 1
EndSplineSet
Validated: 524293
Substitution2: "'medi' +ip5OLV9i 01" a.med
Substitution2: "'init' +ip6YLV9i 01" a.ini
Substitution2: "'fina' +ip5cPl9i 01" a.fin
EndChar

StartChar: a.ini
Encoding: 256 -1 1
Width: 295
VWidth: 0
Flags: W
HStem: 335 210G<0 30 263.667 275> 525 20G<0 30>
VStem: 200 70<142.626 286.681>
LayerCount: 2
Fore
SplineSet
315 -45 m 1x20
 295 -55 l 1
 245 45 l 2
 215 105 200 170 200 240 c 0
 200 300 213.667 335.667 241 347 c 0
 254.333 352.333 262.333 355 265 355 c 1
 315 255 l 1
 295 245 l 1
 278.333 228.333 270 196.667 270 150 c 0
 270 80 285 15 315 -45 c 1x20
295 -55 m 1
 0 535 l 1
 20 545 l 5xa0
 315 -45 l 1
 295 -55 l 1
EndSplineSet
Validated: 524293
EndChar

StartChar: a.med
Encoding: 257 -1 3
Width: 200
VWidth: 0
Flags: W
HStem: 335 20G<-50 -20.3334 168.667 180>
VStem: 105 70<140.995 286.681>
LayerCount: 2
Fore
SplineSet
220 -45 m 1
 200 -55 l 1
 150 45 l 2
 120 105 105 170 105 240 c 0
 105 300 118.667 335.667 146 347 c 0
 159.333 352.333 167.333 355 170 355 c 1
 220 255 l 1
 200 245 l 1
 183.333 228.333 175 196.667 175 150 c 0
 175 80 190 15 220 -45 c 1
-50 345 m 1
 -30 355 l 1
 -10.6667 355 14.3333 331.333 45 284 c 0
 75.6667 236.667 117.333 160.333 170 55 c 2
 220 -45 l 1
 200 -55 l 1
 147.333 50.3333 105.667 126.667 75 174 c 0
 44.3333 221.333 19.3333 245 0 245 c 5
 -50 345 l 1
EndSplineSet
Validated: 524293
Substitution2: "'cv00' Character Variants 00-1" a.med0
Substitution2: "'cv02' Character Variants 02-1" a.med2
Substitution2: "'cv01' Character Variants 01-1" a.med1
EndChar

StartChar: a.fin
Encoding: 258 -1 4
Width: 388
VWidth: 0
Flags: W
HStem: 335 20G<-50 -20.3333> 635 20G<300 330>
VStem: 318 70<474.834 581.667>
LayerCount: 2
Fore
SplineSet
-50 345 m 1
 -30 355 l 1
 -10.6667 355 14.3333 331.333 45 284 c 0
 75.6667 236.667 117.333 160.333 170 55 c 2
 220 -45 l 1
 200 -55 l 1
 147.333 50.3333 105.667 126.667 75 174 c 0
 44.3333 221.333 19.3333 245 0 245 c 1
 -50 345 l 1
300 645 m 1
 320 655 l 5
 370 555 l 2
 382 531 388 505.333 388 478 c 0
 388 455.333 382.833 429.833 372.5 401.5 c 0
 362.167 373.167 351.833 350 341.5 332 c 0
 331.167 314 315.667 288.333 295 255 c 0
 274.333 222.333 258.833 196.667 248.5 178 c 0
 238.166 159.333 227.833 136 217.5 108 c 0
 207.167 80 202 54.3333 202 31 c 0
 202 3.66667 208 -21.6667 220 -45 c 1
 200 -55 l 1
 150 45 l 2
 138 68.3334 132 93.6667 132 121 c 0
 132 144.333 137.167 170 147.5 198 c 0
 157.833 226 168.167 249.333 178.5 268 c 0
 188.833 286.667 204.333 312.333 225 345 c 0
 245.668 378.333 261.168 404 271.5 422 c 0
 281.834 440 292.167 463.167 302.5 491.5 c 0
 312.833 519.833 318 545.333 318 568 c 0
 318 595.333 312 621 300 645 c 1
EndSplineSet
Validated: 524293
Substitution2: "'cv00' Character Variants 00-2" a.fin0
Substitution2: "'cv02' Character Variants 02-2" a.fin2
Substitution2: "'cv01' Character Variants 01-2" a.fin1
EndChar

StartChar: b
Encoding: 98 98 5
Width: 440
VWidth: 0
Flags: W
HStem: 65 21G<200 230> 245 110<62 70 75.3887 200> 390 20G<0 30> 425 110<100.444 199.753>
VStem: 220.811 70<183.74 244.532>
LayerCount: 2
Fore
SplineSet
560 -45 m 1
 540 -55 l 1
 380 265 256.667 425 170 425 c 1
 120 525 l 1
 140 535 l 1
 226.667 535 350 375 510 55 c 2
 560 -45 l 1
20 410 m 1
 70 310 l 1
 70 299.521 71.7962 288.299 75.3887 276.332 c 1
 94.5565 247.872 114.102 223.868 134.024 204.321 c 0
 153.946 184.774 169.272 175 180 175 c 1
 230 75 l 1
 210 65 l 1
 195.71 65 174.211 81.331 145.501 113.993 c 0
 116.792 146.655 93.1027 181.658 74.4346 219.001 c 2
 24.4346 319.001 l 2
 8.14487 351.588 0 378.587 0 400 c 1
 20 410 l 1
200 345 m 1
 220 355 l 1
 270 255 l 2
 283.875 227.252 290.812 198.18 290.811 167.785 c 0
 290.811 147.061 287.396 128.824 280.566 113.074 c 0
 273.735 97.3237 264.128 86.3025 251.743 80.0107 c 2
 231.743 70.0107 l 2
 225.045 66.6702 217.797 65 210 65 c 1
 160 165 l 1
 180 175 l 1
 183.801 175 187.571 175.421 191.311 176.262 c 1
 210.978 192.441 220.811 219.616 220.811 257.785 c 0
 220.811 288.18 213.874 317.252 200 345 c 1
50 300 m 1
 0 400 l 1
 0 424.667 3.83333 443.833 11.5 457.5 c 0
 19.1667 471.167 31 485.667 47 501 c 0
 47.0052 501.005 47.2377 501.122 47.6973 501.352 c 0
 57.2324 508.451 67.2639 515.09 77.792 521.27 c 0
 93.3886 530.423 114.125 535 140 535 c 1
 190 435 l 1
 170 425 l 1
 147.932 425 127.527 419.709 108.787 409.127 c 0
 97.0852 402.518 87.6953 390.48 80.6172 373.012 c 0
 73.5391 355.542 70 334.538 70 310 c 1
 50 300 l 1
12 345 m 1
 32 355 l 1
 220 355 l 1
 270 255 l 1
 250 245 l 1
 62 245 l 1
 12 345 l 1
EndSplineSet
Validated: 524325
Substitution2: "'fina' +ip5cPl9i 01" b.fin
Substitution2: "'init' +ip6YLV9i 01" b.ini
Substitution2: "'medi' +ip5OLV9i 01" b.med
EndChar

StartChar: b.ini
Encoding: 259 -1 6
Width: 350
VWidth: 0
Flags: W
HStem: 65 21G<200 230> 245 110<62 70 75.3887 200> 390 20G<0 30> 425 110<100.444 162.667>
VStem: 220.811 70<183.74 244.532>
LayerCount: 2
Fore
SplineSet
120 525 m 1
 140 535 l 1
 162.667 535 191.333 519 226 487 c 0
 260.667 455 292 411 320 355 c 2
 370 255 l 1
 350 245 l 1
 322 301 290.667 345 256 377 c 0
 221.333 409 192.667 425 170 425 c 1
 120 525 l 1
50 300 m 1
 0 400 l 1
 0 424.667 3.83333 443.833 11.5 457.5 c 0
 19.1667 471.167 31 485.667 47 501 c 0
 47.0052 501.005 47.2377 501.122 47.6973 501.352 c 0
 57.2324 508.451 67.2639 515.09 77.792 521.27 c 0
 93.3886 530.423 114.125 535 140 535 c 1
 190 435 l 1
 170 425 l 1
 147.932 425 127.527 419.709 108.787 409.127 c 0
 97.0852 402.518 87.6953 390.48 80.6172 373.012 c 0
 73.5391 355.542 70 334.538 70 310 c 1
 50 300 l 1
20 410 m 1
 70 310 l 1
 70 299.521 71.7962 288.299 75.3887 276.332 c 1
 94.5565 247.872 114.102 223.868 134.024 204.321 c 0
 153.946 184.774 169.272 175 180 175 c 1
 230 75 l 1
 210 65 l 1
 195.71 65 174.211 81.331 145.501 113.993 c 0
 116.792 146.655 93.1027 181.658 74.4346 219.001 c 2
 24.4346 319.001 l 2
 8.14487 351.588 0 378.587 0 400 c 1
 20 410 l 1
200 345 m 1
 220 355 l 1
 270 255 l 2
 283.875 227.252 290.812 198.18 290.811 167.785 c 0
 290.811 147.061 287.396 128.824 280.566 113.074 c 0
 273.735 97.3237 264.128 86.3025 251.743 80.0107 c 2
 231.743 70.0107 l 2
 225.045 66.6702 217.797 65 210 65 c 1
 160 165 l 1
 180 175 l 1
 183.801 175 187.571 175.421 191.311 176.262 c 1
 210.978 192.441 220.811 219.616 220.811 257.785 c 0
 220.811 288.18 213.874 317.252 200 345 c 1
12 345 m 1
 32 355 l 1
 220 355 l 1
 270 255 l 1
 250 245 l 1
 62 245 l 1
 12 345 l 1
EndSplineSet
Validated: 524325
EndChar

StartChar: b.med
Encoding: 260 -1 7
Width: 288
VWidth: 0
Flags: W
HStem: 65 21G<138 168> 245 110<0 8 13.3887 138> 390 20G<-62 -32> 425 110<38.4442 100.667>
LayerCount: 2
Fore
SplineSet
-42 410 m 1
 8 310 l 1
 8 299.521 9.79623 288.299 13.3887 276.332 c 1
 32.5569 247.872 52.1021 223.868 72.0242 204.321 c 0
 91.9463 184.774 107.272 175 118 175 c 1
 168 75 l 1
 148 65 l 1
 133.71 65 112.211 81.331 83.5009 113.993 c 0
 54.7913 146.655 31.1025 181.658 12.4346 219.001 c 2
 -37.5654 319.001 l 2
 -53.8551 351.588 -62 378.587 -62 400 c 1
 -42 410 l 1
138 345 m 1
 158 355 l 1
 208 255 l 2
 221.874 227.252 228.811 198.18 228.811 167.785 c 0
 228.811 147.062 225.396 128.825 218.566 113.074 c 0
 211.735 97.3237 202.128 86.3025 189.743 80.0107 c 2
 169.743 70.0107 l 2
 163.045 66.6702 155.797 65 148 65 c 1
 98 165 l 1
 118 175 l 1
 121.8 175 125.57 175.421 129.311 176.262 c 1
 148.978 192.441 158.811 219.616 158.811 257.785 c 0
 158.811 288.18 151.874 317.252 138 345 c 1
58 525 m 1
 78 535 l 1
 100.667 535 129.333 519 164 487 c 0
 198.667 455 230 411 258 355 c 2
 308 255 l 1
 288 245 l 1
 260 301 228.667 345 194 377 c 0
 159.333 409 130.667 425 108 425 c 1
 58 525 l 1
-12 300 m 1
 -62 400 l 1
 -62 424.667 -58.1667 443.833 -50.5 457.5 c 0
 -42.8333 471.167 -31 485.667 -15 501 c 0
 -14.9948 501.005 -14.7624 501.122 -14.3027 501.352 c 0
 -4.76756 508.451 5.264 515.09 15.792 521.27 c 0
 31.3886 530.423 52.1246 535 78 535 c 1
 128 435 l 1
 108 425 l 1
 85.9314 425 65.5271 419.709 46.7871 409.127 c 0
 35.0853 402.518 25.6954 390.48 18.6172 373.012 c 0
 11.5391 355.542 8 334.538 8 310 c 1
 -12 300 l 1
-50 345 m 1
 -30 355 l 1
 158 355 l 1
 208 255 l 1
 188 245 l 1
 0 245 l 1
 -50 345 l 1
EndSplineSet
Validated: 524293
Substitution2: "'cv02' Character Variants 02-1" b.med2
Substitution2: "'cv01' Character Variants 01-1" b.med1
EndChar

StartChar: b.fin
Encoding: 261 -1 8
Width: 378
VWidth: 0
Flags: W
HStem: 65 21G<138 168> 245 110<0 8 13.3887 138> 390 20G<-62 -32> 425 110<38.4442 137.753>
VStem: 158.811 70<130.914 272.983>
LayerCount: 2
Fore
SplineSet
498 -45 m 1
 478 -55 l 1
 318 265 194.667 425 108 425 c 1
 58 525 l 1
 78 535 l 1
 164.667 535 288 375 448 55 c 2
 498 -45 l 1
-42 410 m 1
 8 310 l 1
 8 299.521 9.79623 288.299 13.3887 276.332 c 1
 32.5569 247.872 52.1021 223.868 72.0242 204.321 c 0
 91.9463 184.774 107.272 175 118 175 c 1
 168 75 l 1
 148 65 l 1
 133.71 65 112.211 81.331 83.5009 113.993 c 0
 54.7913 146.655 31.1025 181.658 12.4346 219.001 c 2
 -37.5654 319.001 l 2
 -53.8551 351.588 -62 378.587 -62 400 c 1
 -42 410 l 1
138 345 m 1
 158 355 l 1
 208 255 l 2
 221.874 227.252 228.811 198.18 228.811 167.785 c 0
 228.811 147.062 225.396 128.825 218.566 113.074 c 0
 211.735 97.3237 202.128 86.3025 189.743 80.0107 c 2
 169.743 70.0107 l 2
 163.045 66.6702 155.797 65 148 65 c 1
 98 165 l 1
 118 175 l 1
 121.8 175 125.57 175.421 129.311 176.262 c 1
 148.978 192.441 158.811 219.616 158.811 257.785 c 0
 158.811 288.18 151.874 317.252 138 345 c 1
-12 300 m 1
 -62 400 l 1
 -62 424.667 -58.1667 443.833 -50.5 457.5 c 0
 -42.8333 471.167 -31 485.667 -15 501 c 0
 -14.9948 501.005 -14.7624 501.122 -14.3027 501.352 c 0
 -4.76756 508.451 5.264 515.09 15.792 521.27 c 0
 31.3886 530.423 52.1246 535 78 535 c 1
 128 435 l 1
 108 425 l 1
 85.9314 425 65.5271 419.709 46.7871 409.127 c 0
 35.0853 402.518 25.6954 390.48 18.6172 373.012 c 0
 11.5391 355.542 8 334.538 8 310 c 1
 -12 300 l 1
-50 345 m 1
 -30 355 l 1
 158 355 l 1
 208 255 l 1
 188 245 l 1
 0 245 l 1
 -50 345 l 1
EndSplineSet
Validated: 524293
Substitution2: "'cv02' Character Variants 02-2" b.fin2
Substitution2: "'cv01' Character Variants 01-2" b.fin1
EndChar

StartChar: x
Encoding: 120 120 9
Width: 220
VWidth: 0
Flags: W
HStem: 335 20G<0 180>
VStem: 0 220
LayerCount: 2
Fore
SplineSet
170 355 m 1
 220 255 l 1
 170 205 145 155 145 105 c 1
 125 95 l 1
 75 195 l 1
 75 245 100 295 150 345 c 1
 170 355 l 1
0 345 m 1
 20 355 l 1
 170 355 l 1
 220 255 l 1
 200 245 l 1
 50 245 l 1
 0 345 l 1
75 195 m 1
 95 205 l 1
 220 -45 l 1
 200 -55 l 1
 75 195 l 1
EndSplineSet
Validated: 5
Substitution2: "'medi' +ip5OLV9i 01" x.med
Substitution2: "'fina' +ip5cPl9i 01" x.fin
Substitution2: "'init' +ip6YLV9i 01" x.ini
EndChar

StartChar: c.ini
Encoding: 262 -1 10
Width: 235
VWidth: 0
Flags: W
HStem: 65 110<140 260> 245 110<50 205>
VStem: 0 310
LayerCount: 2
Fore
SplineSet
90 165 m 1
 110 175 l 1
 260 175 l 1
 310 75 l 1
 290 65 l 1
 140 65 l 1
 90 165 l 1
0 345 m 1
 20 355 l 1
 205 355 l 1
 255 255 l 1
 235 245 l 1
 50 245 l 1
 0 345 l 1
0 345 m 1
 20 355 l 1
 160 75 l 1
 140 65 l 1
 0 345 l 1
EndSplineSet
Validated: 5
EndChar

StartChar: c.med
Encoding: 263 -1 11
Width: 185
VWidth: 0
Flags: W
HStem: 65 110<90 210> 245 110<0 155>
VStem: -50 310
LayerCount: 2
Fore
SplineSet
40 165 m 1
 60 175 l 1
 210 175 l 1
 260 75 l 1
 240 65 l 1
 90 65 l 1
 40 165 l 1
-50 345 m 1
 -30 355 l 1
 155 355 l 1
 205 255 l 1
 185 245 l 1
 0 245 l 1
 -50 345 l 1
-50 345 m 1
 -30 355 l 1
 110 75 l 1
 90 65 l 1
 -50 345 l 1
EndSplineSet
Validated: 5
Substitution2: "'cv02' Character Variants 02-1" c.med2
Substitution2: "'cv01' Character Variants 01-1" c.med1
EndChar

StartChar: c.fin
Encoding: 264 -1 12
Width: 300
VWidth: 0
Flags: W
HStem: 65 110<90 210> 245 110<0 125 145 195>
LayerCount: 2
Fore
SplineSet
275 195 m 1
 295 205 l 1
 420 -45 l 1
 400 -55 l 1
 275 195 l 1
125 345 m 1
 145 355 l 1
 195 355 245 305 295 205 c 2
 345 105 l 1
 325 95 l 1
 275 195 225 245 175 245 c 1
 125 345 l 1
40 165 m 1
 60 175 l 1
 210 175 l 1
 260 75 l 1
 240 65 l 1
 90 65 l 1
 40 165 l 1
-50 345 m 1
 -30 355 l 1
 145 355 l 1
 195 255 l 1
 175 245 l 1
 0 245 l 1
 -50 345 l 1
-50 345 m 1
 -30 355 l 1
 110 75 l 1
 90 65 l 1
 -50 345 l 1
EndSplineSet
Validated: 5
Substitution2: "'cv02' Character Variants 02-2" c.fin2
Substitution2: "'cv01' Character Variants 01-2" c.fin1
EndChar

StartChar: period
Encoding: 46 46 13
Width: 240
VWidth: 0
Flags: W
HStem: 355 160
VStem: 40 160
LayerCount: 2
Fore
SplineSet
40 435 m 25
 120 515 l 1
 200 435 l 1
 120 355 l 1
 40 435 l 25
EndSplineSet
Validated: 1
EndChar

StartChar: comma
Encoding: 44 44 14
Width: 240
VWidth: 0
Flags: W
HStem: 370 21G<100 130 230 260> 400 100<94.6875 190>
VStem: 40 220
LayerCount: 2
Fore
SplineSet
120 370 m 1
 40 450 l 17
 60 470 l 1
 80 490 100 500 120 500 c 1
 140 500 160 490 180 470 c 1
 260 390 l 1
 240 370 l 1
 220 390 200 400 180 400 c 1
 160 400 140 390 120 370 c 1
EndSplineSet
Validated: 1
EndChar

StartChar: k
Encoding: 107 107 15
Width: 551
VWidth: 0
Flags: W
HStem: 300 110<390.667 416> 400 21G<226 256> 636 20G<0 30 113 143>
LayerCount: 2
Fore
SplineSet
113 646 m 1x60
 133 656 l 1
 256 410 l 1xa0
 236 400 l 1
 113 646 l 1x60
0 646 m 1
 20 656 l 1
 371 -46 l 1
 351 -56 l 1
 0 646 l 1
416 310 m 1
 396 300 l 1
 390.667 300 386 299.333 382 298 c 1
 368 287.333 361 273 361 255 c 1
 341 245 l 1
 291 345 l 1
 291 367 301.333 383.333 322 394 c 2
 342 404 l 2
 349 408 357 410 366 410 c 1
 416 310 l 1
496 250 m 1
 516 260 l 1
 671 -50 l 1
 651 -60 l 1
 496 250 l 1
346 400 m 1x60
 366 410 l 1
 416 410 466 360 516 260 c 2
 566 160 l 1
 546 150 l 1
 496 250 446 300 396 300 c 1xa0
 346 400 l 1x60
113 646 m 1
 133 656 l 1
 256 410 l 1xa0
 236 400 l 1x60
 113 646 l 1
361 255 m 1
 341 245 l 1
 322.333 245 304 263.333 286 300 c 2xa0
 236 400 l 1x60
 256 410 l 1
 266 390 275.167 375.833 283.5 367.5 c 0
 291.833 359.167 301 355 311 355 c 1
 361 255 l 1
EndSplineSet
Validated: 524293
Substitution2: "'medi' +ip5OLV9i 01" k.med
Substitution2: "'fina' +ip5cPl9i 01" k.fin
Substitution2: "'init' +ip6YLV9i 01" k.ini
EndChar

StartChar: d.ini
Encoding: 265 -1 16
Width: 290
VWidth: 0
Flags: W
HStem: -55 110<198.438 244.625> 105 110<213.531 275.57> 245 110<50 260>
LayerCount: 2
Fore
SplineSet
194 59 m 1
 203.333 56.3333 212 55 220 55 c 0
 228.667 55 237 56.3333 245 59 c 1
 259.667 69 270 83 276 101 c 1
 268 103.667 259.333 105 250 105 c 0
 241.333 105 233 103.667 225 101 c 1
 211 91 200.667 77 194 59 c 1
120 125 m 0
 120 158.333 134.667 182.333 164 197 c 2
 184 207 l 2
 196 212.333 208 215 220 215 c 0
 253.333 215 277.333 200.333 292 171 c 2
 342 71 l 2
 347.333 59 350 47 350 35 c 0
 350 1.66667 335.333 -22.3333 306 -37 c 2
 286 -47 l 2
 274 -52.3333 262 -55 250 -55 c 0
 216.667 -55 192.667 -40.3333 178 -11 c 2
 128 89 l 2
 122.667 101 120 113 120 125 c 0
0 345 m 1
 20 355 l 1
 198 -1 l 1
 178 -11 l 1
 0 345 l 1
20 355 m 1
0 345 m 1
 20 355 l 1
 260 355 l 1
 310 255 l 1
 290 245 l 1
 50 245 l 1
 0 345 l 1
EndSplineSet
Validated: 524293
EndChar

StartChar: d.med
Encoding: 266 -1 17
Width: 240
VWidth: 0
Flags: W
HStem: -55 110<148.438 194.625> 105 110<163.531 225.57> 245 110<0 210>
LayerCount: 2
Fore
SplineSet
144 59 m 1
 153.333 56.3333 162 55 170 55 c 0
 178.667 55 187 56.3333 195 59 c 1
 209.667 69 220 83 226 101 c 1
 218 103.667 209.333 105 200 105 c 0
 191.333 105 183 103.667 175 101 c 1
 161 91 150.667 77 144 59 c 1
70 125 m 0
 70 158.333 84.6667 182.333 114 197 c 2
 134 207 l 2
 146 212.333 158 215 170 215 c 0
 203.333 215 227.333 200.333 242 171 c 2
 292 71 l 2
 297.333 59 300 47 300 35 c 0
 300 1.66667 285.333 -22.3333 256 -37 c 2
 236 -47 l 2
 224 -52.3333 212 -55 200 -55 c 0
 166.667 -55 142.667 -40.3333 128 -11 c 2
 78 89 l 2
 72.6667 101 70 113 70 125 c 0
-50 345 m 1
 -30 355 l 1
 148 -1 l 1
 128 -11 l 1
 -50 345 l 1
-30 355 m 1
-50 345 m 1
 -30 355 l 1
 210 355 l 1
 260 255 l 1
 240 245 l 1
 0 245 l 1
 -50 345 l 1
EndSplineSet
Validated: 524293
Substitution2: "'cv02' Character Variants 02-1" d.med2
Substitution2: "'cv01' Character Variants 01-1" d.med1
EndChar

StartChar: d.fin
Encoding: 267 -1 18
Width: 300
VWidth: 0
Flags: W
HStem: -55 110<148.438 194.625> 105 110<163.531 225.57> 245 110<0 125 145 195>
LayerCount: 2
Fore
SplineSet
144 59 m 1
 153.333 56.3333 162 55 170 55 c 0
 178.667 55 187 56.3333 195 59 c 1
 209.667 69 220 83 226 101 c 1
 218 103.667 209.333 105 200 105 c 0
 191.333 105 183 103.667 175 101 c 1
 161 91 150.667 77 144 59 c 1
70 125 m 0
 70 158.333 84.6667 182.333 114 197 c 2
 134 207 l 2
 146 212.333 158 215 170 215 c 0
 203.333 215 227.333 200.333 242 171 c 2
 292 71 l 2
 297.333 59 300 47 300 35 c 0
 300 1.66667 285.333 -22.3333 256 -37 c 2
 236 -47 l 2
 224 -52.3333 212 -55 200 -55 c 0
 166.667 -55 142.667 -40.3333 128 -11 c 2
 78 89 l 2
 72.6667 101 70 113 70 125 c 0
-50 345 m 1
 -30 355 l 1
 148 -1 l 1
 128 -11 l 1
 -50 345 l 1
-30 355 m 1
-50 345 m 1
 -30 355 l 1
 145 355 l 1
 195 255 l 1
 175 245 l 1
 0 245 l 1
 -50 345 l 1
275 195 m 1
 295 205 l 1
 420 -45 l 1
 400 -55 l 1
 275 195 l 1
125 345 m 1
 145 355 l 1
 195 355 245 305 295 205 c 2
 345 105 l 1
 325 95 l 1
 275 195 225 245 175 245 c 1
 125 345 l 1
EndSplineSet
Validated: 524293
Substitution2: "'cv02' Character Variants 02-2" d.fin2
Substitution2: "'cv01' Character Variants 01-2" d.fin1
EndChar

StartChar: j
Encoding: 106 106 19
Width: 414
VWidth: 0
Flags: W
HStem: 65 110<140 315> 245 110<50 185> 635 20G<315 345>
VStem: 286 70<181.183 293.07> 344 70<426.93 538.817>
LayerCount: 2
Fore
SplineSet
130 -40 m 25xe0
 210 40 l 1
 290 -40 l 1
 210 -120 l 1
 130 -40 l 25xe0
286 278 m 0xf0
 286 308.667 295.667 351 315 405 c 0
 334.333 459 344 501.333 344 532 c 0
 344 568.668 334.333 606.334 315 645 c 1
 335 655 l 1
 385 555 l 2
 404.333 516.333 414 478.667 414 442 c 0xe8
 414 411.333 404.333 369 385 315 c 0
 365.667 261 356 218.667 356 188 c 0
 356 151.333 365.667 113.667 385 75 c 1
 365 65 l 1
 315 165 l 2
 295.667 203.667 286 241.333 286 278 c 0xf0
90 165 m 1
 110 175 l 1
 335 175 l 1
 385 75 l 1
 365 65 l 1
 140 65 l 1
 90 165 l 1
0 345 m 1
 20 355 l 1
 185 355 l 1
 235 255 l 1
 215 245 l 1
 50 245 l 1
 0 345 l 1
EndSplineSet
Validated: 524293
Substitution2: "'medi' +ip5OLV9i 01" j.med
Substitution2: "'fina' +ip5cPl9i 01" j.fin
Substitution2: "'init' +ip6YLV9i 01" j.ini
EndChar

StartChar: e.ini
Encoding: 268 -1 20
Width: 115
VWidth: 0
Flags: W
HStem: 65 290
VStem: 0 160
LayerCount: 2
Fore
SplineSet
0 345 m 1
 20 355 l 1
 160 75 l 1
 140 65 l 1
 0 345 l 1
0 345 m 1
 20 355 l 1
 85 355 l 1
 135 255 l 1
 115 245 l 1
 50 245 l 1
 0 345 l 1
EndSplineSet
Validated: 5
EndChar

StartChar: e.med
Encoding: 269 -1 21
Width: 93
VWidth: 0
Flags: W
HStem: 64 287.557 335 20G<-50 -20.6666 25 63>
VStem: -50 188
LayerCount: 2
Fore
SplineSet
95 255 m 1x60
 75 245 l 1
 71.5479 244.849 l 1
 68.3265 240.584 66.7158 235.289 66.7158 228.965 c 0
 66.7158 220.702 69.4772 211.047 75 200 c 1
 55 190 l 1
 5 290 l 2
 -0.522787 301.047 -3.28418 310.702 -3.28418 318.965 c 0
 -3.28418 329.598 1.02865 337.129 9.6543 341.557 c 2
 29.6543 351.557 l 2xa0
 34.4577 353.852 39.5729 355 45 355 c 1
 95 255 l 1x60
5 290 m 1
 25 300 l 1
 138 74 l 1
 118 64 l 1
 5 290 l 1
-50 345 m 1
 -30 355 l 1x60
 -11.3333 355 7 336.667 25 300 c 2
 75 200 l 1
 55 190 l 1
 37 226.667 18.6667 245 0 245 c 1
 -50 345 l 1
25 345 m 1
 45 355 l 1
 63 355 l 1
 113 255 l 1
 93 245 l 1
 75 245 l 1
 25 345 l 1
EndSplineSet
Validated: 524293
Substitution2: "'cv00' Character Variants 00-1" e.med0
Substitution2: "'cv02' Character Variants 02-1" e.med2
Substitution2: "'cv01' Character Variants 01-1" e.med1
EndChar

StartChar: e.fin
Encoding: 270 -1 22
Width: 225
VWidth: 0
Flags: W
HStem: 64 21G<108 138> 245 110<71.5479 120>
LayerCount: 2
Fore
SplineSet
200 195 m 1
 220 205 l 1
 345 -45 l 1
 325 -55 l 1
 200 195 l 1
50 345 m 1
 70 355 l 1
 120 355 170 305 220 205 c 2
 270 105 l 1
 250 95 l 1
 200 195 150 245 100 245 c 1
 50 345 l 1
95 255 m 1
 75 245 l 1
 71.5479 244.849 l 1
 68.3265 240.584 66.7158 235.289 66.7158 228.965 c 0
 66.7158 220.702 69.4772 211.047 75 200 c 1
 55 190 l 1
 5 290 l 2
 -0.522787 301.047 -3.28418 310.702 -3.28418 318.965 c 0
 -3.28418 329.598 1.02865 337.129 9.6543 341.557 c 2
 29.6543 351.557 l 2
 34.4577 353.852 39.5729 355 45 355 c 1
 95 255 l 1
5 290 m 1
 25 300 l 1
 138 74 l 1
 118 64 l 1
 5 290 l 1
-50 345 m 1
 -30 355 l 1
 -11.3333 355 7 336.667 25 300 c 2
 75 200 l 1
 55 190 l 1
 37 226.667 18.6667 245 0 245 c 1
 -50 345 l 1
25 345 m 1
 45 355 l 1
 70 355 l 1
 120 255 l 1
 100 245 l 1
 75 245 l 1
 25 345 l 1
EndSplineSet
Validated: 524293
Substitution2: "'cv00' Character Variants 00-2" e.fin0
Substitution2: "'cv02' Character Variants 02-2" e.fin2
Substitution2: "'cv01' Character Variants 01-2" e.fin1
EndChar

StartChar: g
Encoding: 103 103 23
Width: 350
VWidth: 0
Flags: W
HStem: 65 110<140 240> 245 110<50 175 195 245>
LayerCount: 2
Fore
SplineSet
325 195 m 1
 345 205 l 1
 470 -45 l 1
 450 -55 l 1
 325 195 l 1
175 345 m 1
 195 355 l 1
 245 355 295 305 345 205 c 2
 395 105 l 1
 375 95 l 1
 325 195 275 245 225 245 c 1
 175 345 l 1
0 345 m 1
 20 355 l 1
 195 355 l 1
 245 255 l 1
 225 245 l 1
 50 245 l 1
 0 345 l 1
130 -40 m 25
 210 40 l 1
 290 -40 l 1
 210 -120 l 1
 130 -40 l 25
260 175 m 1
 310 75 l 1
 290 65 l 1
 240 165 l 1
 260 175 l 1
90 165 m 1
 110 175 l 1
 260 175 l 1
 310 75 l 1
 290 65 l 1
 140 65 l 1
 90 165 l 1
0 345 m 1
 20 355 l 1
 160 75 l 1
 140 65 l 1
 0 345 l 1
EndSplineSet
Validated: 5
Substitution2: "'medi' +ip5OLV9i 01" g.med
Substitution2: "'fina' +ip5cPl9i 01" g.fin
Substitution2: "'init' +ip6YLV9i 01" g.ini
EndChar

StartChar: f.ini
Encoding: 271 -1 24
Width: 295
VWidth: 0
Flags: W
HStem: 65 21G<130 310> 355 170G<0 180> 525 20G<55 87.6667>
VStem: 0 315
LayerCount: 2
Fore
SplineSet
55 535 m 1xd0
 75 545 l 1xb0
 100.333 495 132 450.833 170 412.5 c 0
 208 374.167 239.667 355 265 355 c 1
 315 255 l 1
 295 245 l 1
 270.333 245 238.667 264.167 200 302.5 c 0
 161.333 340.833 129.667 385 105 435 c 2
 55 535 l 1xd0
90 165 m 1
 110 175 l 1
 260 175 l 1
 310 75 l 1
 290 65 l 1
 140 65 l 1
 90 165 l 1
0 345 m 1
 20 355 l 1
 170 355 l 1xd0
 220 255 l 1
 200 245 l 1
 50 245 l 1
 0 345 l 1
55 535 m 1
 75 545 l 1xb0
 310 75 l 1
 290 65 l 1
 55 535 l 1
EndSplineSet
Validated: 524293
EndChar

StartChar: f.med
Encoding: 272 -1 25
Width: 190
VWidth: 0
Flags: W
HStem: 65 21G<25 205> 355 170G<-50 75> 525 20G<-50 -17.3335>
VStem: -50 260
LayerCount: 2
Fore
SplineSet
-50 535 m 1xd0
 -30 545 l 1xb0
 -4.66699 495 27 450.833 65 412.5 c 0
 103 374.167 134.667 355 160 355 c 1
 210 255 l 1
 190 245 l 1
 165.333 245 133.667 264.167 95 302.5 c 0
 56.333 340.833 24.667 385 0 435 c 2
 -50 535 l 1xd0
-15 165 m 1
 5 175 l 1
 155 175 l 1
 205 75 l 1
 185 65 l 1
 35 65 l 1
 -15 165 l 1
-50 345 m 1
 -30 355 l 1
 65 355 l 1xd0
 115 255 l 1
 95 245 l 1
 0 245 l 1
 -50 345 l 1
-50 535 m 1
 -30 545 l 1xb0
 205 75 l 1
 185 65 l 1
 -50 535 l 1
EndSplineSet
Validated: 524293
Substitution2: "'cv03' Character Variants 03-1" f.med3
Substitution2: "'cv02' Character Variants 02-1" f.med2
Substitution2: "'cv01' Character Variants 01-1" f.med1
EndChar

StartChar: f.fin
Encoding: 273 -1 26
Width: 335
VWidth: 0
Flags: W
HStem: 65 21G<25 205> 335 20G<-50 75 140 172.333> 525 20G<-50 -17.3335>
LayerCount: 2
Fore
SplineSet
330 155 m 1
 350 165 l 1
 455 -45 l 1
 435 -55 l 1
 330 155 l 1
400 65 m 1
 380 55 l 1
 354.667 105 323 149.167 285 187.5 c 0
 247 225.833 215.333 245 190 245 c 1
 140 345 l 1
 160 355 l 1
 184.667 355 216.333 335.833 255 297.5 c 0
 293.667 259.167 325.333 215 350 165 c 2
 400 65 l 1
-50 535 m 1
 -30 545 l 5
 -4.66699 495 27 450.833 65 412.5 c 0
 103 374.167 134.667 355 160 355 c 1
 210 255 l 1
 190 245 l 1
 165.333 245 133.667 264.167 95 302.5 c 0
 56.333 340.833 24.667 385 0 435 c 2
 -50 535 l 1
-15 165 m 1
 5 175 l 1
 155 175 l 1
 205 75 l 1
 185 65 l 1
 35 65 l 1
 -15 165 l 1
-50 345 m 1
 -30 355 l 1
 65 355 l 1
 115 255 l 1
 95 245 l 1
 0 245 l 1
 -50 345 l 1
-50 535 m 1
 -30 545 l 5
 205 75 l 1
 185 65 l 1
 -50 535 l 1
EndSplineSet
Validated: 524293
Substitution2: "'cv03' Character Variants 03-2" f.fin3
Substitution2: "'cv02' Character Variants 02-2" f.fin2
Substitution2: "'cv01' Character Variants 01-2" f.fin1
EndChar

StartChar: g.ini
Encoding: 274 -1 27
Width: 235
VWidth: 0
Flags: W
HStem: 65 110<140 240> 245 110<50 205>
VStem: 0 310
LayerCount: 2
Fore
SplineSet
130 -40 m 25
 210 40 l 1
 290 -40 l 1
 210 -120 l 1
 130 -40 l 25
260 175 m 1
 310 75 l 1
 290 65 l 1
 240 165 l 1
 260 175 l 1
90 165 m 1
 110 175 l 1
 260 175 l 1
 310 75 l 1
 290 65 l 1
 140 65 l 1
 90 165 l 1
0 345 m 1
 20 355 l 1
 205 355 l 1
 255 255 l 1
 235 245 l 1
 50 245 l 1
 0 345 l 1
0 345 m 1
 20 355 l 1
 160 75 l 1
 140 65 l 1
 0 345 l 1
EndSplineSet
Validated: 5
EndChar

StartChar: e
Encoding: 101 101 28
Width: 247
VWidth: 0
Flags: W
HStem: 65 21G<130 160> 245 110<92 142>
LayerCount: 2
Fore
SplineSet
0 345 m 1
 20 355 l 1
 160 75 l 1
 140 65 l 1
 0 345 l 1
222 195 m 1
 242 205 l 1
 367 -45 l 1
 347 -55 l 1
 222 195 l 1
72 345 m 1
 92 355 l 1
 142 355 192 305 242 205 c 2
 292 105 l 1
 272 95 l 1
 222 195 172 245 122 245 c 1
 72 345 l 1
0 345 m 1
 20 355 l 1
 92 355 l 1
 142 255 l 1
 122 245 l 1
 50 245 l 1
 0 345 l 1
EndSplineSet
Validated: 5
Substitution2: "'medi' +ip5OLV9i 01" e.med
Substitution2: "'fina' +ip5cPl9i 01" e.fin
Substitution2: "'init' +ip6YLV9i 01" e.ini
EndChar

StartChar: g.med
Encoding: 275 -1 29
Width: 185
VWidth: 0
Flags: W
HStem: 65 110<90 190> 245 110<0 155>
VStem: -50 310
LayerCount: 2
Fore
SplineSet
80 -40 m 25
 160 40 l 1
 240 -40 l 1
 160 -120 l 1
 80 -40 l 25
210 175 m 1
 260 75 l 1
 240 65 l 1
 190 165 l 1
 210 175 l 1
40 165 m 1
 60 175 l 1
 210 175 l 1
 260 75 l 1
 240 65 l 1
 90 65 l 1
 40 165 l 1
-50 345 m 1
 -30 355 l 1
 155 355 l 1
 205 255 l 1
 185 245 l 1
 0 245 l 1
 -50 345 l 1
-50 345 m 1
 -30 355 l 1
 110 75 l 1
 90 65 l 1
 -50 345 l 1
EndSplineSet
Validated: 5
Substitution2: "'cv02' Character Variants 02-1" g.med2
Substitution2: "'cv01' Character Variants 01-1" g.med1
EndChar

StartChar: s
Encoding: 115 115 30
Width: 443
VWidth: 0
Flags: W
HStem: 245 110<149.333 173 196.452 196.452 279.333 293.333> 390 20G<0 30 63 93 130 160 193 223>
LayerCount: 2
Fore
SplineSet
438 155 m 1
 458 165 l 1
 563 -45 l 1
 543 -55 l 1
 438 155 l 1
508 65 m 1
 488 55 l 1
 462.667 105 431 149.167 393 187.5 c 0
 355 225.833 323.333 245 298 245 c 1
 248 345 l 1
 268 355 l 1
 293.333 355 325 335.833 363 297.5 c 0
 401 259.167 432.667 215 458 165 c 2
 508 65 l 1
173 345 m 1
 193 355 l 1
 196.452 355.151 l 1
 199.673 359.417 201.284 364.712 201.284 371.035 c 0
 201.284 379.298 198.523 388.953 193 400 c 1
 213 410 l 1
 263 310 l 2
 268.523 298.953 271.284 289.298 271.284 281.035 c 0
 271.284 270.401 266.971 262.871 258.346 258.443 c 2
 238.346 248.443 l 2
 233.543 246.148 228.428 245 223 245 c 1
 173 345 l 1
263 310 m 1
 243 300 l 1
 130 526 l 1
 150 536 l 1
 263 310 l 1
318 255 m 1
 298 245 l 1
 279.333 245 261 263.333 243 300 c 2
 193 400 l 1
 213 410 l 1
 231 373.333 249.333 355 268 355 c 1
 318 255 l 1
243 255 m 1
 223 245 l 1
 168 245 l 1
 118 345 l 1
 138 355 l 1
 193 355 l 1
 243 255 l 1
43 345 m 1
 63 355 l 1
 66.4521 355.151 l 1
 69.674 359.42 71.2847 364.715 71.2842 371.035 c 0
 71.2842 379.298 68.5228 388.953 63 400 c 1
 83 410 l 1
 133 310 l 2
 138.523 298.953 141.284 289.298 141.284 281.035 c 0
 141.284 270.401 136.971 262.871 128.346 258.443 c 2
 108.346 248.443 l 2
 103.543 246.148 98.4275 245 93 245 c 1
 43 345 l 1
133 310 m 1
 113 300 l 1
 0 526 l 1
 20 536 l 1
 133 310 l 1
188 255 m 1
 168 245 l 1
 149.333 245 131 263.333 113 300 c 2
 63 400 l 1
 83 410 l 1
 101 373.333 119.333 355 138 355 c 1
 188 255 l 1
EndSplineSet
Validated: 524293
Substitution2: "'medi' +ip5OLV9i 01" s.med
Substitution2: "'fina' +ip5cPl9i 01" s.fin
Substitution2: "'init' +ip6YLV9i 01" s.ini
EndChar

StartChar: g.fin
Encoding: 276 -1 31
Width: 300
VWidth: 0
Flags: W
HStem: 65 110<90 190> 245 110<0 125 145 195>
LayerCount: 2
Fore
SplineSet
275 195 m 1
 295 205 l 1
 420 -45 l 1
 400 -55 l 1
 275 195 l 1
125 345 m 1
 145 355 l 1
 195 355 245 305 295 205 c 2
 345 105 l 1
 325 95 l 1
 275 195 225 245 175 245 c 1
 125 345 l 1
-50 345 m 1
 -30 355 l 1
 145 355 l 1
 195 255 l 1
 175 245 l 1
 0 245 l 1
 -50 345 l 1
80 -40 m 25
 160 40 l 1
 240 -40 l 1
 160 -120 l 1
 80 -40 l 25
210 175 m 1
 260 75 l 1
 240 65 l 1
 190 165 l 1
 210 175 l 1
40 165 m 1
 60 175 l 1
 210 175 l 1
 260 75 l 1
 240 65 l 1
 90 65 l 1
 40 165 l 1
-50 345 m 1
 -30 355 l 1
 110 75 l 1
 90 65 l 1
 -50 345 l 1
EndSplineSet
Validated: 5
Substitution2: "'cv02' Character Variants 02-2" g.fin2
Substitution2: "'cv01' Character Variants 01-2" g.fin1
EndChar

StartChar: h.ini
Encoding: 277 -1 32
Width: 301
VWidth: 0
Flags: W
HStem: 435 110<115.092 223.923>
VStem: 0 70<302.333 415.667> 264 70<345.814 387.625>
LayerCount: 2
Fore
SplineSet
83 255 m 1
 63 245 l 1
 13 345 l 2
 4.33333 362.334 0 381.667 0 403 c 0
 0 428.333 6.66667 451.5 20 472.5 c 0
 33.3333 493.5 51 509.667 73 521 c 2
 93 531 l 2
 111.667 540.333 131.333 545 152 545 c 0
 177.333 545 200.5 538.333 221.5 525 c 0
 242.5 511.667 258.667 494 270 472 c 2
 320 372 l 2
 329.333 353.333 334 333.666 334 313 c 0
 334 291.667 329.667 272.333 321 255 c 1
 301 245 l 1
 251 345 l 1
 259.667 362.334 264 381.667 264 403 c 2
 264 407 l 1
 240.666 425.667 213.333 435 182 435 c 0
 165.333 435 149 432 133 426 c 1
 91 400.667 70 363 70 313 c 0
 70 291.667 74.3333 272.333 83 255 c 1
EndSplineSet
Validated: 524289
EndChar

StartChar: h.med
Encoding: 278 -1 33
Width: 238
VWidth: 0
Flags: W
HStem: 435 110<52.0917 160.924>
VStem: -63 70<302.333 415.667> 201 70<345.814 387.625>
LayerCount: 2
Fore
SplineSet
20 255 m 1
 0 245 l 1
 -50 345 l 2
 -58.6667 362.334 -63 381.667 -63 403 c 0
 -63 428.333 -56.3333 451.5 -43 472.5 c 0
 -29.6667 493.5 -12 509.667 10 521 c 2
 30 531 l 2
 48.6667 540.333 68.3333 545 89 545 c 0
 114.333 545 137.5 538.333 158.5 525 c 0
 179.5 511.667 195.667 494 207 472 c 2
 257 372 l 2
 266.333 353.333 271 333.666 271 313 c 0
 271 291.667 266.667 272.333 258 255 c 1
 238 245 l 1
 188 345 l 1
 196.667 362.334 201 381.667 201 403 c 2
 201 407 l 1
 177.667 425.667 150.333 435 119 435 c 0
 102.333 435 86 432 70 426 c 1
 28 400.667 7 363 7 313 c 0
 7 291.667 11.3333 272.333 20 255 c 1
EndSplineSet
Validated: 524289
Substitution2: "'cv02' Character Variants 02-1" h.med2
Substitution2: "'cv01' Character Variants 01-1" h.med1
EndChar

StartChar: h.fin
Encoding: 279 -1 34
Width: 303
VWidth: 0
Flags: W
HStem: 335 20G<188 218> 435 110<52.0917 160.923> 635 20G<188 218>
VStem: -63 70<327.812 387.352>
LayerCount: 2
Fore
SplineSet
208 355 m 1
 258 255 l 1
 244.667 228.333 238 210 238 200 c 1
 218 190 l 1
 168 290 l 1
 168 300 174.667 318.333 188 345 c 1
 208 355 l 1
238 245 m 1
 188 345 l 1
 218 405 233 455 233 495 c 0
 233 534.81 218.187 584.436 188.561 643.877 c 0
 188.481 644.056 188.294 644.431 188 645 c 2
 208 655 l 1
 258 555 l 2
 258.279 554.447 258.466 554.073 258.561 553.877 c 0
 288.187 494.436 303 444.81 303 405 c 0
 303 365 288 315 258 255 c 1
 238 245 l 1
20 255 m 1
 0 245 l 1
 -50 345 l 2
 -58.6667 362.334 -63 381.667 -63 403 c 0
 -63 428.333 -56.3333 451.5 -43 472.5 c 0
 -29.6667 493.5 -12 509.667 10 521 c 2
 30 531 l 2
 48.6667 540.333 68.3333 545 89 545 c 0
 114.333 545 137.5 538.333 158.5 525 c 0
 179.5 511.667 195.667 494 207 472 c 2
 257 372 l 2
 266.333 353.333 271 333.666 271 313 c 0
 271 291.667 266.667 272.333 258 255 c 1
 238 245 l 1
 188 345 l 1
 196.667 362.334 201 381.667 201 403 c 2
 201 407 l 1
 177.667 425.667 150.333 435 119 435 c 0
 102.333 435 86 432 70 426 c 1
 28 400.667 7 363 7 313 c 0
 7 291.667 11.3333 272.333 20 255 c 1
EndSplineSet
Validated: 524293
Substitution2: "'cv02' Character Variants 02-2" h.fin2
Substitution2: "'cv01' Character Variants 01-2" h.fin1
EndChar

StartChar: i.ini
Encoding: 280 -1 35
Width: 235
VWidth: 0
Flags: W
HStem: 65 110<140 260> 245 110<50 205>
VStem: 0 310
LayerCount: 2
Fore
SplineSet
90 165 m 1
 110 175 l 1
 260 175 l 1
 310 75 l 1
 290 65 l 1
 140 65 l 1
 90 165 l 1
0 345 m 1
 20 355 l 1
 205 355 l 1
 255 255 l 1
 235 245 l 1
 50 245 l 1
 0 345 l 1
EndSplineSet
Validated: 1
EndChar

StartChar: i
Encoding: 105 105 36
Width: 414
VWidth: 0
Flags: W
HStem: 65 110<140 315> 245 110<50 185> 635 20G<315 345>
VStem: 286 70<181.183 293.07> 344 70<426.93 538.817>
LayerCount: 2
Fore
SplineSet
286 278 m 0xf0
 286 308.667 295.667 351 315 405 c 0
 334.333 459 344 501.333 344 532 c 0
 344 568.668 334.333 606.334 315 645 c 1
 335 655 l 1
 385 555 l 2
 404.333 516.333 414 478.667 414 442 c 0xe8
 414 411.333 404.333 369 385 315 c 0
 365.667 261 356 218.667 356 188 c 0
 356 151.333 365.667 113.667 385 75 c 1
 365 65 l 1
 315 165 l 2
 295.667 203.667 286 241.333 286 278 c 0xf0
90 165 m 1
 110 175 l 1
 335 175 l 1
 385 75 l 1
 365 65 l 1
 140 65 l 1
 90 165 l 1
0 345 m 1
 20 355 l 1
 185 355 l 1
 235 255 l 1
 215 245 l 1
 50 245 l 1
 0 345 l 1
EndSplineSet
Validated: 524293
Substitution2: "'fina' +ip5cPl9i 01" i.fin
Substitution2: "'medi' +ip5OLV9i 01" i.med
Substitution2: "'init' +ip6YLV9i 01" i.ini
EndChar

StartChar: i.med
Encoding: 281 -1 37
Width: 130
VWidth: 0
Flags: W
HStem: 65 110<35 155> 245 110<0 100>
VStem: -50 255
LayerCount: 2
Fore
SplineSet
-15 165 m 1
 5 175 l 1
 155 175 l 1
 205 75 l 1
 185 65 l 1
 35 65 l 1
 -15 165 l 1
-50 345 m 1
 -30 355 l 1
 100 355 l 1
 150 255 l 1
 130 245 l 1
 0 245 l 1
 -50 345 l 1
EndSplineSet
Validated: 1
Substitution2: "'cv03' Character Variants 03-1" i.med3
Substitution2: "'cv02' Character Variants 02-1" i.med2
Substitution2: "'cv01' Character Variants 01-1" i.med1
EndChar

StartChar: i.fin
Encoding: 282 -1 38
Width: 309
VWidth: 0
Flags: W
HStem: 65 110<35 210> 245 110<0 80> 635 20G<210 240>
VStem: 181 70<181.183 293.07> 239 70<426.93 538.817>
LayerCount: 2
Fore
SplineSet
181 278 m 0xf0
 181 308.667 190.667 351 210 405 c 0
 229.333 459 239 501.333 239 532 c 0
 239 568.668 229.333 606.334 210 645 c 1
 230 655 l 1
 280 555 l 1
 299.333 516.333 309 478.667 309 442 c 0xe8
 309 411.333 299.333 369 280 315 c 0
 260.667 261 251 218.667 251 188 c 0
 251 151.333 260.667 113.667 280 75 c 1
 260 65 l 1
 210 165 l 1
 190.667 203.667 181 241.333 181 278 c 0xf0
-15 165 m 1
 5 175 l 1
 230 175 l 1
 280 75 l 1
 260 65 l 1
 35 65 l 1
 -15 165 l 1
-50 345 m 1
 -30 355 l 1
 80 355 l 1
 130 255 l 1
 110 245 l 1
 0 245 l 1
 -50 345 l 1
EndSplineSet
Validated: 524293
Substitution2: "'cv03' Character Variants 03-2" i.fin3
Substitution2: "'cv02' Character Variants 02-2" i.fin2
Substitution2: "'cv01' Character Variants 01-2" i.fin1
EndChar

StartChar: j.ini
Encoding: 283 -1 39
Width: 235
VWidth: 0
Flags: W
HStem: 65 110<140 260> 245 110<50 205>
VStem: 0 310
LayerCount: 2
Fore
SplineSet
130 -40 m 25
 210 40 l 1
 290 -40 l 1
 210 -120 l 1
 130 -40 l 25
90 165 m 1
 110 175 l 1
 260 175 l 1
 310 75 l 1
 290 65 l 1
 140 65 l 1
 90 165 l 1
0 345 m 1
 20 355 l 1
 205 355 l 5
 255 255 l 1
 235 245 l 1
 50 245 l 1
 0 345 l 1
EndSplineSet
Validated: 1
EndChar

StartChar: j.med
Encoding: 284 -1 40
Width: 130
VWidth: 0
Flags: W
HStem: 65 110<35 155> 245 110<0 100>
VStem: -50 255
LayerCount: 2
Fore
SplineSet
25 -40 m 25
 105 40 l 1
 185 -40 l 1
 105 -120 l 1
 25 -40 l 25
-15 165 m 1
 5 175 l 1
 155 175 l 1
 205 75 l 1
 185 65 l 1
 35 65 l 1
 -15 165 l 1
-50 345 m 1
 -30 355 l 1
 100 355 l 1
 150 255 l 1
 130 245 l 1
 0 245 l 1
 -50 345 l 1
EndSplineSet
Validated: 1
Substitution2: "'cv03' Character Variants 03-1" j.med3
Substitution2: "'cv02' Character Variants 02-1" j.med2
Substitution2: "'cv01' Character Variants 01-1" j.med1
EndChar

StartChar: j.fin
Encoding: 285 -1 41
Width: 310
VWidth: 0
Flags: W
HStem: 65 110<35 210> 245 110<0 80> 635 20G<210 240>
VStem: 181 70<181.183 293.07> 239 70<426.93 538.817>
LayerCount: 2
Fore
SplineSet
25 -40 m 25xe0
 105 40 l 1
 185 -40 l 1
 105 -120 l 1
 25 -40 l 25xe0
181 278 m 0xf0
 181 308.667 190.667 351 210 405 c 0
 229.333 459 239 501.333 239 532 c 0
 239 568.668 229.333 606.334 210 645 c 1
 230 655 l 1
 280 555 l 1
 299.333 516.333 309 478.667 309 442 c 0xe8
 309 411.333 299.333 369 280 315 c 0
 260.667 261 251 218.667 251 188 c 0
 251 151.333 260.667 113.667 280 75 c 1
 260 65 l 1
 210 165 l 1
 190.667 203.667 181 241.333 181 278 c 0xf0
-15 165 m 1
 5 175 l 1
 230 175 l 1
 280 75 l 1
 260 65 l 1
 35 65 l 1
 -15 165 l 1
-50 345 m 1
 -30 355 l 1
 80 355 l 1
 130 255 l 1
 110 245 l 1
 0 245 l 1
 -50 345 l 1
EndSplineSet
Validated: 524293
Substitution2: "'cv03' Character Variants 03-2" j.fin3
Substitution2: "'cv02' Character Variants 02-2" j.fin2
Substitution2: "'cv01' Character Variants 01-2" j.fin1
EndChar

StartChar: k.ini
Encoding: 286 -1 42
Width: 341
VWidth: 0
Flags: W
HStem: 390 20G<236 261> 400 21G<226 256> 636 20G<0 30 113 143>
LayerCount: 2
Fore
SplineSet
113 646 m 1x60
 133 656 l 1
 256 410 l 1xa0
 236 400 l 1
 113 646 l 1x60
361 255 m 1
 341 245 l 1
 322.333 245 304 263.333 286 300 c 2
 236 400 l 1x60
 256 410 l 1
 266 390 275.167 375.833 283.5 367.5 c 0
 291.833 359.167 301 355 311 355 c 1
 361 255 l 1
0 646 m 1
 20 656 l 1
 371 -46 l 1
 351 -56 l 1
 0 646 l 1
EndSplineSet
Validated: 524293
EndChar

StartChar: f
Encoding: 102 102 43
Width: 440
VWidth: 0
Flags: W
HStem: 65 21G<130 310> 335 20G<0 180 245 277.333> 525 20G<55 87.6667>
LayerCount: 2
Fore
SplineSet
435 155 m 1
 455 165 l 1
 560 -45 l 1
 540 -55 l 1
 435 155 l 1
505 65 m 1
 485 55 l 1
 459.667 105 428 149.167 390 187.5 c 0
 352 225.833 320.333 245 295 245 c 1
 245 345 l 1
 265 355 l 1
 289.667 355 321.333 335.833 360 297.5 c 0
 398.667 259.167 430.333 215 455 165 c 2
 505 65 l 1
55 535 m 1
 75 545 l 1
 100.333 495 132 450.833 170 412.5 c 0
 208 374.167 239.667 355 265 355 c 1
 315 255 l 1
 295 245 l 1
 270.333 245 238.667 264.167 200 302.5 c 0
 161.333 340.833 129.667 385 105 435 c 2
 55 535 l 1
90 165 m 1
 110 175 l 1
 260 175 l 1
 310 75 l 1
 290 65 l 1
 140 65 l 1
 90 165 l 1
0 345 m 1
 20 355 l 1
 170 355 l 1
 220 255 l 1
 200 245 l 1
 50 245 l 1
 0 345 l 1
55 535 m 1
 75 545 l 1
 310 75 l 1
 290 65 l 1
 55 535 l 1
EndSplineSet
Validated: 524293
Substitution2: "'fina' +ip5cPl9i 01" f.fin
Substitution2: "'medi' +ip5OLV9i 01" f.med
Substitution2: "'init' +ip6YLV9i 01" f.ini
EndChar

StartChar: k.med
Encoding: 287 -1 44
Width: 168
VWidth: 0
Flags: W
HStem: 355 35G<-50 -20.6667 63 92> 400 21G<53 83> 636 20G<-60 -30>
VStem: -60 258
LayerCount: 2
Fore
SplineSet
-60 646 m 1
 -40 656 l 5
 83 410 l 1
 63 400 l 1
 -60 646 l 1
188 255 m 1
 168 245 l 1
 149.333 245 131 263.333 113 300 c 2
 63 400 l 1
 83 410 l 1
 101 373.333 119.333 355 138 355 c 1
 188 255 l 1
55 190 m 1
 75 200 l 1
 198 -46 l 1
 178 -56 l 1
 55 190 l 1
-50 345 m 1
 -30 355 l 1
 -11.3333 355 7 336.667 25 300 c 2
 75 200 l 1
 55 190 l 1
 37 226.667 18.6667 245 0 245 c 1
 -50 345 l 1
EndSplineSet
Validated: 524293
Substitution2: "'cv02' Character Variants 02-1" k.med2
Substitution2: "'cv01' Character Variants 01-1" k.med1
EndChar

StartChar: k.fin
Encoding: 288 -1 45
Width: 378
VWidth: 0
Flags: W
HStem: 300 110<217.667 243> 335 20G<-50 -20.6667> 400 21G<53 83> 636 20G<-60 -30>
LayerCount: 2
Fore
SplineSet
243 310 m 1x90
 223 300 l 1
 217.667 300 213 299.333 209 298 c 1
 195 287.333 188 273 188 255 c 1
 168 245 l 1
 118 345 l 1
 118 367 128.333 383.333 149 394 c 2
 169 404 l 2
 176 408 184 410 193 410 c 1
 243 310 l 1x90
323 250 m 1
 343 260 l 1
 498 -50 l 1
 478 -60 l 1
 323 250 l 1
173 400 m 1x30
 193 410 l 1
 243 410 293 360 343 260 c 2
 393 160 l 1
 373 150 l 1
 323 250 273 300 223 300 c 1x90
 173 400 l 1x30
-60 646 m 1
 -40 656 l 1
 83 410 l 1x90
 63 400 l 1x30
 -60 646 l 1
188 255 m 1
 168 245 l 1
 149.333 245 131 263.333 113 300 c 2x90
 63 400 l 1x30
 83 410 l 1x90
 101 373.333 119.333 355 138 355 c 1x50
 188 255 l 1
55 190 m 1
 75 200 l 1
 198 -46 l 1
 178 -56 l 1
 55 190 l 1
-50 345 m 1
 -30 355 l 1x50
 -11.3333 355 7 336.667 25 300 c 2
 75 200 l 1
 55 190 l 1
 37 226.667 18.6667 245 0 245 c 1
 -50 345 l 1
EndSplineSet
Validated: 524293
Substitution2: "'cv02' Character Variants 02-2" k.fin2
Substitution2: "'cv01' Character Variants 01-2" k.fin1
EndChar

StartChar: l.ini
Encoding: 289 -1 46
Width: 240
VWidth: 0
Flags: W
HStem: 245 300 525 20G<95 125>
VStem: 0 260
LayerCount: 2
Fore
SplineSet
0 345 m 1xa0
 20 355 l 1
 38.6667 370.333 55.8333 396.333 71.5 433 c 0
 87.1667 469.667 95 503.667 95 535 c 1
 115 545 l 1x60
 165 445 l 1
 165 411 156 374.833 138 336.5 c 0
 120 298.167 101.667 272 83 258 c 0
 71.6667 249.333 60.6667 245 50 245 c 1
 0 345 l 1xa0
95 535 m 1
 115 545 l 1x60
 260 255 l 1
 240 245 l 1xa0
 95 535 l 1
EndSplineSet
Validated: 524293
EndChar

StartChar: l.med
Encoding: 290 -1 47
Width: 190
VWidth: 0
Flags: W
HStem: 245 300 525 20G<45 75>
VStem: -50 260
LayerCount: 2
Fore
SplineSet
-50 345 m 1xa0
 -30 355 l 1
 -11.3333 370.333 5.83333 396.333 21.5 433 c 0
 37.1667 469.667 45 503.667 45 535 c 1
 65 545 l 1x60
 115 445 l 1
 115 411 106 374.833 88 336.5 c 0
 70 298.167 51.6666 272 33 258 c 0
 21.6667 249.333 10.6667 245 0 245 c 1
 -50 345 l 1xa0
45 535 m 1
 65 545 l 1x60
 210 255 l 1
 190 245 l 1xa0
 45 535 l 1
EndSplineSet
Validated: 524293
Substitution2: "'cv02' Character Variants 02-1" l.med2
Substitution2: "'cv01' Character Variants 01-1" l.med1
EndChar

StartChar: l.fin
Encoding: 291 -1 48
Width: 245
VWidth: 0
Flags: W
HStem: 525 20G<45 75> 525 20G<45 75>
LayerCount: 2
Fore
SplineSet
-50 345 m 1x80
 -30 355 l 1
 -11.3333 370.333 5.83333 396.333 21.5 433 c 0
 37.1667 469.667 45 503.667 45 535 c 1
 65 545 l 1
 115 445 l 1
 115 411 106 374.833 88 336.5 c 0
 70 298.167 51.6666 272 33 258 c 0
 21.6667 249.333 10.6667 245 0 245 c 1
 -50 345 l 1x80
45 535 m 1
 65 545 l 1
 365 -55 l 1
 345 -65 l 1
 45 535 l 1
EndSplineSet
Validated: 524293
Substitution2: "'cv02' Character Variants 02-2" l.fin2
Substitution2: "'cv01' Character Variants 01-2" l.fin1
EndChar

StartChar: m.ini
Encoding: 292 -1 49
Width: 385
VWidth: 0
Flags: W
HStem: 65 21G<130 160 285 315> 355 80G<0 30 155 190 351.667 365>
LayerCount: 2
Fore
SplineSet
140 65 m 1
 90 165 l 1
 90.0001 258.334 113.333 351.667 160 445 c 1
 180 455 l 1
 230 355 l 1
 183.333 261.667 160 168.333 160 75 c 1
 140 65 l 1
155 345 m 1
 175 355 l 1
 315 75 l 1
 295 65 l 1
 155 345 l 1
295 65 m 1
 245 165 l 1
 245 203.667 252.167 240.167 266.5 274.5 c 0
 280.834 308.833 297.667 331 317 341 c 2
 337 351 l 2
 342.333 353.667 348.333 355 355 355 c 1
 405 255 l 1
 385 245 l 1
 381.667 245 379 244.667 377 244 c 1
 360.333 230.667 345.833 208 333.5 176 c 0
 321.167 144 315 110.333 315 75 c 1
 295 65 l 1
0 345 m 1
 20 355 l 1
 160 75 l 1
 140 65 l 1
 0 345 l 1
EndSplineSet
Validated: 524293
EndChar

StartChar: m.med
Encoding: 293 -1 50
Width: 363
VWidth: 0
Flags: W
HStem: 64 21G<108 138 263 293> 335 20G<-50 -20.6667 133 168 329.667 343>
LayerCount: 2
Fore
SplineSet
5 290 m 1
 25 300 l 1
 138 74 l 1
 118 64 l 1
 5 290 l 1
-50 345 m 1
 -30 355 l 1
 -11.3333 355 7 336.667 25 300 c 2
 75 200 l 1
 55 190 l 1
 37 226.667 18.6667 245 0 245 c 1
 -50 345 l 1
118 64 m 1
 68 164 l 1
 68 257.334 91.3334 350.667 138 444 c 1
 158 454 l 1
 208 354 l 1
 161.333 260.667 138 167.333 138 74 c 1
 118 64 l 1
133 345 m 1
 153 355 l 1
 293 75 l 1
 273 65 l 1
 133 345 l 1
273 65 m 1
 223 165 l 1
 223 203.667 230.167 240.167 244.5 274.5 c 0
 258.834 308.833 275.668 331 295 341 c 2
 315 351 l 2
 320.333 353.667 326.333 355 333 355 c 1
 383 255 l 1
 363 245 l 1
 359.667 245 357 244.667 355 244 c 1
 338.333 230.667 323.833 208 311.5 176 c 0
 299.167 144 293 110.333 293 75 c 1
 273 65 l 1
EndSplineSet
Validated: 524293
Substitution2: "'cv00' Character Variants 00-1" m.med0
Substitution2: "'cv02' Character Variants 02-1" m.med2
Substitution2: "'cv01' Character Variants 01-1" m.med1
EndChar

StartChar: m.fin
Encoding: 294 -1 51
Width: 383
VWidth: 0
Flags: W
HStem: 64 21G<108 138 263 293> 335 20G<-50 -20.6667 133 168 268 298> 635 20G<268 298>
VStem: 313 70<353.32 503.056>
LayerCount: 2
Fore
SplineSet
5 290 m 1
 25 300 l 1
 138 74 l 1
 118 64 l 1
 5 290 l 1
-50 345 m 1
 -30 355 l 1
 -11.3333 355 7 336.667 25 300 c 2
 75 200 l 1
 55 190 l 1
 37 226.667 18.6667 245 0 245 c 1
 -50 345 l 1
118 64 m 1
 68 164 l 1
 68 257.334 91.3334 350.667 138 444 c 1
 158 454 l 1
 208 354 l 1
 161.333 260.667 138 167.333 138 74 c 1
 118 64 l 1
133 345 m 1
 153 355 l 1
 293 75 l 1
 273 65 l 1
 133 345 l 1
273 65 m 1
 223 165 l 1
 223 225 238 285 268 345 c 1
 288 355 l 1
 338 255 l 1
 308 195 293 135 293 75 c 1
 273 65 l 1
318 245 m 1
 268 345 l 1
 298 405 313 455 313 495 c 0
 313 534.81 298.187 584.436 268.561 643.877 c 0
 268.257 644.453 268.07 644.828 268 645 c 2
 288 655 l 1
 338 555 l 2
 338.078 554.856 338.264 554.482 338.561 553.877 c 0
 368.187 494.434 383 444.809 383 405 c 0
 383 365 368 315 338 255 c 1
 318 245 l 1
EndSplineSet
Validated: 524293
Substitution2: "'cv00' Character Variants 00-2" m.fin0
Substitution2: "'cv02' Character Variants 02-2" m.fin2
Substitution2: "'cv01' Character Variants 01-2" m.fin1
EndChar

StartChar: n.ini
Encoding: 295 -1 52
Width: 305
VWidth: 0
Flags: W
HStem: 65 21G<385 415> 245 110<110 255> 365 20G<240 270> 425 110<131.333 160>
LayerCount: 2
Fore
SplineSet
160 255 m 1
 140 245 l 1
 102.667 245 75.6666 261.667 59 295 c 2
 9 395 l 2
 3 407 0 420.333 0 435 c 0
 0 472.333 16.6667 499.333 50 516 c 2
 70 526 l 2
 82 532 95.3333 535 110 535 c 1
 160 435 l 1
 140 425 l 1
 131.333 425 121.333 423.333 110 420 c 1
 89.3333 406 76.6666 387 72 363 c 1
 82.6667 357.667 95.3333 355 110 355 c 1
 160 255 l 1
255 345 m 1
 275 355 l 1
 325 255 l 1
 305 245 l 1
 255 345 l 1
0 345 m 1
 20 355 l 1
 275 355 l 1
 325 255 l 1
 305 245 l 1
 50 245 l 1
 0 345 l 1
240 375 m 1
 260 385 l 1
 415 75 l 1
 395 65 l 1
 240 375 l 1
90 525 m 1
 110 535 l 1
 160 535 210 485 260 385 c 2
 310 285 l 1
 290 275 l 1
 240 375 190 425 140 425 c 1
 90 525 l 1
EndSplineSet
Validated: 524293
EndChar

StartChar: n.med
Encoding: 296 -1 53
Width: 221
VWidth: 0
Flags: W
HStem: 65 21G<301 331> 245 110<26 171> 365 20G<156 186> 425 110<47.3333 76>
LayerCount: 2
Fore
SplineSet
76 255 m 1
 56 245 l 1
 18.6667 245 -8.33334 261.667 -25 295 c 2
 -75 395 l 2
 -81 407 -84 420.333 -84 435 c 0
 -84 472.333 -67.3333 499.333 -34 516 c 2
 -14 526 l 2
 -2 532 11.3333 535 26 535 c 1
 76 435 l 1
 56 425 l 1
 47.3333 425 37.3333 423.333 26 420 c 1
 5.33334 406 -7.33333 387 -12 363 c 1
 -1.33333 357.667 11.3333 355 26 355 c 1
 76 255 l 1
171 345 m 1
 191 355 l 1
 241 255 l 1
 221 245 l 1
 171 345 l 1
-50 345 m 1
 -30 355 l 1
 191 355 l 1
 241 255 l 1
 221 245 l 1
 0 245 l 1
 -50 345 l 1
156 375 m 1
 176 385 l 1
 331 75 l 1
 311 65 l 1
 156 375 l 1
6 525 m 1
 26 535 l 1
 76 535 126 485 176 385 c 2
 226 285 l 1
 206 275 l 1
 156 375 106 425 56 425 c 1
 6 525 l 1
EndSplineSet
Validated: 524293
Substitution2: "'cv02' Character Variants 02-1" n.med2
Substitution2: "'cv01' Character Variants 01-1" n.med1
EndChar

StartChar: n.fin
Encoding: 297 -1 54
Width: 211
VWidth: 0
Flags: W
HStem: 65 21G<301 331> 245 110<26 76> 365 20G<156 186> 425 110<47.3333 76>
LayerCount: 2
Fore
SplineSet
76 255 m 1
 56 245 l 1
 18.6667 245 -8.33334 261.667 -25 295 c 2
 -75 395 l 2
 -81 407 -84 420.333 -84 435 c 0
 -84 472.333 -67.3333 499.333 -34 516 c 2
 -14 526 l 2
 -2 532 11.3333 535 26 535 c 1
 76 435 l 1
 56 425 l 1
 47.3333 425 37.3333 423.333 26 420 c 1
 5.33334 406 -7.33333 387 -12 363 c 1
 -1.33333 357.667 11.3333 355 26 355 c 1
 76 255 l 1
-50 345 m 1
 -30 355 l 1
 191 355 l 1
 241 255 l 1
 221 245 l 1
 0 245 l 1
 -50 345 l 1
156 375 m 1
 176 385 l 1
 331 75 l 1
 311 65 l 1
 156 375 l 1
6 525 m 1
 26 535 l 1
 76 535 126 485 176 385 c 2
 226 285 l 1
 206 275 l 1
 156 375 106 425 56 425 c 1
 6 525 l 1
EndSplineSet
Validated: 524293
Substitution2: "'cv02' Character Variants 02-2" n.fin2
Substitution2: "'cv01' Character Variants 01-2" n.fin1
EndChar

StartChar: o.ini
Encoding: 298 -1 55
Width: 283
VWidth: 0
Flags: W
HStem: 134 110<94.891 187.523> 335 20G<233 263> 356 110<102.61 195.108>
VStem: 0 303
LayerCount: 2
Fore
SplineSet
233 345 m 1
 253 355 l 1
 303 255 l 1
 283 245 l 1
 233 345 l 1
70 262 m 1
 88 250 108 244 130 244 c 0
 143.333 244 156.333 246.333 169 251 c 1
 200.333 271 217.333 301.333 220 338 c 1
 202 350 182 356 160 356 c 0
 146.667 356 133.667 353.667 121 349 c 1
 89.667 329 72.667 298.667 70 262 c 1
0 346 m 0
 0 393.072 27.8633 427.434 61 444 c 2
 81 454 l 2
 95.667 462 112 466 130 466 c 0
 177.07 466 211.43 438.14 228 405 c 1
 278 303 l 1
 285.472 288.057 290 272 290 254 c 0
 290 206.927 262.137 172.567 229 156 c 2
 209 146 l 2
 193.667 138 177.333 134 160 134 c 0
 112.927 134 78.5684 161.863 62 195 c 1
 12 297 l 1
 4 311.667 0 328 0 346 c 0
EndSplineSet
Validated: 524293
EndChar

StartChar: o.med
Encoding: 299 -1 56
Width: 246
VWidth: 0
Flags: W
HStem: 134 110<57.891 150.523> 335 20G<-50 -20 196 226> 356 110<65.6095 158.108>
VStem: -50 316
LayerCount: 2
Fore
SplineSet
196 345 m 1
 216 355 l 1
 266 255 l 1
 246 245 l 1
 196 345 l 1
33 262 m 1
 51 250 71 244 93 244 c 0
 106.333 244 119.333 246.333 132 251 c 1
 163.333 271 180.333 301.333 183 338 c 1
 165 350 145 356 123 356 c 0
 109.667 356 96.667 353.667 84 349 c 1
 52.667 329 35.667 298.667 33 262 c 1
-37 346 m 0
 -37 393.072 -9.13672 427.434 24 444 c 2
 44 454 l 2
 58.667 462 75 466 93 466 c 0
 140.07 466 174.43 438.14 191 405 c 1
 241 303 l 1
 248.472 288.057 253 272 253 254 c 0
 253 206.927 225.137 172.567 192 156 c 2
 172 146 l 2
 156.667 138 140.333 134 123 134 c 0
 75.9268 134 41.5684 161.863 25 195 c 1
 -25 297 l 1
 -33 311.667 -37 328 -37 346 c 0
-50 345 m 1
 -30 355 l 1
 20 255 l 1
 0 245 l 1
 -50 345 l 1
EndSplineSet
Validated: 524293
Substitution2: "'cv02' Character Variants 02-1" o.med2
Substitution2: "'cv01' Character Variants 01-1" o.med1
EndChar

StartChar: o.fin
Encoding: 300 -1 57
Width: 253
VWidth: 0
Flags: W
HStem: 134 110<57.891 150.523> 335 20G<-50 -20> 356 110<65.6095 158.108>
VStem: -50 303
LayerCount: 2
Fore
SplineSet
33 262 m 1
 51 250 71 244 93 244 c 0
 106.333 244 119.333 246.333 132 251 c 1
 163.333 271 180.333 301.333 183 338 c 1
 165 350 145 356 123 356 c 0
 109.667 356 96.667 353.667 84 349 c 1
 52.667 329 35.667 298.667 33 262 c 1
-37 346 m 0
 -37 393.072 -9.13672 427.434 24 444 c 2
 44 454 l 2
 58.667 462 75 466 93 466 c 0
 140.07 466 174.43 438.14 191 405 c 1
 241 303 l 1
 248.472 288.057 253 272 253 254 c 0
 253 206.927 225.137 172.567 192 156 c 2
 172 146 l 2
 156.667 138 140.333 134 123 134 c 0
 75.9268 134 41.5684 161.863 25 195 c 1
 -25 297 l 1
 -33 311.667 -37 328 -37 346 c 0
-50 345 m 1
 -30 355 l 1
 20 255 l 1
 0 245 l 1
 -50 345 l 1
EndSplineSet
Validated: 524293
Substitution2: "'cv02' Character Variants 02-2" o.fin2
Substitution2: "'cv01' Character Variants 01-2" o.fin1
EndChar

StartChar: p.ini
Encoding: 301 -1 58
Width: 251
VWidth: 0
Flags: W
HStem: 65 110<79.8401 149.242> 245 110<70 191>
VStem: 0 271
LayerCount: 2
Fore
SplineSet
72 183 m 1
 82.6667 177.667 95.3333 175 110 175 c 0
 118.667 175 128.667 176.667 140 180 c 1
 160 193.333 172.667 212.333 178 237 c 1
 166 242.333 153.333 245 140 245 c 0
 131.333 245 121.333 243.333 110 240 c 1
 90 226.667 77.3333 207.667 72 183 c 1
0 255 m 0
 0 292.333 16.6667 319.333 50 336 c 2
 70 346 l 2
 82 352 95.3333 355 110 355 c 0
 147.333 355 174.333 338.333 191 305 c 2
 241 205 l 2
 247 193 250 179.667 250 165 c 0
 250 127.667 233.333 100.667 200 84 c 2
 180 74 l 2
 168 68 154.667 65 140 65 c 0
 102.667 65 75.6666 81.6667 59 115 c 2
 9 215 l 2
 3 227 0 240.333 0 255 c 0
0 345 m 1
 20 355 l 1
 221 355 l 1
 271 255 l 1
 251 245 l 1
 50 245 l 1
 0 345 l 1
EndSplineSet
Validated: 524293
EndChar

StartChar: p.med
Encoding: 302 -1 59
Width: 261
VWidth: 0
Flags: W
HStem: 65 110<89.8401 159.242> 245 110<0 10 80 201>
VStem: -50 331
LayerCount: 2
Fore
SplineSet
82 183 m 1
 92.6667 177.667 105.333 175 120 175 c 0
 128.667 175 138.667 176.667 150 180 c 1
 170 193.333 182.667 212.333 188 237 c 1
 176 242.333 163.333 245 150 245 c 0
 141.333 245 131.333 243.333 120 240 c 1
 100 226.667 87.3333 207.667 82 183 c 1
10 255 m 0
 10 292.333 26.6667 319.333 60 336 c 2
 80 346 l 2
 92 352 105.333 355 120 355 c 0
 157.333 355 184.333 338.333 201 305 c 2
 251 205 l 2
 257 193 260 179.667 260 165 c 0
 260 127.667 243.333 100.667 210 84 c 2
 190 74 l 2
 178 68 164.667 65 150 65 c 0
 112.667 65 85.6666 81.6667 69 115 c 2
 19 215 l 6
 13 227 10 240.333 10 255 c 0
-50 345 m 1
 -30 355 l 1
 231 355 l 1
 281 255 l 1
 261 245 l 1
 0 245 l 1
 -50 345 l 1
EndSplineSet
Validated: 524293
Substitution2: "'cv02' Character Variants 02-1" p.med2
Substitution2: "'cv01' Character Variants 01-1" p.med1
EndChar

StartChar: p.fin
Encoding: 303 -1 60
Width: 365
VWidth: 0
Flags: W
HStem: 65 110<89.8401 159.242> 245 110<0 10 80 190 210 260>
LayerCount: 2
Fore
SplineSet
340 195 m 1
 360 205 l 1
 485 -45 l 1
 465 -55 l 1
 340 195 l 1
190 345 m 1
 210 355 l 1
 260 355 310 305 360 205 c 2
 410 105 l 1
 390 95 l 1
 340 195 290 245 240 245 c 1
 190 345 l 1
82 183 m 1
 92.6667 177.667 105.333 175 120 175 c 0
 128.667 175 138.667 176.667 150 180 c 1
 170 193.333 182.667 212.333 188 237 c 1
 176 242.333 163.333 245 150 245 c 0
 141.333 245 131.333 243.333 120 240 c 1
 100 226.667 87.3333 207.667 82 183 c 1
10 255 m 0
 10 292.333 26.6667 319.333 60 336 c 2
 80 346 l 2
 92 352 105.333 355 120 355 c 0
 157.333 355 184.333 338.333 201 305 c 2
 251 205 l 2
 257 193 260 179.667 260 165 c 0
 260 127.667 243.333 100.667 210 84 c 2
 190 74 l 2
 178 68 164.667 65 150 65 c 0
 112.667 65 85.6666 81.6667 69 115 c 2
 19 215 l 2
 13 227 10 240.333 10 255 c 0
-50 345 m 1
 -30 355 l 1
 210 355 l 1
 260 255 l 1
 240 245 l 1
 0 245 l 1
 -50 345 l 1
EndSplineSet
Validated: 524293
Substitution2: "'cv02' Character Variants 02-2" p.fin2
Substitution2: "'cv01' Character Variants 01-2" p.fin1
EndChar

StartChar: p
Encoding: 112 112 61
Width: 355
VWidth: 0
Flags: W
HStem: 65 110<79.8401 149.242> 245 110<70 180 200 250>
LayerCount: 2
Fore
SplineSet
330 195 m 1
 350 205 l 1
 475 -45 l 1
 455 -55 l 1
 330 195 l 1
180 345 m 1
 200 355 l 1
 250 355 300 305 350 205 c 2
 400 105 l 1
 380 95 l 1
 330 195 280 245 230 245 c 1
 180 345 l 1
72 183 m 1
 82.6667 177.667 95.3333 175 110 175 c 0
 118.667 175 128.667 176.667 140 180 c 1
 160 193.333 172.667 212.333 178 237 c 1
 166 242.333 153.333 245 140 245 c 0
 131.333 245 121.333 243.333 110 240 c 1
 90 226.667 77.3333 207.667 72 183 c 1
0 255 m 0
 0 292.333 16.6667 319.333 50 336 c 2
 70 346 l 2
 82 352 95.3333 355 110 355 c 0
 147.333 355 174.333 338.333 191 305 c 2
 241 205 l 2
 247 193 250 179.667 250 165 c 0
 250 127.667 233.333 100.667 200 84 c 2
 180 74 l 2
 168 68 154.667 65 140 65 c 0
 102.667 65 75.6666 81.6667 59 115 c 2
 9 215 l 2
 3 227 0 240.333 0 255 c 0
0 345 m 1
 20 355 l 1
 200 355 l 1
 250 255 l 1
 230 245 l 1
 50 245 l 1
 0 345 l 1
EndSplineSet
Validated: 524293
Substitution2: "'fina' +ip5cPl9i 01" p.fin
Substitution2: "'medi' +ip5OLV9i 01" p.med
Substitution2: "'init' +ip6YLV9i 01" p.ini
EndChar

StartChar: q
Encoding: 113 113 62
Width: 420
VWidth: 0
Flags: W
HStem: 65 110<178.525 237.333> 355 160G<0 250> 635 20G<280 310>
VStem: 350 70<257.424 431.255>
LayerCount: 2
Fore
SplineSet
280 645 m 1
 300 655 l 1
 350 555 l 2
 396.667 461 420 371.333 420 286 c 0
 420 238.667 412.167 197.5 396.5 162.5 c 0
 380.833 127.5 358.666 102.667 330 88 c 2
 310 78 l 2
 292.667 69.3333 272.667 65 250 65 c 1
 200 165 l 1
 220 175 l 1
 237.333 175 254 178 270 184 c 1
 295.333 200 315 224.833 329 258.5 c 0
 343 292.167 350 331.333 350 376 c 0
 350 461.333 326.667 551 280 645 c 1
270 75 m 1
 250 65 l 1
 220 65 190.833 76 162.5 98 c 0
 134.167 120 110 150.667 90 190 c 2
 40 290 l 1
 60 300 l 1
 80 260.667 104.167 230 132.5 208 c 0
 160.833 186 190 175 220 175 c 1
 270 75 l 1
150 435 m 1
 130 425 l 1
 124 425 119 424.333 115 423 c 1
 100.333 411.667 89.1667 394.833 81.5 372.5 c 0
 73.8333 350.167 70 329.333 70 310 c 1
 50 300 l 1
 0 400 l 1
 0 421.333 4.5 444.333 13.5 469 c 0
 22.5 493.667 36 510.333 54 519 c 1
 74 529.667 89.3333 535 100 535 c 1
 150 435 l 1
70 310 m 1
 70 290 83.3333 253.333 110 200 c 1
 90 190 l 1
 40 290 l 2
 13.3333 343.333 0 380 0 400 c 1
 20 410 l 1
 70 310 l 1
290 255 m 1
 270 245 l 1
 238 308.334 211.5 354.167 190.5 382.5 c 0
 169.5 410.833 149.333 425 130 425 c 1
 80 525 l 1
 100 535 l 1
 119.333 535 139.5 520.833 160.5 492.5 c 0
 181.5 464.167 208 418.333 240 355 c 2
 290 255 l 1
17 345 m 1
 37 355 l 1
 240 355 l 1
 290 255 l 1
 270 245 l 1
 67 245 l 1
 17 345 l 1
EndSplineSet
Validated: 524293
Substitution2: "'fina' +ip5cPl9i 01" q.fin
Substitution2: "'medi' +ip5OLV9i 01" q.med
Substitution2: "'init' +ip6YLV9i 01" q.ini
EndChar

StartChar: q.ini
Encoding: 304 -1 63
Width: 350
VWidth: 0
Flags: W
HStem: 65 110<178.525 249.333> 355 160G<0 250 300 330>
VStem: 319 70<163.667 285.667>
LayerCount: 2
Fore
SplineSet
270 75 m 1
 250 65 l 1
 220 65 190.833 76 162.5 98 c 0
 134.167 120 110 150.667 90 190 c 2
 40 290 l 1
 60 300 l 1
 80 260.667 104.167 230 132.5 208 c 0
 160.833 186 190 175 220 175 c 1
 270 75 l 1
150 435 m 1
 130 425 l 1
 124 425 119 424.333 115 423 c 1
 100.333 411.667 89.1667 394.833 81.5 372.5 c 0
 73.8333 350.167 70 329.333 70 310 c 1
 50 300 l 1
 0 400 l 1
 0 421.333 4.5 444.333 13.5 469 c 0
 22.5 493.667 36 510.333 54 519 c 1
 74 529.667 89.3333 535 100 535 c 1
 150 435 l 1
70 310 m 1
 70 290 83.3333 253.333 110 200 c 1
 90 190 l 1
 40 290 l 2
 13.3333 343.333 0 380 0 400 c 1
 20 410 l 1
 70 310 l 1
290 255 m 1
 270 245 l 1
 238 308.334 211.5 354.167 190.5 382.5 c 0
 169.5 410.833 149.333 425 130 425 c 1
 80 525 l 1
 100 535 l 1
 119.333 535 139.5 520.833 160.5 492.5 c 0
 181.5 464.167 208 418.333 240 355 c 2
 290 255 l 1
17 345 m 1
 37 355 l 1
 240 355 l 1
 290 255 l 1
 270 245 l 1
 67 245 l 1
 17 345 l 1
220 175 m 1
 249.333 175 273.167 184.5 291.5 203.5 c 0
 309.833 222.5 319 246.333 319 275 c 0
 319 296.334 312.667 319.667 300 345 c 1
 320 355 l 1
 370 255 l 2
 382.667 229.666 389 206.333 389 185 c 0
 389 142.333 368.333 109.667 327 87 c 2
 301 73 l 1
 285.667 67.6667 268.667 65 250 65 c 1
 200 165 l 1
 220 175 l 1
EndSplineSet
Validated: 524293
EndChar

StartChar: q.med
Encoding: 305 -1 64
Width: 283
VWidth: 0
Flags: W
HStem: 65 110<111.525 182.333> 355 160G<-67 183 233 263>
VStem: 252 70<163.667 285.667>
LayerCount: 2
Fore
SplineSet
203 75 m 1
 183 65 l 1
 153 65 123.833 76 95.5 98 c 0
 67.1667 120 43 150.667 23 190 c 2
 -27 290 l 1
 -7 300 l 1
 13 260.667 37.1667 230 65.5 208 c 0
 93.8333 186 123 175 153 175 c 1
 203 75 l 1
83 435 m 1
 63 425 l 1
 57 425 52 424.333 48 423 c 1
 33.3333 411.667 22.1667 394.833 14.5 372.5 c 0
 6.83333 350.167 3 329.333 3 310 c 1
 -17 300 l 1
 -67 400 l 1
 -67 421.333 -62.5 444.333 -53.5 469 c 0
 -44.5 493.667 -31 510.333 -13 519 c 1
 7 529.667 22.3333 535 33 535 c 1
 83 435 l 1
3 310 m 1
 3 290 16.3333 253.333 43 200 c 1
 23 190 l 1
 -27 290 l 2
 -53.6666 343.333 -66.9999 380 -67 400 c 1
 -47 410 l 1
 3 310 l 1
223 255 m 1
 203 245 l 1
 171.667 308.334 145.333 354.167 124 382.5 c 0
 102.667 410.833 82.3333 425 63 425 c 1
 13 525 l 1
 33 535 l 1
 52.3334 535 72.6667 520.833 94 492.5 c 0
 115.333 464.167 141.667 418.333 173 355 c 2
 223 255 l 1
-50 345 m 1
 -30 355 l 1
 173 355 l 1
 223 255 l 1
 203 245 l 1
 0 245 l 1
 -50 345 l 1
153 175 m 1
 182.333 175 206.167 184.5 224.5 203.5 c 0
 242.833 222.5 252 246.333 252 275 c 0
 252 296.334 245.667 319.667 233 345 c 1
 253 355 l 1
 303 255 l 2
 315.667 229.666 322 206.333 322 185 c 0
 322 142.333 301.333 109.667 260 87 c 2
 234 73 l 1
 218.667 67.6667 201.667 65 183 65 c 1
 133 165 l 1
 153 175 l 1
EndSplineSet
Validated: 524293
Substitution2: "'cv02' Character Variants 02-1" q.med2
Substitution2: "'cv01' Character Variants 01-1" q.med1
EndChar

StartChar: q.fin
Encoding: 306 -1 65
Width: 353
VWidth: 0
Flags: W
HStem: 65 110<111.525 170.333> 355 160G<-67 183> 635 20G<213 243>
VStem: 283 70<257.424 431.255>
LayerCount: 2
Fore
SplineSet
213 645 m 1
 233 655 l 1
 283 555 l 2
 329.667 461 353 371.333 353 286 c 0
 353 238.667 345.167 197.5 329.5 162.5 c 0
 313.833 127.5 291.666 102.667 263 88 c 2
 243 78 l 2
 225.667 69.3333 205.667 65 183 65 c 1
 133 165 l 1
 153 175 l 1
 170.333 175 187 178 203 184 c 1
 228.333 200 248 224.833 262 258.5 c 0
 276 292.167 283 331.333 283 376 c 0
 283 461.333 259.667 551 213 645 c 1
203 75 m 1
 183 65 l 1
 153 65 123.833 76 95.5 98 c 0
 67.1667 120 43 150.667 23 190 c 2
 -27 290 l 1
 -7 300 l 1
 13 260.667 37.1667 230 65.5 208 c 0
 93.8333 186 123 175 153 175 c 1
 203 75 l 1
83 435 m 1
 63 425 l 1
 57 425 52 424.333 48 423 c 1
 33.3333 411.667 22.1667 394.833 14.5 372.5 c 0
 6.83333 350.167 3 329.333 3 310 c 1
 -17 300 l 1
 -67 400 l 1
 -67 421.333 -62.5 444.333 -53.5 469 c 0
 -44.5 493.667 -31 510.333 -13 519 c 1
 7 529.667 22.3333 535 33 535 c 1
 83 435 l 1
3 310 m 1
 3 290 16.3333 253.333 43 200 c 1
 23 190 l 1
 -27 290 l 2
 -53.6666 343.333 -66.9999 380 -67 400 c 1
 -47 410 l 1
 3 310 l 1
223 255 m 1
 203 245 l 1
 171.667 308.334 145.333 354.167 124 382.5 c 0
 102.667 410.833 82.3333 425 63 425 c 1
 13 525 l 1
 33 535 l 1
 52.3334 535 72.6667 520.833 94 492.5 c 0
 115.333 464.167 141.667 418.333 173 355 c 2
 223 255 l 1
-50 345 m 1
 -30 355 l 1
 173 355 l 1
 223 255 l 1
 203 245 l 1
 0 245 l 1
 -50 345 l 1
EndSplineSet
Validated: 524293
Substitution2: "'cv02' Character Variants 02-2" q.fin2
Substitution2: "'cv01' Character Variants 01-2" q.fin1
EndChar

StartChar: r
Encoding: 114 114 66
Width: 340
VWidth: 0
Flags: W
HStem: 365 20G<225 255> 425 110<119.667 145>
VStem: 0 70<188.13 394.501>
LayerCount: 2
Fore
SplineSet
460 -45 m 1
 440 -55 l 5
 225 375 l 1
 245 385 l 1
 460 -45 l 1
75 525 m 1
 95 535 l 1
 145 535 195 485 245 385 c 2
 295 285 l 1
 275 275 l 1
 225 375 175 425 125 425 c 1
 75 525 l 1
70 270 m 0
 70 160 95 55 145 -45 c 1
 125 -55 l 1
 75 45 l 2
 25 145 0 248.333 0 355 c 0
 0 451 20.6667 508 62 526 c 0
 75.3333 532 86.3333 535 95 535 c 1
 145 435 l 1
 125 425 l 1
 119.667 425 116 424.667 114 424 c 1
 84.6667 400.667 70 349.333 70 270 c 0
EndSplineSet
Validated: 524293
Substitution2: "'fina' +ip5cPl9i 01" r.fin
Substitution2: "'medi' +ip5OLV9i 01" r.med
Substitution2: "'init' +ip6YLV9i 01" r.ini
EndChar

StartChar: r.ini
Encoding: 307 -1 67
Width: 265
VWidth: 0
Flags: W
HStem: 515 20G<75 105>
VStem: 0 70<188.13 394.501>
LayerCount: 2
Fore
SplineSet
70 270 m 0
 70 160 95 55 145 -45 c 1
 125 -55 l 1
 75 45 l 2
 25 145 0 248.333 0 355 c 0
 0 451 20.6667 508 62 526 c 0
 75.3333 532 86.3333 535 95 535 c 1
 145 435 l 1
 125 425 l 1
 119.667 425 116 424.667 114 424 c 1
 84.6667 400.667 70 349.333 70 270 c 0
285 255 m 1
 265 245 l 1
 233.667 308.334 207.333 354.167 186 382.5 c 0
 164.667 410.833 144.333 425 125 425 c 1
 75 525 l 1
 95 535 l 1
 114.333 535 134.667 520.833 156 492.5 c 0
 177.333 464.167 203.667 418.333 235 355 c 2
 285 255 l 1
EndSplineSet
Validated: 524293
EndChar

StartChar: r.med
Encoding: 308 -1 68
Width: 207
VWidth: 0
Flags: W
HStem: 355 162G<-50 2 17 47>
VStem: -35 70<305 457.93>
LayerCount: 2
Fore
SplineSet
87 437 m 1
 67 427 l 1
 48 408 35 363 35 315 c 0
 35 295 37 274 42 255 c 1
 22 245 l 1
 -28 345 l 1
 -33 364 -35 385 -35 405 c 0
 -35 460 -18 516 14 529 c 0
 23 534 30 537 37 537 c 1
 87 437 l 1
-8 355 m 1
 42 255 l 1
 66.9199 155.315 116.686 5.94531 141.763 -44.5234 c 0
 142.209 -45.4189 141.553 -44.1055 142 -45 c 1
 122 -55 l 1
 72 45 l 2
 71.5527 45.8945 72.209 44.5811 71.7627 45.4766 c 0
 46.6855 95.9453 -3.08008 245.315 -28 345 c 1
 -8 355 l 1
227 257 m 1
 207 247 l 1
 175.667 310.334 149.333 356.167 128 384.5 c 0
 106.667 412.833 86.333 427 67 427 c 1
 17 527 l 1
 37 537 l 1
 56.333 537 76.667 522.833 98 494.5 c 0
 119.333 466.167 145.667 420.333 177 357 c 2
 227 257 l 1
-50 345 m 1
 -30 355 l 1
 -8 355 l 1
 42 255 l 1
 22 245 l 1
 0 245 l 1
 -50 345 l 1
EndSplineSet
Validated: 524293
Substitution2: "'cv02' Character Variants 02-1" r.med2
Substitution2: "'cv01' Character Variants 01-1" r.med1
EndChar

StartChar: r.fin
Encoding: 309 -1 69
Width: 310
VWidth: 0
Flags: W
HStem: 355 162G<-50 2 17 62 167 197>
VStem: -35 70<305 457.93>
LayerCount: 2
Fore
SplineSet
87 437 m 1
 67 427 l 1
 48 408 35 363 35 315 c 0
 35 295 37 274 42 255 c 1
 22 245 l 1
 -28 345 l 1
 -33 364 -35 385 -35 405 c 0
 -35 460 -18 516 14 529 c 0
 23 534 30 537 37 537 c 1
 87 437 l 1
-8 355 m 1
 42 255 l 1
 66.9199 155.315 116.686 5.94531 141.763 -44.5234 c 0
 142.209 -45.4189 141.553 -44.1055 142 -45 c 1
 122 -55 l 1
 72 45 l 2
 71.5527 45.8945 72.209 44.5811 71.7627 45.4766 c 0
 46.6855 95.9453 -3.08008 245.315 -28 345 c 1
 -8 355 l 1
-50 345 m 1
 -30 355 l 1
 -8 355 l 1
 42 255 l 1
 22 245 l 1
 0 245 l 1
 -50 345 l 1
402 -43 m 1
 382 -53 l 1
 167 377 l 1
 187 387 l 1
 402 -43 l 1
17 527 m 1
 37 537 l 1
 87 537 137 487 187 387 c 2
 237 287 l 1
 217 277 l 1
 167 377 117 427 67 427 c 1
 17 527 l 1
EndSplineSet
Validated: 524293
Substitution2: "'cv02' Character Variants 02-2" r.fin2
Substitution2: "'cv01' Character Variants 01-2" r.fin1
EndChar

StartChar: s.ini
Encoding: 310 -1 70
Width: 298
VWidth: 0
Flags: W
HStem: 248.443 287.557 390 20G<63 93 118 223>
VStem: 0 318
LayerCount: 2
Fore
SplineSet
173 345 m 1xa0
 193 355 l 1
 196.452 355.151 l 1
 199.673 359.417 201.284 364.712 201.284 371.035 c 0
 201.284 379.298 198.523 388.953 193 400 c 1
 213 410 l 1x60
 263 310 l 2
 268.523 298.953 271.284 289.298 271.284 281.035 c 0
 271.284 270.401 266.971 262.871 258.346 258.443 c 2
 238.346 248.443 l 2
 233.543 246.148 228.428 245 223 245 c 1
 173 345 l 1xa0
263 310 m 1
 243 300 l 1
 130 526 l 1
 150 536 l 1xa0
 263 310 l 1
318 255 m 1
 298 245 l 1
 279.333 245 261 263.333 243 300 c 2
 193 400 l 1
 213 410 l 1x60
 231 373.333 249.333 355 268 355 c 1
 318 255 l 1
243 255 m 1
 223 245 l 1
 168 245 l 1
 118 345 l 1
 138 355 l 1
 193 355 l 1
 243 255 l 1
43 345 m 1
 63 355 l 1
 66.4521 355.151 l 1
 69.674 359.42 71.2847 364.715 71.2842 371.035 c 0
 71.2842 379.298 68.5228 388.953 63 400 c 1
 83 410 l 1
 133 310 l 2
 138.523 298.953 141.284 289.298 141.284 281.035 c 0
 141.284 270.401 136.971 262.871 128.346 258.443 c 2
 108.346 248.443 l 2
 103.543 246.148 98.4275 245 93 245 c 1
 43 345 l 1
133 310 m 1
 113 300 l 1
 0 526 l 1
 20 536 l 1xa0
 133 310 l 1
188 255 m 1
 168 245 l 1
 149.333 245 131 263.333 113 300 c 2
 63 400 l 1
 83 410 l 1x60
 101 373.333 119.333 355 138 355 c 1
 188 255 l 1
EndSplineSet
Validated: 524293
EndChar

StartChar: s.med
Encoding: 311 -1 71
Width: 205
VWidth: 0
Flags: W
HStem: 248.443 287.557 390 20G<-30 0 25 130>
VStem: -93 318
LayerCount: 2
Fore
SplineSet
80 345 m 1xa0
 100 355 l 1
 103.452 355.151 l 1
 106.673 359.417 108.284 364.712 108.284 371.035 c 0
 108.284 379.298 105.523 388.953 100 400 c 1
 120 410 l 1x60
 170 310 l 2
 175.523 298.953 178.284 289.298 178.284 281.035 c 0
 178.284 270.401 173.971 262.871 165.346 258.443 c 2
 145.346 248.443 l 2
 140.543 246.148 135.427 245 130 245 c 1
 80 345 l 1xa0
170 310 m 1
 150 300 l 1
 37 526 l 1
 57 536 l 1xa0
 170 310 l 1
225 255 m 1
 205 245 l 1
 186.333 245 168 263.333 150 300 c 2
 100 400 l 1
 120 410 l 1x60
 130 390 139.167 375.833 147.5 367.5 c 0
 155.833 359.167 165 355 175 355 c 1
 225 255 l 1
150 255 m 1
 130 245 l 1
 75 245 l 1
 25 345 l 1
 45 355 l 1
 100 355 l 1
 150 255 l 1
-50 345 m 1
 -30 355 l 1
 -26.5479 355.151 l 1
 -23.3265 359.414 -21.7158 364.709 -21.7158 371.035 c 0
 -21.7158 379.298 -24.4772 388.953 -30 400 c 1
 -10 410 l 1
 40 310 l 2
 45.5228 298.953 48.2842 289.298 48.2842 281.035 c 0
 48.2842 270.401 43.9714 262.871 35.3457 258.443 c 2
 15.3457 248.443 l 2
 10.5423 246.148 5.42705 245 0 245 c 1
 -50 345 l 1
40 310 m 1
 20 300 l 1
 -93 526 l 1
 -73 536 l 1xa0
 40 310 l 1
95 255 m 1
 75 245 l 1
 56.3333 245 38 263.333 20 300 c 2
 -30 400 l 1
 -10 410 l 1x60
 0 390 9.16667 375.833 17.5 367.5 c 0
 25.8333 359.167 35 355 45 355 c 1
 95 255 l 1
EndSplineSet
Validated: 524293
Substitution2: "'cv02' Character Variants 02-1" s.med2
Substitution2: "'cv01' Character Variants 01-1" s.med1
EndChar

StartChar: s.fin
Encoding: 312 -1 72
Width: 350
VWidth: 0
Flags: W
HStem: 245 110<56.3333 80 103.452 103.452 186.333 199.667> 390 20G<-93 -63 -30 0 37 67 100 130>
LayerCount: 2
Fore
SplineSet
345 155 m 1
 365 165 l 1
 470 -45 l 1
 450 -55 l 1
 345 155 l 1
415 65 m 1
 395 55 l 1
 369.667 105 338 149.167 300 187.5 c 0
 262 225.833 230.333 245 205 245 c 1
 155 345 l 1
 175 355 l 1
 199.667 355 231.333 335.833 270 297.5 c 0
 308.667 259.167 340.333 215 365 165 c 2
 415 65 l 1
80 345 m 1
 100 355 l 1
 103.452 355.151 l 1
 106.673 359.417 108.284 364.712 108.284 371.035 c 0
 108.284 379.298 105.523 388.953 100 400 c 1
 120 410 l 1
 170 310 l 2
 175.523 298.953 178.284 289.298 178.284 281.035 c 0
 178.284 270.401 173.971 262.871 165.346 258.443 c 2
 145.346 248.443 l 2
 140.543 246.148 135.427 245 130 245 c 1
 80 345 l 1
170 310 m 1
 150 300 l 1
 37 526 l 1
 57 536 l 1
 170 310 l 1
225 255 m 1
 205 245 l 1
 186.333 245 168 263.333 150 300 c 2
 100 400 l 1
 120 410 l 1
 130 390 139.167 375.833 147.5 367.5 c 0
 155.833 359.167 165 355 175 355 c 1
 225 255 l 1
150 255 m 1
 130 245 l 1
 75 245 l 1
 25 345 l 1
 45 355 l 1
 100 355 l 1
 150 255 l 1
-50 345 m 1
 -30 355 l 1
 -26.5479 355.151 l 1
 -23.3265 359.414 -21.7158 364.709 -21.7158 371.035 c 0
 -21.7158 379.298 -24.4772 388.953 -30 400 c 1
 -10 410 l 1
 40 310 l 2
 45.5228 298.953 48.2842 289.298 48.2842 281.035 c 0
 48.2842 270.401 43.9714 262.871 35.3457 258.443 c 2
 15.3457 248.443 l 2
 10.5423 246.148 5.42705 245 0 245 c 1
 -50 345 l 1
40 310 m 1
 20 300 l 1
 -93 526 l 1
 -73 536 l 1
 40 310 l 1
95 255 m 1
 75 245 l 1
 56.3333 245 38 263.333 20 300 c 2
 -30 400 l 1
 -10 410 l 1
 0 390 9.16667 375.833 17.5 367.5 c 0
 25.8333 359.167 35 355 45 355 c 1
 95 255 l 1
EndSplineSet
Validated: 524293
Substitution2: "'cv02' Character Variants 02-2" s.fin2
Substitution2: "'cv01' Character Variants 01-2" s.fin1
EndChar

StartChar: t.ini
Encoding: 313 -1 73
Width: 145
VWidth: 0
Flags: W
HStem: -55 110<109.461 171.75> 355 170G<0 30 95 125> 525 20G<0 30>
VStem: 0 265
LayerCount: 2
Fore
SplineSet
0 535 m 1xd0
 20 545 l 1xb0
 115 355 l 1
 95 345 l 1
 0 535 l 1xd0
109 59 m 1
 118.333 56.3333 127 55 135 55 c 0
 143.667 55 152 56.3333 160 59 c 1
 174.667 69 185 83 191 101 c 1
 183 103.667 174.333 105 165 105 c 0
 156.333 105 148 103.667 140 101 c 1
 126 91 115.667 77 109 59 c 1
35 125 m 0
 35 158.333 49.6667 182.333 79 197 c 2
 99 207 l 2
 111 212.333 123 215 135 215 c 0
 168.333 215 192.333 200.333 207 171 c 2
 257 71 l 2
 262.333 59 265 47 265 35 c 0
 265 1.66667 250.333 -22.3333 221 -37 c 2
 201 -47 l 2
 189 -52.3333 177 -55 165 -55 c 0
 131.667 -55 107.667 -40.3333 93 -11 c 2
 43 89 l 2
 37.6667 101 35 113 35 125 c 0
95 345 m 1
 115 355 l 1xd0
 257 71 l 1
 237 61 l 1
 95 345 l 1
115 355 m 1
95 345 m 1
 115 355 l 1
 165 255 l 1
 145 245 l 1
 95 345 l 1
EndSplineSet
Validated: 524293
EndChar

StartChar: t
Encoding: 116 116 74
Width: 325
VWidth: 0
Flags: W
HStem: -55 110<109.461 171.75> 245 110<145 150 170 220> 525 20G<0 30> 525 20G<0 30>
LayerCount: 2
Fore
SplineSet
95 345 m 1xc0
 115 355 l 1
 170 355 l 1
 220 255 l 1
 200 245 l 1
 145 245 l 1
 95 345 l 1xc0
300 195 m 1
 320 205 l 1
 445 -45 l 1
 425 -55 l 1
 300 195 l 1
150 345 m 1
 170 355 l 1
 220 355 270 305 320 205 c 2
 370 105 l 1
 350 95 l 1
 300 195 250 245 200 245 c 1
 150 345 l 1
0 535 m 1
 20 545 l 1xe0
 115 355 l 1
 95 345 l 1
 0 535 l 1
109 59 m 1
 118.333 56.3333 127 55 135 55 c 0
 143.667 55 152 56.3333 160 59 c 1
 174.667 69 185 83 191 101 c 1
 183 103.667 174.333 105 165 105 c 0
 156.333 105 148 103.667 140 101 c 1
 126 91 115.667 77 109 59 c 1
35 125 m 0
 35 158.333 49.6667 182.333 79 197 c 2
 99 207 l 2
 111 212.333 123 215 135 215 c 0
 168.333 215 192.333 200.333 207 171 c 2
 257 71 l 2
 262.333 59 265 47 265 35 c 0
 265 1.66667 250.333 -22.3333 221 -37 c 2
 201 -47 l 2
 189 -52.3333 177 -55 165 -55 c 0
 131.667 -55 107.667 -40.3333 93 -11 c 2
 43 89 l 2
 37.6667 101 35 113 35 125 c 0
95 345 m 1
 115 355 l 1
 257 71 l 1
 237 61 l 1
 95 345 l 1
115 355 m 1
EndSplineSet
Validated: 524293
Substitution2: "'fina' +ip5cPl9i 01" t.fin
Substitution2: "'medi' +ip5OLV9i 01" t.med
Substitution2: "'init' +ip6YLV9i 01" t.ini
EndChar

StartChar: t.med
Encoding: 314 -1 75
Width: 190
VWidth: 0
Flags: W
HStem: -55 110<154.461 216.75> 525 20G<45 75> 525 20G<45 75 140 170>
LayerCount: 2
Fore
SplineSet
65 545 m 1xc0
 115 445 l 1
 115 409.667 106.167 372 88.5 332 c 0
 70.8333 292 52.3333 267.333 33 258 c 2
 13 248 l 2
 9 246 4.66667 245 0 245 c 1
 -50 345 l 1
 -30 355 l 1
 -12 370.333 5 396.167 21 432.5 c 0
 37 468.833 45 503 45 535 c 1
 65 545 l 1xc0
45 535 m 1
 65 545 l 1
 160 355 l 1
 140 345 l 1
 45 535 l 1
154 59 m 1
 163.333 56.3333 172 55 180 55 c 0
 188.667 55 197 56.3333 205 59 c 1
 219.667 69 230 83 236 101 c 1
 228 103.667 219.333 105 210 105 c 0
 201.333 105 193 103.667 185 101 c 1
 171 91 160.667 77 154 59 c 1
80 125 m 0
 80 158.333 94.6667 182.333 124 197 c 2
 144 207 l 2
 156 212.333 168 215 180 215 c 0
 213.333 215 237.333 200.333 252 171 c 2
 302 71 l 2
 307.333 59 310 47 310 35 c 0
 310 1.66667 295.333 -22.3333 266 -37 c 2
 246 -47 l 2
 234 -52.3333 222 -55 210 -55 c 0
 176.667 -55 152.667 -40.3333 138 -11 c 2
 88 89 l 2
 82.6667 101 80 113 80 125 c 0
140 345 m 1
 160 355 l 1
 302 71 l 1
 282 61 l 1
 140 345 l 1
160 355 m 1
140 345 m 1
 160 355 l 1
 210 255 l 1
 190 245 l 1
 140 345 l 1
EndSplineSet
Validated: 524293
Substitution2: "'cv02' Character Variants 02-1" t.med2
Substitution2: "'cv01' Character Variants 01-1" t.med1
EndChar

StartChar: t.fin
Encoding: 315 -1 76
Width: 370
VWidth: 0
Flags: W
HStem: -55 110<154.461 216.75> 245 110<190 195 215 265> 525 20G<45 75> 525 20G<45 75>
LayerCount: 2
Fore
SplineSet
140 345 m 1xc0
 160 355 l 1
 215 355 l 1
 265 255 l 1
 245 245 l 1
 190 245 l 1
 140 345 l 1xc0
345 195 m 1
 365 205 l 1
 490 -45 l 1
 470 -55 l 1
 345 195 l 1
195 345 m 1
 215 355 l 1
 265 355 315 305 365 205 c 2
 415 105 l 1
 395 95 l 1
 345 195 295 245 245 245 c 1
 195 345 l 1
65 545 m 1xe0
 115 445 l 1
 115 409.667 106.167 372 88.5 332 c 0
 70.8333 292 52.3333 267.333 33 258 c 2
 13 248 l 2
 9 246 4.66667 245 0 245 c 1
 -50 345 l 1
 -30 355 l 1
 -12 370.333 5 396.167 21 432.5 c 0
 37 468.833 45 503 45 535 c 1
 65 545 l 1xe0
45 535 m 1
 65 545 l 1
 160 355 l 1
 140 345 l 1
 45 535 l 1
154 59 m 1
 163.333 56.3333 172 55 180 55 c 0
 188.667 55 197 56.3333 205 59 c 1
 219.667 69 230 83 236 101 c 1
 228 103.667 219.333 105 210 105 c 0
 201.333 105 193 103.667 185 101 c 1
 171 91 160.667 77 154 59 c 1
80 125 m 0
 80 158.333 94.6667 182.333 124 197 c 2
 144 207 l 2
 156 212.333 168 215 180 215 c 0
 213.333 215 237.333 200.333 252 171 c 2
 302 71 l 2
 307.333 59 310 47 310 35 c 0
 310 1.66667 295.333 -22.3333 266 -37 c 2
 246 -47 l 2
 234 -52.3333 222 -55 210 -55 c 0
 176.667 -55 152.667 -40.3333 138 -11 c 2
 88 89 l 2
 82.6667 101 80 113 80 125 c 0
140 345 m 1
 160 355 l 1
 302 71 l 1
 282 61 l 1
 140 345 l 1
160 355 m 1
EndSplineSet
Validated: 524293
Substitution2: "'cv02' Character Variants 02-2" t.fin2
Substitution2: "'cv01' Character Variants 01-2" t.fin1
EndChar

StartChar: u.ini
Encoding: 316 -1 77
Width: 280
VWidth: 0
Flags: W
HStem: 65 21G<270 300> 245 110<145 230> 525 20G<0 30> 525 20G<0 30>
VStem: 276 70<100.159 224.333>
LayerCount: 2
Fore
SplineSet
230 165 m 1xc8
 250 175 l 1
 258 175 263 175.333 265 176 c 1
 272.333 183.333 276 194.667 276 210 c 0
 276 238.667 260.667 283.667 230 345 c 1
 250 355 l 1
 300 255 l 2
 330.667 193.667 346 148.667 346 120 c 0
 346 100 339.333 86.6667 326 80 c 0
 306 70 290.667 65 280 65 c 1
 230 165 l 1xc8
300 255 m 1
 282 245 l 1
 145 245 l 1
 95 345 l 1
 115 355 l 1
 250 355 l 1
 300 255 l 1
180 225 m 1
 160 215 l 1
 0 535 l 1
 20 545 l 1xe8
 180 225 l 1
300 75 m 1
 280 65 l 1
 261.333 65 243.5 76.3333 226.5 99 c 0
 209.5 121.667 187.333 160.333 160 215 c 2
 110 315 l 1
 130 325 l 1
 157.333 269.667 179.5 230.833 196.5 208.5 c 0
 213.5 186.167 231.333 175 250 175 c 1
 300 75 l 1
EndSplineSet
Validated: 524293
EndChar

StartChar: u.med
Encoding: 317 -1 78
Width: 135
VWidth: 0
Flags: W
HStem: 65 21G<125 155> 245 110<0 85> 525 20G<-145 -115> 525 20G<-145 -115>
VStem: 131 70<100.159 224.333>
LayerCount: 2
Fore
SplineSet
85 165 m 1xc8
 105 175 l 1
 113 175 118 175.333 120 176 c 1
 127.333 183.333 131 194.667 131 210 c 0
 131 238.667 115.667 283.667 85 345 c 1
 105 355 l 1
 155 255 l 2
 185.667 193.667 201 148.667 201 120 c 0
 201 100 194.333 86.667 181 80 c 0
 161 70 145.667 65 135 65 c 1
 85 165 l 1xc8
155 255 m 1
 135 245 l 1
 0 245 l 1
 -50 345 l 1
 -30 355 l 1
 105 355 l 1
 155 255 l 1
35 225 m 1
 15 215 l 1
 -145 535 l 1
 -125 545 l 1xe8
 35 225 l 1
155 75 m 1
 135 65 l 1
 116.333 65 98.5 76.333 81.5 99 c 0
 64.5 121.667 42.333 160.333 15 215 c 2
 -35 315 l 1
 -15 325 l 1
 12.333 269.667 34.5 230.833 51.5 208.5 c 0
 68.5 186.167 86.333 175 105 175 c 1
 155 75 l 1
EndSplineSet
Validated: 524293
Substitution2: "'cv02' Character Variants 02-1" u.med2
Substitution2: "'cv01' Character Variants 01-1" u.med1
EndChar

StartChar: u.fin
Encoding: 318 -1 79
Width: 201
VWidth: 0
Flags: W
HStem: 65 21G<125 155> 245 110<0 85> 525 20G<-145 -115> 525 20G<-145 -115>
VStem: 131 70<100.159 224.333>
LayerCount: 2
Fore
SplineSet
85 165 m 1xc8
 105 175 l 1
 113 175 118 175.333 120 176 c 1
 127.333 183.333 131 194.667 131 210 c 0
 131 238.667 115.667 283.667 85 345 c 1
 105 355 l 1
 155 255 l 2
 185.667 193.667 201 148.667 201 120 c 0
 201 100 194.333 86.667 181 80 c 0
 161 70 145.667 65 135 65 c 1
 85 165 l 1xc8
155 255 m 1
 135 245 l 1
 0 245 l 1
 -50 345 l 1
 -30 355 l 1
 105 355 l 1
 155 255 l 1
35 225 m 1
 15 215 l 1
 -145 535 l 1
 -125 545 l 1xe8
 35 225 l 1
155 75 m 1
 135 65 l 1
 116.333 65 98.5 76.333 81.5 99 c 0
 64.5 121.667 42.333 160.333 15 215 c 2
 -35 315 l 1
 -15 325 l 1
 12.333 269.667 34.5 230.833 51.5 208.5 c 0
 68.5 186.167 86.333 175 105 175 c 1
 155 75 l 1
EndSplineSet
Validated: 524293
Substitution2: "'cv02' Character Variants 02-2" u.fin2
Substitution2: "'cv01' Character Variants 01-2" u.fin1
EndChar

StartChar: u
Encoding: 117 117 80
Width: 390
VWidth: 0
Flags: W
HStem: 65 21G<285 330> 245 110<145 260 280 300> 525 20G<0 30> 525 20G<0 30>
LayerCount: 2
Fore
SplineSet
260 165 m 1xc0
 280 175 l 2
 281.338 175 283.171 175.167 285.5 175.5 c 0
 287.833 175.833 289.333 176 290 176 c 0
 307.333 190.667 317.333 213.667 320 245 c 1
 317 245 l 1
 313 245 l 1
 310 245 l 1
 260 345 l 1
 280 355 l 1
 300 355 316 343.333 328 320 c 2
 378 220 l 2
 386 203.333 390 185 390 165 c 0
 390 147 386.5 129.833 379.5 113.5 c 0
 372.5 97.1667 362.667 86 350 80 c 0
 330 70 316.667 65 310 65 c 1
 260 165 l 1xc0
330 255 m 1
 310 245 l 1
 145 245 l 1
 95 345 l 1
 115 355 l 1
 280 355 l 1
 330 255 l 1
180 225 m 1
 160 215 l 1
 0 535 l 1
 20 545 l 1xe0
 180 225 l 1
330 75 m 1
 310 65 l 1
 260 65 210 115 160 215 c 2
 110 315 l 1
 130 325 l 1
 180 225 230 175 280 175 c 1
 330 75 l 1
EndSplineSet
Validated: 524293
Substitution2: "'fina' +ip5cPl9i 01" u.fin
Substitution2: "'medi' +ip5OLV9i 01" u.med
Substitution2: "'init' +ip6YLV9i 01" u.ini
EndChar

StartChar: v.ini
Encoding: 319 -1 81
Width: 300
VWidth: 0
Flags: W
HStem: 245 110<0 60 80 130 248.128 270>
LayerCount: 2
Fore
SplineSet
-50 345 m 1
 -30 355 l 1
 80 355 l 1
 130 255 l 1
 110 245 l 1
 0 245 l 1
 -50 345 l 1
100 -55 m 1
 50 45 l 1
 50 90.9506 66.4053 145.581 99.2158 208.892 c 0
 132.026 272.202 168.566 314.021 208.835 334.348 c 0
 209.263 334.562 209.497 334.679 209.536 334.699 c 2
 229.536 344.699 l 2
 243.361 351.566 256.849 355 270 355 c 1
 320 255 l 1
 300 245 l 1
 290.007 245 279.745 242.988 269.215 238.965 c 1
 231.02 215.45 196.602 173.207 165.961 112.235 c 0
 135.32 51.2643 120 -1.14753 120 -45 c 1
 100 -55 l 1
210 195 m 1
 230 205 l 1
 355 -45 l 1
 335 -55 l 1
 210 195 l 1
60 345 m 1
 80 355 l 1
 130 355 180 305 230 205 c 2
 280 105 l 1
 260 95 l 1
 210 195 160 245 110 245 c 1
 60 345 l 1
EndSplineSet
Validated: 524293
EndChar

StartChar: v.med
Encoding: 320 -1 82
Width: 190
VWidth: 0
Flags: W
HStem: 245 110<0 23.4375 138.128 160>
VStem: -60 305
LayerCount: 2
Fore
SplineSet
-10 -55 m 1
 -60 45 l 1
 -60 90.9506 -43.5947 145.581 -10.7842 208.892 c 0
 22.0264 272.202 58.5661 314.021 98.835 334.348 c 0
 99.2336 334.548 99.4673 334.665 99.5361 334.699 c 2
 119.536 344.699 l 2
 133.361 351.566 146.849 355 160 355 c 1
 210 255 l 1
 190 245 l 1
 180.008 245 169.746 242.988 159.215 238.965 c 1
 121.02 215.45 86.6015 173.207 55.9609 112.236 c 0
 25.3203 51.2644 10 -1.14745 10 -45 c 1
 -10 -55 l 1
100 195 m 1
 120 205 l 1
 245 -45 l 1
 225 -55 l 1
 100 195 l 1
-50 345 m 1
 -30 355 l 1
 20 355 70 305 120 205 c 2
 170 105 l 1
 150 95 l 1
 100 195 50 245 0 245 c 1
 -50 345 l 1
EndSplineSet
Validated: 524293
Substitution2: "'cv04' Character Variants 04-1" v.med4
Substitution2: "'cv03' Character Variants 03-1" v.med3
Substitution2: "'cv02' Character Variants 02-1" v.med2
Substitution2: "'cv01' Character Variants 01-1" v.med1
EndChar

StartChar: v.fin
Encoding: 321 -1 83
Width: 125
VWidth: 0
Flags: W
HStem: 335 20G<-50 -5>
VStem: -60 305
LayerCount: 2
Fore
SplineSet
101.43 184.5 m 1
 75.3543 151.238 53.597 112.528 36.1582 68.3719 c 0
 18.7194 24.2153 10 -13.5753 10 -45 c 1
 -10 -55 l 1
 -60 45 l 1
 -60 77.5265 -50.7614 116.715 -32.2843 162.566 c 0
 -13.8072 208.416 9.11078 247.894 36.4696 281 c 1
 101.43 184.5 l 1
100 195 m 1
 120 205 l 1
 245 -45 l 1
 225 -55 l 1
 100 195 l 1
-50 345 m 1
 -30 355 l 1
 20 355 70 305 120 205 c 2
 170 105 l 1
 150 95 l 1
 100 195 50 245 0 245 c 1
 -50 345 l 1
EndSplineSet
Validated: 524293
Substitution2: "'cv04' Character Variants 04-2" v.fin4
Substitution2: "'cv03' Character Variants 03-2" v.fin3
Substitution2: "'cv02' Character Variants 02-2" v.fin2
Substitution2: "'cv01' Character Variants 01-2" v.fin1
EndChar

StartChar: w.ini
Encoding: 322 -1 84
Width: 415
VWidth: 0
Flags: W
HStem: 65 21G<270 300 405 435> 245 110<145 230 250 265 300 365> 525 20G<0 30> 525 20G<0 30>
VStem: 411 70<100.159 224.333>
LayerCount: 2
Fore
SplineSet
365 165 m 1xc8
 385 175 l 1
 393 175 398 175.333 400 176 c 1
 407.333 183.333 411 194.667 411 210 c 0
 411 238.667 395.667 283.667 365 345 c 1
 385 355 l 1
 435 255 l 2
 465.667 193.667 481 148.667 481 120 c 0
 481 100 474.333 86.6667 461 80 c 0
 441 70 425.667 65 415 65 c 1
 365 165 l 1xc8
230 165 m 1
 250 175 l 1
 258 175 263 175.333 265 176 c 1
 272.333 183.333 276 194.667 276 210 c 0
 276 238.667 260.667 283.667 230 345 c 1
 250 355 l 1
 300 255 l 2
 330.667 193.667 346 148.667 346 120 c 0
 346 100 339.333 86.6667 326 80 c 0
 306 70 290.667 65 280 65 c 1
 230 165 l 1
435 75 m 1
 415 65 l 1
 396.333 65 378.5 76.3333 361.5 99 c 0
 344.5 121.667 322.333 160.333 295 215 c 2
 245 315 l 1
 265 325 l 1
 292.333 269.667 314.5 230.833 331.5 208.5 c 0
 348.5 186.167 366.333 175 385 175 c 1
 435 75 l 1
435 255 m 1
 415 245 l 1
 145 245 l 1
 95 345 l 1
 115 355 l 1
 385 355 l 1
 435 255 l 1
180 225 m 1
 160 215 l 1
 0 535 l 1
 20 545 l 1xe8
 180 225 l 1
300 75 m 1
 280 65 l 1
 261.333 65 243.5 76.3333 226.5 99 c 0
 209.5 121.667 187.333 160.333 160 215 c 2
 110 315 l 1
 130 325 l 1
 157.333 269.667 179.5 230.833 196.5 208.5 c 0
 213.5 186.167 231.333 175 250 175 c 1
 300 75 l 1
EndSplineSet
Validated: 524293
EndChar

StartChar: w.med
Encoding: 323 -1 85
Width: 270
VWidth: 0
Flags: W
HStem: 65 21G<125 155 260 290> 245 110<0 85 105 120 155 220> 525 20G<-145 -115> 525 20G<-145 -115>
VStem: 266 70<100.159 224.333>
LayerCount: 2
Fore
SplineSet
220 165 m 1xc8
 240 175 l 1
 248 175 253 175.333 255 176 c 1
 262.333 183.333 266 194.667 266 210 c 0
 266 238.667 250.667 283.667 220 345 c 1
 240 355 l 1
 290 255 l 2
 320.667 193.667 336 148.667 336 120 c 0
 336 100 329.333 86.667 316 80 c 0
 296 70 280.667 65 270 65 c 1
 220 165 l 1xc8
85 165 m 1
 105 175 l 1
 113 175 118 175.333 120 176 c 1
 127.333 183.333 131 194.667 131 210 c 0
 131 238.667 115.667 283.667 85 345 c 1
 105 355 l 1
 155 255 l 2
 185.667 193.667 201 148.667 201 120 c 0
 201 100 194.333 86.667 181 80 c 0
 161 70 145.667 65 135 65 c 1
 85 165 l 1
290 75 m 1
 270 65 l 1
 251.333 65 233.5 76.333 216.5 99 c 0
 199.5 121.667 177.333 160.333 150 215 c 2
 100 315 l 1
 120 325 l 1
 147.333 269.667 169.5 230.833 186.5 208.5 c 0
 203.5 186.167 221.333 175 240 175 c 1
 290 75 l 1
290 255 m 1
 270 245 l 1
 0 245 l 1
 -50 345 l 1
 -30 355 l 1
 240 355 l 1
 290 255 l 1
35 225 m 1
 15 215 l 1
 -145 535 l 1
 -125 545 l 1xe8
 35 225 l 1
155 75 m 1
 135 65 l 1
 116.333 65 98.5 76.333 81.5 99 c 0
 64.5 121.667 42.333 160.333 15 215 c 2
 -35 315 l 1
 -15 325 l 1
 12.333 269.667 34.5 230.833 51.5 208.5 c 0
 68.5 186.167 86.333 175 105 175 c 1
 155 75 l 1
EndSplineSet
Validated: 524293
Substitution2: "'cv02' Character Variants 02-1" w.med2
Substitution2: "'cv01' Character Variants 01-1" w.med1
EndChar

StartChar: w.fin
Encoding: 324 -1 86
Width: 336
VWidth: 0
Flags: W
HStem: 65 21G<125 155 260 290> 245 110<0 85 105 120 155 220> 525 20G<-145 -115> 525 20G<-145 -115>
VStem: 266 70<100.159 224.333>
LayerCount: 2
Fore
SplineSet
220 165 m 1xc8
 240 175 l 1
 248 175 253 175.333 255 176 c 1
 262.333 183.333 266 194.667 266 210 c 0
 266 238.667 250.667 283.667 220 345 c 1
 240 355 l 1
 290 255 l 2
 320.667 193.667 336 148.667 336 120 c 0
 336 100 329.333 86.667 316 80 c 0
 296 70 280.667 65 270 65 c 1
 220 165 l 1xc8
85 165 m 1
 105 175 l 1
 113 175 118 175.333 120 176 c 1
 127.333 183.333 131 194.667 131 210 c 0
 131 238.667 115.667 283.667 85 345 c 1
 105 355 l 1
 155 255 l 2
 185.667 193.667 201 148.667 201 120 c 0
 201 100 194.333 86.667 181 80 c 0
 161 70 145.667 65 135 65 c 1
 85 165 l 1
290 75 m 1
 270 65 l 1
 251.333 65 233.5 76.333 216.5 99 c 0
 199.5 121.667 177.333 160.333 150 215 c 2
 100 315 l 1
 120 325 l 1
 147.333 269.667 169.5 230.833 186.5 208.5 c 0
 203.5 186.167 221.333 175 240 175 c 1
 290 75 l 1
290 255 m 1
 270 245 l 1
 0 245 l 1
 -50 345 l 1
 -30 355 l 1
 240 355 l 1
 290 255 l 1
35 225 m 1
 15 215 l 1
 -145 535 l 1
 -125 545 l 1xe8
 35 225 l 1
155 75 m 1
 135 65 l 1
 116.333 65 98.5 76.333 81.5 99 c 0
 64.5 121.667 42.333 160.333 15 215 c 2
 -35 315 l 1
 -15 325 l 1
 12.333 269.667 34.5 230.833 51.5 208.5 c 0
 68.5 186.167 86.333 175 105 175 c 1
 155 75 l 1
EndSplineSet
Validated: 524293
Substitution2: "'cv02' Character Variants 02-2" w.fin2
Substitution2: "'cv01' Character Variants 01-2" w.fin1
EndChar

StartChar: x.ini
Encoding: 325 -1 87
Width: 200
VWidth: 0
Flags: W
HStem: 335 20G<0 180>
VStem: 0 220
LayerCount: 2
Fore
SplineSet
170 355 m 1
 220 255 l 1
 170 205 145 155 145 105 c 1
 125 95 l 1
 75 195 l 1
 75 245 100 295 150 345 c 1
 170 355 l 1
0 345 m 1
 20 355 l 1
 170 355 l 1
 220 255 l 1
 200 245 l 1
 50 245 l 1
 0 345 l 1
75 195 m 1
 95 205 l 1
 220 -45 l 1
 200 -55 l 1
 75 195 l 1
EndSplineSet
Validated: 5
EndChar

StartChar: x.med
Encoding: 326 -1 88
Width: 150
VWidth: 0
Flags: W
HStem: 335 20G<-50 130>
VStem: -50 220
LayerCount: 2
Fore
SplineSet
120 355 m 1
 170 255 l 1
 120 205 95 155 95 105 c 1
 75 95 l 1
 25 195 l 1
 25 245 50 295 100 345 c 1
 120 355 l 1
-50 345 m 1
 -30 355 l 1
 120 355 l 1
 170 255 l 1
 150 245 l 1
 0 245 l 1
 -50 345 l 1
25 195 m 1
 45 205 l 1
 170 -45 l 1
 150 -55 l 1
 25 195 l 1
EndSplineSet
Validated: 5
Substitution2: "'cv02' Character Variants 02-1" x.med2
Substitution2: "'cv01' Character Variants 01-1" x.med1
EndChar

StartChar: x.fin
Encoding: 327 -1 89
Width: 170
VWidth: 0
Flags: W
HStem: 335 20G<-50 130>
VStem: -50 220
LayerCount: 2
Fore
SplineSet
120 355 m 1
 170 255 l 1
 120 205 95 155 95 105 c 1
 75 95 l 1
 25 195 l 1
 25 245 50 295 100 345 c 1
 120 355 l 1
-50 345 m 1
 -30 355 l 1
 120 355 l 1
 170 255 l 1
 150 245 l 1
 0 245 l 1
 -50 345 l 1
25 195 m 1
 45 205 l 1
 170 -45 l 1
 150 -55 l 1
 25 195 l 1
EndSplineSet
Validated: 5
Substitution2: "'cv02' Character Variants 02-2" x.fin2
Substitution2: "'cv01' Character Variants 01-2" x.fin1
EndChar

StartChar: y.ini
Encoding: 328 -1 90
Width: 235
VWidth: 0
Flags: W
HStem: 65 21G<130 310> 245 110<50 150>
VStem: 0 310
LayerCount: 2
Fore
SplineSet
90 165 m 1
 110 175 l 1
 260 175 l 1
 310 75 l 1
 290 65 l 1
 140 65 l 1
 90 165 l 1
0 345 m 1
 20 355 l 1
 205 355 l 1
 255 255 l 1
 235 245 l 1
 50 245 l 1
 0 345 l 1
150 345 m 1
 170 355 l 1
 310 75 l 1
 290 65 l 1
 150 345 l 1
EndSplineSet
Validated: 5
EndChar

StartChar: y.med
Encoding: 329 -1 91
Width: 130
VWidth: 0
Flags: W
HStem: 65 21G<25 205> 245 110<0 45>
VStem: -50 255
LayerCount: 2
Fore
SplineSet
-15 165 m 1
 5 175 l 1
 155 175 l 1
 205 75 l 1
 185 65 l 1
 35 65 l 1
 -15 165 l 1
-50 345 m 1
 -30 355 l 1
 100 355 l 1
 150 255 l 1
 130 245 l 1
 0 245 l 1
 -50 345 l 1
45 345 m 1
 65 355 l 1
 205 75 l 1
 185 65 l 1
 45 345 l 1
EndSplineSet
Validated: 5
Substitution2: "'cv03' Character Variants 03-1" y.med3
Substitution2: "'cv02' Character Variants 02-1" y.med2
Substitution2: "'cv01' Character Variants 01-1" y.med1
EndChar

StartChar: y.fin
Encoding: 330 -1 92
Width: 255
VWidth: 0
Flags: W
HStem: 65 21G<25 205> 245 110<0 45 65 80 100 150>
LayerCount: 2
Fore
SplineSet
-15 165 m 1
 5 175 l 1
 155 175 l 1
 205 75 l 1
 185 65 l 1
 35 65 l 1
 -15 165 l 1
-50 345 m 1
 -30 355 l 1
 100 355 l 1
 150 255 l 1
 130 245 l 1
 0 245 l 1
 -50 345 l 1
45 345 m 1
 65 355 l 1
 205 75 l 1
 185 65 l 1
 45 345 l 1
230 195 m 1
 250 205 l 1
 375 -45 l 1
 355 -55 l 1
 230 195 l 1
80 345 m 1
 100 355 l 1
 150 355 200 305 250 205 c 2
 300 105 l 1
 280 95 l 1
 230 195 180 245 130 245 c 1
 80 345 l 1
EndSplineSet
Validated: 5
Substitution2: "'cv03' Character Variants 03-2" y.fin3
Substitution2: "'cv02' Character Variants 02-2" y.fin2
Substitution2: "'cv01' Character Variants 01-2" y.fin1
EndChar

StartChar: z.ini
Encoding: 331 -1 93
Width: 200
VWidth: 0
Flags: W
HStem: 335 20G<0 180> 425 110<50 170>
VStem: 0 220
LayerCount: 2
Fore
SplineSet
0 525 m 1
 20 535 l 1
 170 535 l 1
 220 435 l 1
 200 425 l 1
 50 425 l 1
 0 525 l 1
0 345 m 1
 20 355 l 1
 170 355 l 1
 220 255 l 1
 200 245 l 1
 50 245 l 1
 0 345 l 1
0 525 m 1
 20 535 l 1
 160 255 l 1
 140 245 l 1
 0 525 l 1
EndSplineSet
Validated: 5
EndChar

StartChar: z.med
Encoding: 332 -1 94
Width: 60
VWidth: 0
Flags: W
HStem: 335 20G<-50 40> 425 110<-90 30>
VStem: -140 220
LayerCount: 2
Fore
SplineSet
-140 525 m 1
 -120 535 l 1
 30 535 l 1
 80 435 l 1
 60 425 l 1
 -90 425 l 1
 -140 525 l 1
-50 345 m 1
 -30 355 l 1
 30 355 l 1
 80 255 l 1
 60 245 l 1
 0 245 l 1
 -50 345 l 1
-140 525 m 1
 -120 535 l 1
 20 255 l 1
 0 245 l 1
 -140 525 l 1
EndSplineSet
Validated: 5
Substitution2: "'cv03' Character Variants 03-1" z.med3
Substitution2: "'cv02' Character Variants 02-1" z.med2
Substitution2: "'cv01' Character Variants 01-1" z.med1
EndChar

StartChar: z.fin
Encoding: 333 -1 95
Width: 215
VWidth: 0
Flags: W
HStem: 245 110<0 40 60 110> 425 110<-90 30>
LayerCount: 2
Fore
SplineSet
190 195 m 1
 210 205 l 1
 335 -45 l 1
 315 -55 l 1
 190 195 l 1
40 345 m 1
 60 355 l 1
 110 355 160 305 210 205 c 2
 260 105 l 1
 240 95 l 1
 190 195 140 245 90 245 c 1
 40 345 l 1
-140 525 m 1
 -120 535 l 1
 30 535 l 1
 80 435 l 1
 60 425 l 1
 -90 425 l 1
 -140 525 l 1
-50 345 m 1
 -30 355 l 1
 60 355 l 1
 110 255 l 1
 90 245 l 1
 0 245 l 1
 -50 345 l 1
-140 525 m 1
 -120 535 l 1
 20 255 l 1
 0 245 l 1
 -140 525 l 1
EndSplineSet
Validated: 5
Substitution2: "'cv03' Character Variants 03-2" z.fin3
Substitution2: "'cv02' Character Variants 02-2" z.fin2
Substitution2: "'cv01' Character Variants 01-2" z.fin1
EndChar

StartChar: v
Encoding: 118 118 96
Width: 285
VWidth: 0
Flags: W
HStem: 245 110<50 110 130 180>
LayerCount: 2
Fore
SplineSet
261.43 184.5 m 1
 235.354 151.238 213.597 112.528 196.158 68.3718 c 0
 178.719 24.2152 170 -13.5754 170 -45 c 1
 150 -55 l 1
 100 45 l 1
 100 77.5266 109.239 116.715 127.716 162.566 c 0
 146.193 208.416 169.111 247.894 196.47 281 c 1
 261.43 184.5 l 1
0 345 m 1
 20 355 l 1
 130 355 l 1
 180 255 l 1
 160 245 l 1
 50 245 l 1
 0 345 l 1
260 195 m 1
 280 205 l 1
 405 -45 l 1
 385 -55 l 1
 260 195 l 1
110 345 m 1
 130 355 l 1
 180 355 230 305 280 205 c 2
 330 105 l 1
 310 95 l 1
 260 195 210 245 160 245 c 1
 110 345 l 1
EndSplineSet
Validated: 524293
Substitution2: "'fina' +ip5cPl9i 01" v.fin
Substitution2: "'medi' +ip5OLV9i 01" v.med
Substitution2: "'init' +ip6YLV9i 01" v.ini
EndChar

StartChar: w
Encoding: 119 119 97
Width: 481
VWidth: 0
Flags: W
HStem: 65 21G<270 300 405 435> 245 110<145 230 250 265 300 365> 525 20G<0 30> 525 20G<0 30>
VStem: 411 70<100.159 224.333>
LayerCount: 2
Fore
SplineSet
365 165 m 1xc8
 385 175 l 1
 393 175 398 175.333 400 176 c 1
 407.333 183.333 411 194.667 411 210 c 0
 411 238.667 395.667 283.667 365 345 c 1
 385 355 l 1
 435 255 l 2
 465.667 193.667 481 148.667 481 120 c 0
 481 100 474.333 86.6667 461 80 c 0
 441 70 425.667 65 415 65 c 1
 365 165 l 1xc8
230 165 m 1
 250 175 l 1
 258 175 263 175.333 265 176 c 1
 272.333 183.333 276 194.667 276 210 c 0
 276 238.667 260.667 283.667 230 345 c 1
 250 355 l 1
 300 255 l 2
 330.667 193.667 346 148.667 346 120 c 0
 346 100 339.333 86.6667 326 80 c 0
 306 70 290.667 65 280 65 c 1
 230 165 l 1
435 75 m 1
 415 65 l 1
 396.333 65 378.5 76.3333 361.5 99 c 0
 344.5 121.667 322.333 160.333 295 215 c 2
 245 315 l 1
 265 325 l 1
 292.333 269.667 314.5 230.833 331.5 208.5 c 0
 348.5 186.167 366.333 175 385 175 c 1
 435 75 l 1
435 255 m 1
 415 245 l 1
 145 245 l 1
 95 345 l 1
 115 355 l 1
 385 355 l 1
 435 255 l 1
180 225 m 1
 160 215 l 1
 0 535 l 1
 20 545 l 1xe8
 180 225 l 1
300 75 m 1
 280 65 l 1
 261.333 65 243.5 76.3333 226.5 99 c 0
 209.5 121.667 187.333 160.333 160 215 c 2
 110 315 l 1
 130 325 l 1
 157.333 269.667 179.5 230.833 196.5 208.5 c 0
 213.5 186.167 231.333 175 250 175 c 1
 300 75 l 1
EndSplineSet
Validated: 524293
Substitution2: "'fina' +ip5cPl9i 01" w.fin
Substitution2: "'medi' +ip5OLV9i 01" w.med
Substitution2: "'init' +ip6YLV9i 01" w.ini
EndChar

StartChar: y
Encoding: 121 121 98
Width: 360
VWidth: 0
Flags: W
HStem: 65 21G<130 310> 245 110<50 150 170 185 205 255>
LayerCount: 2
Fore
SplineSet
90 165 m 1
 110 175 l 1
 260 175 l 1
 310 75 l 1
 290 65 l 1
 140 65 l 1
 90 165 l 1
0 345 m 1
 20 355 l 1
 205 355 l 1
 255 255 l 1
 235 245 l 1
 50 245 l 1
 0 345 l 1
150 345 m 1
 170 355 l 1
 310 75 l 1
 290 65 l 1
 150 345 l 1
335 195 m 1
 355 205 l 1
 480 -45 l 1
 460 -55 l 1
 335 195 l 1
185 345 m 1
 205 355 l 1
 255 355 305 305 355 205 c 2
 405 105 l 1
 385 95 l 1
 335 195 285 245 235 245 c 1
 185 345 l 1
EndSplineSet
Validated: 5
Substitution2: "'fina' +ip5cPl9i 01" y.fin
Substitution2: "'medi' +ip5OLV9i 01" y.med
Substitution2: "'init' +ip6YLV9i 01" y.ini
EndChar

StartChar: z
Encoding: 122 122 99
Width: 355
VWidth: 0
Flags: W
HStem: 245 110<140 180 200 250> 425 110<50 170>
LayerCount: 2
Fore
SplineSet
330 195 m 1
 350 205 l 1
 475 -45 l 1
 455 -55 l 1
 330 195 l 1
180 345 m 1
 200 355 l 1
 250 355 300 305 350 205 c 2
 400 105 l 1
 380 95 l 1
 330 195 280 245 230 245 c 1
 180 345 l 1
0 525 m 1
 20 535 l 1
 170 535 l 1
 220 435 l 1
 200 425 l 1
 50 425 l 1
 0 525 l 1
0 345 m 1
 20 355 l 1
 200 355 l 1
 250 255 l 1
 230 245 l 1
 50 245 l 1
 0 345 l 1
0 525 m 1
 20 535 l 1
 160 255 l 1
 140 245 l 1
 0 525 l 1
EndSplineSet
Validated: 5
Substitution2: "'fina' +ip5cPl9i 01" z.fin
Substitution2: "'medi' +ip5OLV9i 01" z.med
Substitution2: "'init' +ip6YLV9i 01" z.ini
EndChar

StartChar: c
Encoding: 99 99 100
Width: 350
VWidth: 0
Flags: W
HStem: 65 110<140 260> 245 110<50 175 195 245>
LayerCount: 2
Fore
SplineSet
325 195 m 1
 345 205 l 1
 470 -45 l 1
 450 -55 l 1
 325 195 l 1
175 345 m 1
 195 355 l 1
 245 355 295 305 345 205 c 2
 395 105 l 1
 375 95 l 1
 325 195 275 245 225 245 c 1
 175 345 l 1
90 165 m 1
 110 175 l 1
 260 175 l 1
 310 75 l 1
 290 65 l 1
 140 65 l 1
 90 165 l 1
0 345 m 1
 20 355 l 1
 195 355 l 1
 245 255 l 1
 225 245 l 1
 50 245 l 1
 0 345 l 1
0 345 m 1
 20 355 l 1
 160 75 l 1
 140 65 l 1
 0 345 l 1
EndSplineSet
Validated: 5
Substitution2: "'fina' +ip5cPl9i 01" c.fin
Substitution2: "'medi' +ip5OLV9i 01" c.med
Substitution2: "'init' +ip6YLV9i 01" c.ini
EndChar

StartChar: d
Encoding: 100 100 101
Width: 350
VWidth: 0
Flags: W
HStem: -55 110<198.438 244.625> 105 110<213.531 275.57> 245 110<50 175 195 245>
LayerCount: 2
Fore
SplineSet
194 59 m 1
 203.333 56.3333 212 55 220 55 c 0
 228.667 55 237 56.3333 245 59 c 1
 259.667 69 270 83 276 101 c 1
 268 103.667 259.333 105 250 105 c 0
 241.333 105 233 103.667 225 101 c 1
 211 91 200.667 77 194 59 c 1
120 125 m 0
 120 158.333 134.667 182.333 164 197 c 2
 184 207 l 2
 196 212.333 208 215 220 215 c 0
 253.333 215 277.333 200.333 292 171 c 2
 342 71 l 2
 347.333 59 350 47 350 35 c 0
 350 1.66667 335.333 -22.3333 306 -37 c 2
 286 -47 l 2
 274 -52.3333 262 -55 250 -55 c 0
 216.667 -55 192.667 -40.3333 178 -11 c 2
 128 89 l 2
 122.667 101 120 113 120 125 c 0
0 345 m 1
 20 355 l 1
 198 -1 l 1
 178 -11 l 1
 0 345 l 1
20 355 m 1
0 345 m 1
 20 355 l 1
 195 355 l 1
 245 255 l 1
 225 245 l 1
 50 245 l 1
 0 345 l 1
325 195 m 1
 345 205 l 1
 470 -45 l 1
 450 -55 l 1
 325 195 l 1
175 345 m 1
 195 355 l 1
 245 355 295 305 345 205 c 2
 395 105 l 1
 375 95 l 1
 325 195 275 245 225 245 c 1
 175 345 l 1
EndSplineSet
Validated: 524293
Substitution2: "'fina' +ip5cPl9i 01" d.fin
Substitution2: "'medi' +ip5OLV9i 01" d.med
Substitution2: "'init' +ip6YLV9i 01" d.ini
EndChar

StartChar: n
Encoding: 110 110 102
Width: 295
VWidth: 0
Flags: W
HStem: 65 21G<385 415> 245 110<110 160> 365 20G<240 270> 425 110<131.333 160>
LayerCount: 2
Fore
SplineSet
160 255 m 1
 140 245 l 1
 102.667 245 75.6666 261.667 59 295 c 2
 9 395 l 2
 3 407 0 420.333 0 435 c 0
 0 472.333 16.6667 499.333 50 516 c 2
 70 526 l 2
 82 532 95.3333 535 110 535 c 1
 160 435 l 1
 140 425 l 1
 131.333 425 121.333 423.333 110 420 c 1
 89.3333 406 76.6666 387 72 363 c 1
 82.6667 357.667 95.3333 355 110 355 c 1
 160 255 l 1
0 345 m 1
 20 355 l 1
 275 355 l 1
 325 255 l 1
 305 245 l 1
 50 245 l 1
 0 345 l 1
240 375 m 1
 260 385 l 1
 415 75 l 1
 395 65 l 1
 240 375 l 1
90 525 m 1
 110 535 l 1
 160 535 210 485 260 385 c 2
 310 285 l 1
 290 275 l 1
 240 375 190 425 140 425 c 1
 90 525 l 1
EndSplineSet
Validated: 524293
Substitution2: "'fina' +ip5cPl9i 01" n.fin
Substitution2: "'medi' +ip5OLV9i 01" n.med
Substitution2: "'init' +ip6YLV9i 01" n.ini
EndChar

StartChar: h
Encoding: 104 104 103
Width: 366
VWidth: 0
Flags: W
HStem: 335 20G<251 281> 435 110<115.092 223.923> 635 20G<251 281>
VStem: 0 70<302.333 415.667>
LayerCount: 2
Fore
SplineSet
271 355 m 1
 321 255 l 1
 307.667 228.333 301 210 301 200 c 1
 281 190 l 1
 231 290 l 1
 231 300 237.667 318.333 251 345 c 1
 271 355 l 1
301 245 m 1
 251 345 l 1
 281 405 296 455 296 495 c 0
 296 534.809 281.187 584.435 251.561 643.877 c 0
 251.488 644.056 251.301 644.431 251 645 c 2
 271 655 l 5
 321 555 l 2
 321.28 554.447 321.467 554.073 321.561 553.877 c 0
 351.187 494.435 366 444.809 366 405 c 0
 366 365 351 315 321 255 c 1
 301 245 l 1
83 255 m 1
 63 245 l 1
 13 345 l 2
 4.33333 362.334 0 381.667 0 403 c 0
 0 428.333 6.66667 451.5 20 472.5 c 0
 33.3333 493.5 51 509.667 73 521 c 2
 93 531 l 2
 111.667 540.333 131.333 545 152 545 c 0
 177.333 545 200.5 538.333 221.5 525 c 0
 242.5 511.667 258.667 494 270 472 c 2
 320 372 l 2
 329.333 353.333 334 333.666 334 313 c 0
 334 291.667 329.667 272.333 321 255 c 1
 301 245 l 1
 251 345 l 1
 259.667 362.334 264 381.667 264 403 c 2
 264 407 l 1
 240.666 425.667 213.333 435 182 435 c 0
 165.333 435 149 432 133 426 c 1
 91 400.667 70 363 70 313 c 0
 70 291.667 74.3333 272.333 83 255 c 1
EndSplineSet
Validated: 524293
Substitution2: "'fina' +ip5cPl9i 01" h.fin
Substitution2: "'medi' +ip5OLV9i 01" h.med
Substitution2: "'init' +ip6YLV9i 01" h.ini
EndChar

StartChar: l
Encoding: 108 108 104
Width: 295
VWidth: 0
Flags: W
HStem: 525 20G<95 125> 525 20G<95 125>
LayerCount: 2
Fore
SplineSet
0 345 m 1x80
 20 355 l 1
 38.6667 370.333 55.8333 396.333 71.5 433 c 0
 87.1667 469.667 95 503.667 95 535 c 1
 115 545 l 1
 165 445 l 1
 165 411 156 374.833 138 336.5 c 0
 120 298.167 101.667 272 83 258 c 0
 71.6667 249.333 60.6667 245 50 245 c 1
 0 345 l 1x80
95 535 m 1
 115 545 l 1
 415 -55 l 1
 395 -65 l 1
 95 535 l 1
EndSplineSet
Validated: 524293
Substitution2: "'fina' +ip5cPl9i 01" l.fin
Substitution2: "'medi' +ip5OLV9i 01" l.med
Substitution2: "'init' +ip6YLV9i 01" l.ini
EndChar

StartChar: m
Encoding: 109 109 105
Width: 405
VWidth: 0
Flags: W
HStem: 65 21G<130 160 285 315> 335 20G<0 30 155 190 290 320> 635 20G<290 320>
VStem: 335 70<353.32 503.056>
LayerCount: 2
Fore
SplineSet
295 65 m 1
 245 165 l 1
 245 225 260 285 290 345 c 1
 310 355 l 1
 360 255 l 1
 330 195 315 135 315 75 c 1
 295 65 l 1
340 245 m 1
 290 345 l 1
 320 405 335 455 335 495 c 0
 335 534.81 320.187 584.436 290.561 643.877 c 0
 290.466 644.056 290.279 644.431 290 645 c 2
 310 655 l 1
 360 555 l 2
 360.294 554.447 360.481 554.073 360.561 553.877 c 0
 390.187 494.436 405 444.81 405 405 c 0
 405 365 390 315 360 255 c 1
 340 245 l 1
140 65 m 1
 90 165 l 1
 90.0001 258.334 113.333 351.667 160 445 c 1
 180 455 l 1
 230 355 l 1
 183.333 261.667 160 168.333 160 75 c 1
 140 65 l 1
155 345 m 1
 175 355 l 1
 315 75 l 1
 295 65 l 1
 155 345 l 1
0 345 m 1
 20 355 l 1
 160 75 l 1
 140 65 l 1
 0 345 l 1
EndSplineSet
Validated: 524293
Substitution2: "'fina' +ip5cPl9i 01" m.fin
Substitution2: "'medi' +ip5OLV9i 01" m.med
Substitution2: "'init' +ip6YLV9i 01" m.ini
EndChar

StartChar: o
Encoding: 111 111 106
Width: 290
VWidth: 0
Flags: W
HStem: 134 110<94.891 187.523> 356 110<102.61 195.108>
VStem: 0 290<254 346>
LayerCount: 2
Fore
SplineSet
70 262 m 1
 88 250 108 244 130 244 c 0
 143.333 244 156.333 246.333 169 251 c 1
 200.333 271 217.333 301.333 220 338 c 1
 202 350 182 356 160 356 c 0
 146.667 356 133.667 353.667 121 349 c 1
 89.667 329 72.667 298.667 70 262 c 1
0 346 m 0
 0 393.072 27.8633 427.434 61 444 c 2
 81 454 l 2
 95.667 462 112 466 130 466 c 0
 177.07 466 211.43 438.14 228 405 c 1
 278 303 l 1
 285.472 288.057 290 272 290 254 c 0
 290 206.927 262.137 172.567 229 156 c 2
 209 146 l 2
 193.667 138 177.333 134 160 134 c 0
 112.927 134 78.5684 161.863 62 195 c 1
 12 297 l 1
 4 311.667 0 328 0 346 c 0
EndSplineSet
Validated: 524289
Substitution2: "'fina' +ip5cPl9i 01" o.fin
Substitution2: "'medi' +ip5OLV9i 01" o.med
Substitution2: "'init' +ip6YLV9i 01" o.ini
EndChar

StartChar: hyphen
Encoding: 45 45 133
Width: 360
VWidth: 0
Flags: W
HStem: 245 110<60 270>
VStem: 10 310
LayerCount: 2
Fore
SplineSet
10 345 m 1
 30 355 l 1
 270 355 l 1
 320 255 l 1
 300 245 l 1
 60 245 l 1
 10 345 l 1
EndSplineSet
Validated: 1
Substitution2: "'fina' +ip5cPl9i 01" hyphen.fin
Substitution2: "'init' +ip6YLV9i 01" hyphen.ini
Substitution2: "'medi' +ip5OLV9i 01" hyphen.med
EndChar

StartChar: parenleft
Encoding: 40 40 134
Width: 207
VWidth: 0
Flags: W
VStem: 20 54<119.557 470.443>
LayerCount: 2
Fore
SplineSet
132 645 m 9
 187 645 l 17
 112 570 74 433 74 295 c 0
 74 157 112 20 187 -55 c 9
 132 -55 l 17
 57 20 20 157 20 295 c 0
 20 433 57 570 132 645 c 9
EndSplineSet
EndChar

StartChar: parenright
Encoding: 41 41 135
Width: 207
VWidth: 0
Flags: W
HStem: -55 21G<20 112.5>
VStem: 133 54<119.557 470.443>
LayerCount: 2
Fore
SplineSet
75 645 m 21
 150 570 187 433 187 295 c 4
 187 157 150 20 75 -55 c 13
 20 -55 l 21
 95 20 133 157 133 295 c 4
 133 433 95 570 20 645 c 13
 75 645 l 21
EndSplineSet
Validated: 1
EndChar

StartChar: braceleft
Encoding: 123 123 136
Width: 207
VWidth: 0
Flags: W
HStem: -55 21G<77 187>
VStem: 20 167
LayerCount: 2
Fore
SplineSet
132 -55 m 17
 22 -55 130 185 20 295 c 1
 130 405 22 645 132 645 c 9
 187 645 l 17
 77 645 185 405 75 295 c 1
 185 185 77 -55 187 -55 c 9
 132 -55 l 17
EndSplineSet
Validated: 1
EndChar

StartChar: braceright
Encoding: 125 125 137
Width: 207
VWidth: 0
Flags: W
VStem: 20 167
LayerCount: 2
Fore
SplineSet
75 -55 m 9
 20 -55 l 17
 130 -55 22 185 132 295 c 1
 22 405 130 645 20 645 c 9
 75 645 l 17
 185 645 77 405 187 295 c 1
 77 185 185 -55 75 -55 c 9
EndSplineSet
EndChar

StartChar: bracketleft
Encoding: 91 91 138
Width: 207
VWidth: 0
Flags: W
HStem: -55 55<75 187> 590 55<75 187>
VStem: 20 167<-55 0 590 645> 20 55<0 590>
LayerCount: 2
Fore
SplineSet
20 645 m 9xe0
 187 645 l 17
 187 590 l 1xe0
 75 590 l 1
 75 0 l 1xd0
 187 0 l 1
 187 -55 l 9
 20 -55 l 17
 20 178.333 20 411.667 20 645 c 9xe0
EndSplineSet
EndChar

StartChar: bracketright
Encoding: 93 93 139
Width: 207
VWidth: 0
Flags: W
HStem: -55 55<20 132> 590 55<20 132>
VStem: 20 167<-55 0 590 645> 132 55<0 590>
LayerCount: 2
Fore
SplineSet
187 645 m 21xe0
 187 411.667 187 178.333 187 -55 c 13
 20 -55 l 21
 20 0 l 5xe0
 132 0 l 5
 132 590 l 5xd0
 20 590 l 5
 20 645 l 13
 187 645 l 21xe0
EndSplineSet
Validated: 524289
EndChar

StartChar: colon
Encoding: 58 58 140
Width: 240
VWidth: 0
Flags: W
HStem: 355 21G<100 140> 495 20G<100 140>
VStem: 40 160
LayerCount: 2
Fore
SplineSet
40 165 m 25
 120 245 l 1
 200 165 l 1
 120 85 l 1
 40 165 l 25
40 435 m 25
 120 515 l 1
 200 435 l 1
 120 355 l 1
 40 435 l 25
EndSplineSet
Validated: 1
EndChar

StartChar: slash
Encoding: 47 47 141
Width: 445
VWidth: 0
Flags: W
LayerCount: 2
Fore
SplineSet
370 -55 m 21
 20 645 l 13
 75 645 l 21
 425 -55 l 13
 370 -55 l 21
EndSplineSet
Validated: 1
EndChar

StartChar: asterisk
Encoding: 42 42 142
Width: 370
VWidth: 0
Flags: W
HStem: 267 66<20 350> 439 20G<96.4545 142.579 227.421 273.545>
VStem: 20 330<267 333>
LayerCount: 2
Fore
SplineSet
131 141 m 1
 74 174 l 1
 239 459 l 1
 296 426 l 1
 131 141 l 1
296 174 m 1
 239 141 l 1
 74 426 l 1
 131 459 l 1
 296 174 l 1
20 267 m 1
 20 333 l 1
 350 333 l 1
 350 267 l 1
 20 267 l 1
EndSplineSet
Validated: 5
EndChar

StartChar: onequarter
Encoding: 188 188 143
Width: 400
VWidth: 0
Flags: W
VStem: 100 200<0 600>
LayerCount: 2
Fore
SplineSet
100 600 m 1
 300 600 l 1
 300 0 l 1
 100 0 l 1
 100 600 l 1
EndSplineSet
Validated: 1
EndChar

StartChar: onehalf
Encoding: 189 189 144
Width: 400
VWidth: 0
Flags: W
VStem: 100 200<0 600>
LayerCount: 2
Fore
SplineSet
100 600 m 5
 300 600 l 1
 300 0 l 1
 100 0 l 1
 100 600 l 5
EndSplineSet
Validated: 1
EndChar

StartChar: threequarters
Encoding: 190 190 145
Width: 400
VWidth: 0
Flags: W
VStem: 100 200<0 600>
LayerCount: 2
Fore
SplineSet
100 600 m 5
 300 600 l 1
 300 0 l 1
 100 0 l 1
 100 600 l 5
EndSplineSet
Validated: 1
EndChar

StartChar: hyphen.ini
Encoding: 334 -1 146
Width: 360
VWidth: 0
Flags: W
HStem: 245 110<60 270>
VStem: 10 310
LayerCount: 2
Fore
SplineSet
10 345 m 1
 30 355 l 1
 270 355 l 1
 320 255 l 1
 300 245 l 1
 60 245 l 1
 10 345 l 1
EndSplineSet
Validated: 1
EndChar

StartChar: hyphen.med
Encoding: 335 -1 147
Width: 55
VWidth: 0
Flags: W
HStem: 245 110<0 25>
VStem: -50 125
LayerCount: 2
Fore
SplineSet
-50 345 m 1
 -30 355 l 1
 25 355 l 1
 75 255 l 1
 55 245 l 1
 0 245 l 1
 -50 345 l 1
EndSplineSet
Validated: 1
EndChar

StartChar: hyphen.fin
Encoding: 336 -1 148
Width: 360
VWidth: 0
Flags: W
HStem: 245 110<60 270>
VStem: 10 310
LayerCount: 2
Fore
SplineSet
10 345 m 1
 30 355 l 1
 270 355 l 1
 320 255 l 1
 300 245 l 1
 60 245 l 1
 10 345 l 1
EndSplineSet
Validated: 1
EndChar

StartChar: ydieresis
Encoding: 255 255 149
Width: 283
VWidth: 0
Flags: HW
HStem: 134 110<94.891 187.523> 335 20G<233 263> 356 110<102.61 195.108 415.732 508.263>
LayerCount: 2
Back
SplineSet
266 255 m 1
 246 245 l 1
 242.548 244.849 l 1
 239.326 240.584 237.716 235.289 237.716 228.965 c 0
 237.716 220.702 240.478 211.047 246 200 c 1
 226 190 l 1
 176 290 l 2
 170.478 301.047 167.716 310.701 167.716 318.965 c 0
 167.716 329.599 172.028 337.129 180.654 341.557 c 2
 200.654 351.557 l 2
 205.458 353.853 210.573 355 216 355 c 1
 266 255 l 1
176 290 m 1
 196 300 l 1
 369 -46 l 1
 349 -56 l 1
 176 290 l 1
121 345 m 1
 141 355 l 1
 159.667 355 178 336.667 196 300 c 2
 246 200 l 1
 226 190 l 1
 208 226.667 189.667 245 171 245 c 1
 121 345 l 1
196 345 m 1
 216 355 l 1
 289 355 l 1
 339 255 l 1
 319 245 l 1
 246 245 l 1
 196 345 l 1
118 255 m 1
 98 245 l 1
 94.5479 244.849 l 1
 91.3262 240.584 89.7158 235.289 89.7158 228.965 c 0
 89.7158 220.702 92.4775 211.047 98 200 c 1
 78 190 l 1
 28 290 l 2
 22.4775 301.047 19.7158 310.701 19.7158 318.965 c 0
 19.7158 329.599 24.0283 337.129 32.6543 341.557 c 2
 52.6543 351.557 l 2
 57.458 353.853 62.5732 355 68 355 c 1
 118 255 l 1
28 290 m 1
 48 300 l 1
 221 -46 l 5
 201 -56 l 1
 28 290 l 1
-27 345 m 1
 -7 355 l 1
 11.667 355 30 336.667 48 300 c 2
 98 200 l 1
 78 190 l 1
 60 226.667 41.667 245 23 245 c 1
 -27 345 l 1
48 345 m 1
 68 355 l 1
 141 355 l 1
 191 255 l 1
 171 245 l 1
 98 245 l 1
 48 345 l 1
121 -323 m 1
 56 -323 l 1
 6 -223 l 1
 71 -223 l 1
 121 -323 l 1
71 -223 m 1
 6 -223 l 1
 -44 -123 l 1
 21 -123 l 1
 71 -223 l 1
21 -123 m 1
 -44 -123 l 1
 -94 -23 l 1
 -29 -23 l 1
 21 -123 l 1
EndSplineSet
Fore
SplineSet
387 492 m 5
 405 479 424 474 448 474 c 5
 498 374 l 5
 478 364 l 5
 434 364 397 390 379 426 c 6
 329 526 l 6
 322 541 317 557 317 575 c 4
 317 619 343 656 379 674 c 6
 399 684 l 6
 414 691 430 696 448 696 c 4
 492 696 529 670 547 634 c 6
 597 534 l 6
 604 519 609 503 609 485 c 5
 589 475 l 5
 545 564 l 5
 527 578 503 586 478 586 c 4
 464 586 451 584 439 579 c 5
 411 561 389 529 387 492 c 5
233 345 m 1
 253 355 l 1
 303 255 l 1
 283 245 l 1
 233 345 l 1
70 262 m 1
 88 250 108 244 130 244 c 0
 143.333 244 156.333 246.333 169 251 c 1
 200.333 271 217.333 301.333 220 338 c 1
 202 350 182 356 160 356 c 0
 146.667 356 133.667 353.667 121 349 c 1
 89.667 329 72.667 298.667 70 262 c 1
0 346 m 0
 0 393.072 27.8633 427.434 61 444 c 2
 81 454 l 2
 95.667 462 112 466 130 466 c 0
 177.07 466 211.43 438.14 228 405 c 2
 278 303 l 2
 285.472 288.057 290 272 290 254 c 0
 290 206.927 262.137 172.567 229 156 c 2
 209 146 l 2
 193.667 138 177.333 134 160 134 c 0
 112.927 134 78.5684 161.863 62 195 c 2
 12 297 l 2
 4 311.667 0 328 0 346 c 0
EndSplineSet
Validated: 524293
EndChar

StartChar: a.med1
Encoding: 337 -1 150
Width: 255
VWidth: 0
Flags: W
HStem: 335 20G<-50 35 5 34.6666 223.667 235>
VStem: 160 70<140.995 286.681>
LayerCount: 2
Fore
SplineSet
-50 345 m 1
 -30 355 l 1
 25 355 l 1
 75 255 l 1
 55 245 l 1
 0 245 l 1
 -50 345 l 1
EndSplineSet
Refer: 3 -1 N 1 0 0 1 55 0 2
Validated: 524293
EndChar

StartChar: a.fin1
Encoding: 338 -1 151
Width: 443
VWidth: 0
Flags: W
HStem: 335 20G<-50 35 5 34.6667> 635 20<355 385>
VStem: 373 70<474.834 581.667>
LayerCount: 2
Fore
SplineSet
-50 345 m 1
 -30 355 l 1
 25 355 l 1
 75 255 l 1
 55 245 l 1
 0 245 l 1
 -50 345 l 1
EndSplineSet
Refer: 4 -1 N 1 0 0 1 55 0 2
Validated: 524293
EndChar

StartChar: b.med1
Encoding: 339 -1 152
Width: 343
VWidth: 0
Flags: W
HStem: 65 21<193 223> 245 110<55 63 68.3887 193> 335 20G<-50 35> 390 20<-7 23> 425 110<93.4442 155.667>
LayerCount: 2
Fore
SplineSet
-50 345 m 1xd8
 -30 355 l 1
 25 355 l 1xb8
 75 255 l 1
 55 245 l 1
 0 245 l 1
 -50 345 l 1xd8
EndSplineSet
Refer: 7 -1 N 1 0 0 1 55 0 2
Validated: 524293
EndChar

StartChar: b.fin1
Encoding: 340 -1 153
Width: 433
VWidth: 0
Flags: W
HStem: 65 21<193 223> 245 110<55 63 68.3887 193> 335 20G<-50 35> 390 20<-7 23> 425 110<93.4442 192.753>
VStem: 213.811 70<130.914 272.983>
LayerCount: 2
Fore
SplineSet
-50 345 m 1xdc
 -30 355 l 1
 25 355 l 1xbc
 75 255 l 1
 55 245 l 1
 0 245 l 1
 -50 345 l 1xdc
EndSplineSet
Refer: 8 -1 N 1 0 0 1 55 0 2
Validated: 524293
EndChar

StartChar: c.med1
Encoding: 341 -1 154
Width: 240
VWidth: 0
Flags: W
HStem: 65 110<145 265> 245 110<55 210> 335 20G<-50 35>
VStem: 5 310
LayerCount: 2
Fore
SplineSet
-50 345 m 5xd0
 -30 355 l 5
 25 355 l 5xb0
 75 255 l 5
 55 245 l 5
 0 245 l 5
 -50 345 l 5xd0
EndSplineSet
Refer: 11 -1 N 1 0 0 1 55 0 2
Validated: 5
EndChar

StartChar: c.fin1
Encoding: 342 -1 155
Width: 355
VWidth: 0
Flags: W
HStem: 65 110<145 265> 245 110<55 180 200 250> 335 20G<-50 35>
LayerCount: 2
Fore
SplineSet
-50 345 m 5xc0
 -30 355 l 5
 25 355 l 5xa0
 75 255 l 5
 55 245 l 5
 0 245 l 5
 -50 345 l 5xc0
EndSplineSet
Refer: 12 -1 N 1 0 0 1 55 0 2
Validated: 5
EndChar

StartChar: d.med1
Encoding: 343 -1 156
Width: 295
VWidth: 0
Flags: W
HStem: -55 110<203.438 249.625> 105 110<218.531 280.57> 245 110<55 265> 335 20G<-50 35>
LayerCount: 2
Fore
SplineSet
-50 345 m 5xe0
 -30 355 l 5
 25 355 l 5xd0
 75 255 l 5
 55 245 l 5
 0 245 l 5
 -50 345 l 5xe0
EndSplineSet
Refer: 17 -1 N 1 0 0 1 55 0 2
Validated: 524293
EndChar

StartChar: d.fin1
Encoding: 344 -1 157
Width: 355
VWidth: 0
Flags: W
HStem: -55 110<203.438 249.625> 105 110<218.531 280.57> 245 110<55 180 200 250> 335 20G<-50 35>
LayerCount: 2
Fore
SplineSet
-50 345 m 5xe0
 -30 355 l 5
 25 355 l 5xd0
 75 255 l 5
 55 245 l 5
 0 245 l 5
 -50 345 l 5xe0
EndSplineSet
Refer: 18 -1 N 1 0 0 1 55 0 2
Validated: 524293
EndChar

StartChar: e.med1
Encoding: 345 -1 158
Width: 148
VWidth: 0
Flags: W
HStem: 64 287.557 335 20G<-50 35 5 34.3334 80 118>
VStem: 5 188
LayerCount: 2
Fore
SplineSet
-50 345 m 1x60
 -30 355 l 1
 25 355 l 1
 75 255 l 1
 55 245 l 1
 0 245 l 1
 -50 345 l 1x60
EndSplineSet
Refer: 21 -1 N 1 0 0 1 55 0 2
Validated: 524293
EndChar

StartChar: e.fin1
Encoding: 346 -1 159
Width: 280
VWidth: 0
Flags: W
HStem: 64 21<163 193> 245 110<126.548 175> 335 20G<-50 35>
LayerCount: 2
Fore
SplineSet
-50 345 m 5xc0
 -30 355 l 5
 25 355 l 5xa0
 75 255 l 5
 55 245 l 5
 0 245 l 5
 -50 345 l 5xc0
EndSplineSet
Refer: 22 -1 N 1 0 0 1 55 0 2
Validated: 524293
EndChar

StartChar: f.med1
Encoding: 347 -1 160
Width: 245
VWidth: 0
Flags: W
HStem: 65 21<80 260> 335 20G<-50 35> 355 170<5 130> 525 20<5 37.6665>
VStem: 5 260
LayerCount: 2
Fore
SplineSet
-50 345 m 5xc8
 -30 355 l 5
 25 355 l 5
 75 255 l 5
 55 245 l 5
 0 245 l 5
 -50 345 l 5xc8
EndSplineSet
Refer: 25 -1 N 1 0 0 1 55 0 2
Validated: 8912901
EndChar

StartChar: f.fin1
Encoding: 348 -1 161
Width: 390
VWidth: 0
Flags: W
HStem: 65 21<80 260> 335 20G<-50 35 5 130 195 227.333> 525 20<5 37.6665>
LayerCount: 2
Fore
SplineSet
-50 345 m 5
 -30 355 l 5
 25 355 l 5
 75 255 l 5
 55 245 l 5
 0 245 l 5
 -50 345 l 5
EndSplineSet
Refer: 26 -1 N 1 0 0 1 55 0 2
Validated: 524293
EndChar

StartChar: g.med1
Encoding: 349 -1 162
Width: 240
VWidth: 0
Flags: W
HStem: 65 110<145 245> 245 110<55 210> 335 20G<-50 35>
VStem: 5 310
LayerCount: 2
Fore
SplineSet
-50 345 m 1xd0
 -30 355 l 1
 25 355 l 1xb0
 75 255 l 1
 55 245 l 1
 0 245 l 1
 -50 345 l 1xd0
EndSplineSet
Refer: 29 -1 N 1 0 0 1 55 0 2
Validated: 5
EndChar

StartChar: g.fin1
Encoding: 350 -1 163
Width: 355
VWidth: 0
Flags: W
HStem: 65 110<145 245> 245 110<55 180 200 250> 335 20G<-50 35>
LayerCount: 2
Fore
SplineSet
-50 345 m 1xc0
 -30 355 l 1
 25 355 l 1xa0
 75 255 l 1
 55 245 l 1
 0 245 l 1
 -50 345 l 1xc0
EndSplineSet
Refer: 31 -1 N 1 0 0 1 55 0 2
Validated: 5
EndChar

StartChar: h.med1
Encoding: 351 -1 164
Width: 293
VWidth: 0
Flags: W
HStem: 335 20G<-50 35> 435 110<107.092 215.924>
VStem: -8 70<302.333 415.667> 256 70<345.814 387.625>
LayerCount: 2
Fore
SplineSet
-50 345 m 5
 -30 355 l 5
 25 355 l 5
 75 255 l 5
 55 245 l 5
 0 245 l 5
 -50 345 l 5
EndSplineSet
Refer: 33 -1 N 1 0 0 1 55 0 2
Validated: 524293
EndChar

StartChar: h.fin1
Encoding: 352 -1 165
Width: 358
VWidth: 0
Flags: W
HStem: 335 20G<-50 35 243 273> 435 110<107.092 215.923> 635 20<243 273>
VStem: -8 70<327.812 387.352>
LayerCount: 2
Fore
SplineSet
-50 345 m 5
 -30 355 l 5
 25 355 l 5
 75 255 l 5
 55 245 l 5
 0 245 l 5
 -50 345 l 5
EndSplineSet
Refer: 34 -1 N 1 0 0 1 55 0 2
Validated: 524293
EndChar

StartChar: i.med1
Encoding: 353 -1 166
Width: 185
VWidth: 0
Flags: W
HStem: 65 110<90 210> 245 110<55 155> 335 20G<-50 35>
VStem: 5 255
LayerCount: 2
Fore
SplineSet
-50 345 m 5xd0
 -30 355 l 5
 25 355 l 5xb0
 75 255 l 5
 55 245 l 5
 0 245 l 5
 -50 345 l 5xd0
EndSplineSet
Refer: 37 -1 N 1 0 0 1 55 0 2
Validated: 5
EndChar

StartChar: i.fin1
Encoding: 354 -1 167
Width: 364
VWidth: 0
Flags: W
HStem: 65 110<90 265> 245 110<55 135> 335 20G<-50 35> 635 20<265 295>
VStem: 236 70<181.183 293.07> 294 70<426.93 538.817>
LayerCount: 2
Fore
SplineSet
-50 345 m 5xd0
 -30 355 l 5
 25 355 l 5xb0
 75 255 l 5
 55 245 l 5
 0 245 l 5
 -50 345 l 5xd0
EndSplineSet
Refer: 38 -1 N 1 0 0 1 55 0 2
Validated: 8912901
EndChar

StartChar: j.med1
Encoding: 355 -1 168
Width: 185
VWidth: 0
Flags: W
HStem: 65 110<90 210> 245 110<55 155> 335 20G<-50 35>
VStem: 5 255
LayerCount: 2
Fore
SplineSet
-50 345 m 5xd0
 -30 355 l 5
 25 355 l 5xb0
 75 255 l 5
 55 245 l 5
 0 245 l 5
 -50 345 l 5xd0
EndSplineSet
Refer: 40 -1 N 1 0 0 1 55 0 2
Validated: 5
EndChar

StartChar: j.fin1
Encoding: 356 -1 169
Width: 365
VWidth: 0
Flags: W
HStem: 65 110<90 265> 245 110<55 135> 335 20G<-50 35> 635 20<265 295>
VStem: 236 70<181.183 293.07> 294 70<426.93 538.817>
LayerCount: 2
Fore
SplineSet
-50 345 m 5xd0
 -30 355 l 5
 25 355 l 5xb0
 75 255 l 5
 55 245 l 5
 0 245 l 5
 -50 345 l 5xd0
EndSplineSet
Refer: 41 -1 N 1 0 0 1 55 0 2
Validated: 8912901
EndChar

StartChar: k.med1
Encoding: 357 -1 170
Width: 223
VWidth: 0
Flags: W
HStem: 335 20G<-50 35> 355 35<5 34.3333 118 147> 400 21<108 138> 636 20<-5 25>
VStem: -5 258
LayerCount: 2
Fore
SplineSet
-50 345 m 5xb8
 -30 355 l 5
 25 355 l 5
 75 255 l 5
 55 245 l 5
 0 245 l 5
 -50 345 l 5xb8
EndSplineSet
Refer: 44 -1 N 1 0 0 1 55 0 2
Validated: 524293
EndChar

StartChar: k.fin1
Encoding: 358 -1 171
Width: 433
VWidth: 0
Flags: W
HStem: 300 110<272.667 298> 335 20G<-50 35 5 34.3333> 400 21<108 138> 636 20<-5 25>
LayerCount: 2
Fore
SplineSet
-50 345 m 5x50
 -30 355 l 5
 25 355 l 5
 75 255 l 5
 55 245 l 5
 0 245 l 5
 -50 345 l 5x50
EndSplineSet
Refer: 45 -1 N 1 0 0 1 55 0 2
Validated: 524293
EndChar

StartChar: l.med1
Encoding: 359 -1 172
Width: 245
VWidth: 0
Flags: W
HStem: 245 300 335 20G<-50 35> 525 20<100 130>
VStem: 5 260
LayerCount: 2
Fore
SplineSet
-50 345 m 5x90
 -30 355 l 5
 25 355 l 5x50
 75 255 l 5
 55 245 l 5
 0 245 l 5
 -50 345 l 5x90
EndSplineSet
Refer: 47 -1 N 1 0 0 1 55 0 2
Validated: 8912901
EndChar

StartChar: l.fin1
Encoding: 360 -1 173
Width: 300
VWidth: 0
Flags: W
HStem: 335 20G<-50 35> 525 20<100 130 100 130>
LayerCount: 2
Fore
SplineSet
-50 345 m 5
 -30 355 l 5
 25 355 l 5
 75 255 l 5
 55 245 l 5
 0 245 l 5
 -50 345 l 5
EndSplineSet
Refer: 48 -1 N 1 0 0 1 55 0 2
Validated: 524293
EndChar

StartChar: m.med1
Encoding: 361 -1 174
Width: 418
VWidth: 0
Flags: W
HStem: 64 21<163 193 318 348> 335 20G<-50 35 5 34.3333 188 223 384.667 398>
LayerCount: 2
Fore
SplineSet
-50 345 m 5
 -30 355 l 5
 25 355 l 5
 75 255 l 5
 55 245 l 5
 0 245 l 5
 -50 345 l 5
EndSplineSet
Refer: 50 -1 N 1 0 0 1 55 0 2
Validated: 524293
EndChar

StartChar: m.fin1
Encoding: 362 -1 175
Width: 438
VWidth: 0
Flags: W
HStem: 64 21<163 193 318 348> 335 20G<-50 35 5 34.3333 188 223 323 353> 635 20<323 353>
VStem: 368 70<353.32 503.056>
LayerCount: 2
Fore
SplineSet
-50 345 m 5
 -30 355 l 5
 25 355 l 5
 75 255 l 5
 55 245 l 5
 0 245 l 5
 -50 345 l 5
EndSplineSet
Refer: 51 -1 N 1 0 0 1 55 0 2
Validated: 524293
EndChar

StartChar: n.med1
Encoding: 363 -1 176
Width: 276
VWidth: 0
Flags: W
HStem: 65 21<356 386> 245 110<81 226> 335 20G<-50 35> 365 20<211 241> 425 110<102.333 131>
LayerCount: 2
Fore
SplineSet
-50 345 m 5xd8
 -30 355 l 5
 25 355 l 5xb8
 75 255 l 5
 55 245 l 5
 0 245 l 5
 -50 345 l 5xd8
EndSplineSet
Refer: 53 -1 N 1 0 0 1 55 0 2
Validated: 524293
EndChar

StartChar: n.fin1
Encoding: 364 -1 177
Width: 266
VWidth: 0
Flags: W
HStem: 65 21<356 386> 245 110<81 131> 335 20G<-50 35> 365 20<211 241> 425 110<102.333 131>
LayerCount: 2
Fore
SplineSet
-50 345 m 5xd8
 -30 355 l 5
 25 355 l 5xb8
 75 255 l 5
 55 245 l 5
 0 245 l 5
 -50 345 l 5xd8
EndSplineSet
Refer: 54 -1 N 1 0 0 1 55 0 2
Validated: 524293
EndChar

StartChar: o.med1
Encoding: 365 -1 178
Width: 301
VWidth: 0
Flags: W
HStem: 134 110<112.891 205.523> 335 20G<-50 35 5 35 251 281> 356 110<120.609 213.108>
VStem: 5 316
LayerCount: 2
Fore
SplineSet
-50 345 m 5
 -30 355 l 5
 25 355 l 5
 75 255 l 5
 55 245 l 5
 0 245 l 5
 -50 345 l 5
EndSplineSet
Refer: 56 -1 N 1 0 0 1 55 0 2
Validated: 524293
EndChar

StartChar: o.fin1
Encoding: 366 -1 179
Width: 308
VWidth: 0
Flags: W
HStem: 134 110<112.891 205.523> 335 20G<-50 35 5 35> 356 110<120.609 213.108>
VStem: 5 303
LayerCount: 2
Fore
SplineSet
-50 345 m 5
 -30 355 l 5
 25 355 l 5
 75 255 l 5
 55 245 l 5
 0 245 l 5
 -50 345 l 5
EndSplineSet
Refer: 57 -1 N 1 0 0 1 55 0 2
Validated: 524293
EndChar

StartChar: p.med1
Encoding: 367 -1 180
Width: 316
VWidth: 0
Flags: W
HStem: 65 110<144.84 214.242> 245 110<55 65 135 256> 335 20G<-50 35>
VStem: 5 331
LayerCount: 2
Fore
SplineSet
-50 345 m 5xd0
 -30 355 l 5
 25 355 l 5xb0
 75 255 l 5
 55 245 l 5
 0 245 l 5
 -50 345 l 5xd0
EndSplineSet
Refer: 59 -1 N 1 0 0 1 55 0 2
Validated: 524293
EndChar

StartChar: p.fin1
Encoding: 368 -1 181
Width: 420
VWidth: 0
Flags: W
HStem: 65 110<144.84 214.242> 245 110<55 65 135 245 265 315> 335 20G<-50 35>
LayerCount: 2
Fore
SplineSet
-50 345 m 5xc0
 -30 355 l 5
 25 355 l 5xa0
 75 255 l 5
 55 245 l 5
 0 245 l 5
 -50 345 l 5xc0
EndSplineSet
Refer: 60 -1 N 1 0 0 1 55 0 2
Validated: 524293
EndChar

StartChar: q.med1
Encoding: 369 -1 182
Width: 338
VWidth: 0
Flags: W
HStem: 65 110<166.525 237.333> 335 20G<-50 35> 355 160<-12 238 288 318>
VStem: 307 70<163.667 285.667>
LayerCount: 2
Fore
SplineSet
-50 345 m 5xd0
 -30 355 l 5
 25 355 l 5
 75 255 l 5
 55 245 l 5
 0 245 l 5
 -50 345 l 5xd0
EndSplineSet
Refer: 64 -1 N 1 0 0 1 55 0 2
Validated: 524293
EndChar

StartChar: q.fin1
Encoding: 370 -1 183
Width: 408
VWidth: 0
Flags: W
HStem: 65 110<166.525 225.333> 335 20G<-50 35> 355 160<-12 238> 635 20<268 298>
VStem: 338 70<257.424 431.255>
LayerCount: 2
Fore
SplineSet
-50 345 m 5xd8
 -30 355 l 5
 25 355 l 5
 75 255 l 5
 55 245 l 5
 0 245 l 5
 -50 345 l 5xd8
EndSplineSet
Refer: 65 -1 N 1 0 0 1 55 0 2
Validated: 524293
EndChar

StartChar: r.med1
Encoding: 371 -1 184
Width: 262
VWidth: 0
Flags: W
HStem: 335 20G<-50 35> 355 162<5 57 72 102>
VStem: 20 70<305 457.93>
LayerCount: 2
Fore
SplineSet
-50 345 m 5xa0
 -30 355 l 5
 25 355 l 5
 75 255 l 5
 55 245 l 5
 0 245 l 5
 -50 345 l 5xa0
EndSplineSet
Refer: 68 -1 N 1 0 0 1 55 0 2
Validated: 524293
EndChar

StartChar: r.fin1
Encoding: 372 -1 185
Width: 365
VWidth: 0
Flags: W
HStem: 335 20G<-50 35> 355 162<5 57 72 117 222 252>
VStem: 20 70<305 457.93>
LayerCount: 2
Fore
SplineSet
-50 345 m 5xa0
 -30 355 l 5
 25 355 l 5
 75 255 l 5
 55 245 l 5
 0 245 l 5
 -50 345 l 5xa0
EndSplineSet
Refer: 69 -1 N 1 0 0 1 55 0 2
Validated: 524293
EndChar

StartChar: s.med1
Encoding: 373 -1 186
Width: 260
VWidth: 0
Flags: W
HStem: 248.443 287.557 335 20G<-50 35> 390 20<25 55 80 185>
VStem: -38 318
LayerCount: 2
Fore
SplineSet
-50 345 m 5x50
 -30 355 l 5
 25 355 l 5
 75 255 l 5
 55 245 l 5
 0 245 l 5
 -50 345 l 5x50
EndSplineSet
Refer: 71 -1 N 1 0 0 1 55 0 2
Validated: 8912901
EndChar

StartChar: s.fin1
Encoding: 374 -1 187
Width: 405
VWidth: 0
Flags: W
HStem: 245 110<111.333 135 158.452 158.452 241.333 254.667> 335 20G<-50 35> 390 20<-38 -8 25 55 92 122 155 185>
LayerCount: 2
Fore
SplineSet
-50 345 m 5xa0
 -30 355 l 5
 25 355 l 5x60
 75 255 l 5
 55 245 l 5
 0 245 l 5
 -50 345 l 5xa0
EndSplineSet
Refer: 72 -1 N 1 0 0 1 55 0 2
Validated: 524293
EndChar

StartChar: t.med1
Encoding: 375 -1 188
Width: 245
VWidth: 0
Flags: W
HStem: -55 110<209.461 271.75> 335 20G<-50 35> 525 20<100 130 100 130 195 225>
LayerCount: 2
Fore
SplineSet
-50 345 m 5
 -30 355 l 5
 25 355 l 5
 75 255 l 5
 55 245 l 5
 0 245 l 5
 -50 345 l 5
EndSplineSet
Refer: 75 -1 N 1 0 0 1 55 0 2
Validated: 524293
EndChar

StartChar: t.fin1
Encoding: 376 -1 189
Width: 425
VWidth: 0
Flags: W
HStem: -55 110<209.461 271.75> 245 110<245 250 270 320> 335 20G<-50 35> 525 20<100 130 100 130>
LayerCount: 2
Fore
SplineSet
-50 345 m 5xd0
 -30 355 l 5
 25 355 l 5xb0
 75 255 l 5
 55 245 l 5
 0 245 l 5
 -50 345 l 5xd0
EndSplineSet
Refer: 76 -1 N 1 0 0 1 55 0 2
Validated: 8912901
EndChar

StartChar: u.med1
Encoding: 377 -1 190
Width: 190
VWidth: 0
Flags: W
HStem: 65 21<180 210> 245 110<55 140> 335 20G<-50 35> 525 20<-90 -60 -90 -60>
VStem: 186 70<100.159 224.333>
LayerCount: 2
Fore
SplineSet
-50 345 m 5xd8
 -30 355 l 5
 25 355 l 5xb8
 75 255 l 5
 55 245 l 5
 0 245 l 5
 -50 345 l 5xd8
EndSplineSet
Refer: 78 -1 N 1 0 0 1 55 0 2
Validated: 8912901
EndChar

StartChar: u.fin1
Encoding: 378 -1 191
Width: 256
VWidth: 0
Flags: W
HStem: 65 21<180 210> 245 110<55 140> 335 20G<-50 35> 525 20<-90 -60 -90 -60>
VStem: 186 70<100.159 224.333>
LayerCount: 2
Fore
SplineSet
-50 345 m 5xd8
 -30 355 l 5
 25 355 l 5xb8
 75 255 l 5
 55 245 l 5
 0 245 l 5
 -50 345 l 5xd8
EndSplineSet
Refer: 79 -1 N 1 0 0 1 55 0 2
Validated: 8912901
EndChar

StartChar: v.med1
Encoding: 379 -1 192
Width: 245
VWidth: 0
Flags: W
HStem: 245 110<55 78.4375 193.128 215> 335 20G<-50 35>
VStem: -5 305
LayerCount: 2
Fore
SplineSet
-50 345 m 5xa0
 -30 355 l 5
 25 355 l 5x60
 75 255 l 5
 55 245 l 5
 0 245 l 5
 -50 345 l 5xa0
EndSplineSet
Refer: 82 -1 N 1 0 0 1 55 0 2
Validated: 524293
EndChar

StartChar: v.fin1
Encoding: 380 -1 193
Width: 180
VWidth: 0
Flags: W
HStem: 335 20G<-50 35 5 50>
VStem: -5 305
LayerCount: 2
Fore
SplineSet
-50 345 m 5
 -30 355 l 5
 25 355 l 5
 75 255 l 5
 55 245 l 5
 0 245 l 5
 -50 345 l 5
EndSplineSet
Refer: 83 -1 N 1 0 0 1 55 0 2
Validated: 524293
EndChar

StartChar: w.med1
Encoding: 381 -1 194
Width: 325
VWidth: 0
Flags: W
HStem: 65 21<180 210 315 345> 245 110<55 140 160 175 210 275> 335 20G<-50 35> 525 20<-90 -60 -90 -60>
VStem: 321 70<100.159 224.333>
LayerCount: 2
Fore
SplineSet
-50 345 m 5xd8
 -30 355 l 5
 25 355 l 5xb8
 75 255 l 5
 55 245 l 5
 0 245 l 5
 -50 345 l 5xd8
EndSplineSet
Refer: 85 -1 N 1 0 0 1 55 0 2
Validated: 8912901
EndChar

StartChar: w.fin1
Encoding: 382 -1 195
Width: 391
VWidth: 0
Flags: W
HStem: 65 21<180 210 315 345> 245 110<55 140 160 175 210 275> 335 20G<-50 35> 525 20<-90 -60 -90 -60>
VStem: 321 70<100.159 224.333>
LayerCount: 2
Fore
SplineSet
-50 345 m 5xd8
 -30 355 l 5
 25 355 l 5xb8
 75 255 l 5
 55 245 l 5
 0 245 l 5
 -50 345 l 5xd8
EndSplineSet
Refer: 86 -1 N 1 0 0 1 55 0 2
Validated: 8912901
EndChar

StartChar: x.med1
Encoding: 383 -1 196
Width: 205
VWidth: 0
Flags: W
HStem: 335 20G<-50 35 5 185>
VStem: 5 220
LayerCount: 2
Fore
SplineSet
-50 345 m 5
 -30 355 l 5
 25 355 l 5
 75 255 l 5
 55 245 l 5
 0 245 l 5
 -50 345 l 5
EndSplineSet
Refer: 88 -1 N 1 0 0 1 55 0 2
Validated: 5
EndChar

StartChar: x.fin1
Encoding: 384 -1 197
Width: 225
VWidth: 0
Flags: W
HStem: 335 20G<-50 35 5 185>
VStem: 5 220
LayerCount: 2
Fore
SplineSet
-50 345 m 5
 -30 355 l 5
 25 355 l 5
 75 255 l 5
 55 245 l 5
 0 245 l 5
 -50 345 l 5
EndSplineSet
Refer: 89 -1 N 1 0 0 1 55 0 2
Validated: 5
EndChar

StartChar: y.med1
Encoding: 385 -1 198
Width: 185
VWidth: 0
Flags: W
HStem: 65 21<80 260> 245 110<55 100> 335 20G<-50 35>
VStem: 5 255
LayerCount: 2
Fore
SplineSet
-50 345 m 5xd0
 -30 355 l 5
 25 355 l 5xb0
 75 255 l 5
 55 245 l 5
 0 245 l 5
 -50 345 l 5xd0
EndSplineSet
Refer: 91 -1 N 1 0 0 1 55 0 2
Validated: 5
EndChar

StartChar: y.fin1
Encoding: 386 -1 199
Width: 310
VWidth: 0
Flags: W
HStem: 65 21<80 260> 245 110<55 100 120 135 155 205> 335 20G<-50 35>
LayerCount: 2
Fore
SplineSet
-50 345 m 5xc0
 -30 355 l 5
 25 355 l 5xa0
 75 255 l 5
 55 245 l 5
 0 245 l 5
 -50 345 l 5xc0
EndSplineSet
Refer: 92 -1 N 1 0 0 1 55 0 2
Validated: 5
EndChar

StartChar: z.med1
Encoding: 387 -1 200
Width: 115
VWidth: 0
Flags: W
HStem: 335 20G<-50 35 5 95> 425 110<-35 85>
VStem: -85 220
LayerCount: 2
Fore
SplineSet
-50 345 m 5
 -30 355 l 5
 25 355 l 5
 75 255 l 5
 55 245 l 5
 0 245 l 5
 -50 345 l 5
EndSplineSet
Refer: 94 -1 N 1 0 0 1 55 0 2
Validated: 5
EndChar

StartChar: z.fin1
Encoding: 388 -1 201
Width: 270
VWidth: 0
Flags: W
HStem: 245 110<55 95 115 165> 335 20G<-50 35> 425 110<-35 85>
LayerCount: 2
Fore
SplineSet
-50 345 m 1xa0
 -30 355 l 1
 25 355 l 1x60
 75 255 l 1
 55 245 l 1
 0 245 l 1
 -50 345 l 1xa0
EndSplineSet
Refer: 95 -1 N 1 0 0 1 55 0 2
Validated: 5
EndChar

StartChar: a.fin2
Encoding: 390 -1 202
Width: 498
VWidth: 0
Flags: W
HStem: 335 20G<-50 35 5 90 60 89.6667> 635 20<410 440>
VStem: 428 70<474.834 581.667>
LayerCount: 2
Fore
SplineSet
-50 345 m 5
 -30 355 l 5
 25 355 l 5
 75 255 l 5
 55 245 l 5
 0 245 l 5
 -50 345 l 5
EndSplineSet
Refer: 151 -1 N 1 0 0 1 55 0 2
Validated: 524293
EndChar

StartChar: b.med2
Encoding: 391 -1 203
Width: 398
VWidth: 0
Flags: W
HStem: 65 21<248 278> 245 110<110 118 123.389 248> 335 20G<-50 35 5 90> 390 20<48 78> 425 110<148.444 210.667>
LayerCount: 2
Fore
SplineSet
-50 345 m 5xd8
 -30 355 l 5
 25 355 l 5xb8
 75 255 l 5
 55 245 l 5
 0 245 l 5
 -50 345 l 5xd8
EndSplineSet
Refer: 152 -1 N 1 0 0 1 55 0 2
Validated: 524293
EndChar

StartChar: b.fin2
Encoding: 392 -1 204
Width: 488
VWidth: 0
Flags: W
HStem: 65 21<248 278> 245 110<110 118 123.389 248> 335 20G<-50 35 5 90> 390 20<48 78> 425 110<148.444 247.753>
VStem: 268.811 70<130.914 272.983>
LayerCount: 2
Fore
SplineSet
-50 345 m 5xdc
 -30 355 l 5
 25 355 l 5xbc
 75 255 l 5
 55 245 l 5
 0 245 l 5
 -50 345 l 5xdc
EndSplineSet
Refer: 153 -1 N 1 0 0 1 55 0 2
Validated: 524293
EndChar

StartChar: c.med2
Encoding: 393 -1 205
Width: 295
VWidth: 0
Flags: W
HStem: 65 110<200 320> 245 110<110 265> 335 20G<-50 35 5 90>
VStem: 60 310
LayerCount: 2
Fore
SplineSet
-50 345 m 5xd0
 -30 355 l 5
 25 355 l 5xb0
 75 255 l 5
 55 245 l 5
 0 245 l 5
 -50 345 l 5xd0
EndSplineSet
Refer: 154 -1 N 1 0 0 1 55 0 2
Validated: 5
EndChar

StartChar: c.fin2
Encoding: 394 -1 206
Width: 410
VWidth: 0
Flags: W
HStem: 65 110<200 320> 245 110<110 235 255 305> 335 20G<-50 35 5 90>
LayerCount: 2
Fore
SplineSet
-50 345 m 5xc0
 -30 355 l 5
 25 355 l 5xa0
 75 255 l 5
 55 245 l 5
 0 245 l 5
 -50 345 l 5xc0
EndSplineSet
Refer: 155 -1 N 1 0 0 1 55 0 2
Validated: 5
EndChar

StartChar: d.med2
Encoding: 395 -1 207
Width: 350
VWidth: 0
Flags: W
HStem: -55 110<258.438 304.625> 105 110<273.531 335.57> 245 110<110 320> 335 20G<-50 35 5 90>
LayerCount: 2
Fore
SplineSet
-50 345 m 5xe0
 -30 355 l 5
 25 355 l 5xd0
 75 255 l 5
 55 245 l 5
 0 245 l 5
 -50 345 l 5xe0
EndSplineSet
Refer: 156 -1 N 1 0 0 1 55 0 2
Validated: 524293
EndChar

StartChar: d.fin2
Encoding: 396 -1 208
Width: 410
VWidth: 0
Flags: W
HStem: -55 110<258.438 304.625> 105 110<273.531 335.57> 245 110<110 235 255 305> 335 20G<-50 35 5 90>
LayerCount: 2
Fore
SplineSet
-50 345 m 5xe0
 -30 355 l 5
 25 355 l 5xd0
 75 255 l 5
 55 245 l 5
 0 245 l 5
 -50 345 l 5xe0
EndSplineSet
Refer: 157 -1 N 1 0 0 1 55 0 2
Validated: 524293
EndChar

StartChar: e.med2
Encoding: 397 -1 209
Width: 203
VWidth: 0
Flags: W
HStem: 64 287.557 335 20G<-50 35 5 90 60 89.3334 135 173>
VStem: 60 188
LayerCount: 2
Fore
SplineSet
-50 345 m 5x60
 -30 355 l 5
 25 355 l 5
 75 255 l 5
 55 245 l 5
 0 245 l 5
 -50 345 l 5x60
EndSplineSet
Refer: 158 -1 N 1 0 0 1 55 0 2
Validated: 524293
EndChar

StartChar: e.fin2
Encoding: 398 -1 210
Width: 335
VWidth: 0
Flags: W
HStem: 64 21<218 248> 245 110<181.548 230> 335 20G<-50 35 5 90>
LayerCount: 2
Fore
SplineSet
-50 345 m 5xc0
 -30 355 l 5
 25 355 l 5xa0
 75 255 l 5
 55 245 l 5
 0 245 l 5
 -50 345 l 5xc0
EndSplineSet
Refer: 159 -1 N 1 0 0 1 55 0 2
Validated: 524293
EndChar

StartChar: f.med2
Encoding: 399 -1 211
Width: 300
VWidth: 0
Flags: W
HStem: 65 21<135 315> 335 20G<-50 35 5 90> 355 170<60 185> 525 20<60 92.6665>
VStem: 60 260
LayerCount: 2
Fore
SplineSet
-50 345 m 5xc8
 -30 355 l 5
 25 355 l 5
 75 255 l 5
 55 245 l 5
 0 245 l 5
 -50 345 l 5xc8
EndSplineSet
Refer: 160 -1 N 1 0 0 1 55 0 2
Validated: 8912901
EndChar

StartChar: f.fin2
Encoding: 400 -1 212
Width: 445
VWidth: 0
Flags: W
HStem: 65 21<135 315> 335 20G<-50 35 5 90 60 185 250 282.333> 525 20<60 92.6665>
LayerCount: 2
Fore
SplineSet
-50 345 m 5
 -30 355 l 5
 25 355 l 5
 75 255 l 5
 55 245 l 5
 0 245 l 5
 -50 345 l 5
EndSplineSet
Refer: 161 -1 N 1 0 0 1 55 0 2
Validated: 524293
EndChar

StartChar: g.med2
Encoding: 401 -1 213
Width: 295
VWidth: 0
Flags: W
HStem: 65 110<200 300> 245 110<110 265> 335 20G<-50 35 5 90>
VStem: 60 310
LayerCount: 2
Fore
SplineSet
-50 345 m 1xd0
 -30 355 l 1
 25 355 l 1xb0
 75 255 l 1
 55 245 l 1
 0 245 l 1
 -50 345 l 1xd0
EndSplineSet
Refer: 162 -1 N 1 0 0 1 55 0 2
Validated: 5
EndChar

StartChar: g.fin2
Encoding: 402 -1 214
Width: 410
VWidth: 0
Flags: W
HStem: 65 110<200 300> 245 110<110 235 255 305> 335 20G<-50 35 5 90>
LayerCount: 2
Fore
SplineSet
-50 345 m 1xc0
 -30 355 l 1
 25 355 l 1xa0
 75 255 l 1
 55 245 l 1
 0 245 l 1
 -50 345 l 1xc0
EndSplineSet
Refer: 163 -1 N 1 0 0 1 55 0 2
Validated: 5
EndChar

StartChar: h.med2
Encoding: 403 -1 215
Width: 348
VWidth: 0
Flags: W
HStem: 335 20G<-50 35 5 90> 435 110<162.092 270.924>
VStem: 47 70<302.333 415.667> 311 70<345.814 387.625>
LayerCount: 2
Fore
SplineSet
-50 345 m 5
 -30 355 l 5
 25 355 l 5
 75 255 l 5
 55 245 l 5
 0 245 l 5
 -50 345 l 5
EndSplineSet
Refer: 164 -1 N 1 0 0 1 55 0 2
Validated: 524293
EndChar

StartChar: h.fin2
Encoding: 404 -1 216
Width: 413
VWidth: 0
Flags: W
HStem: 335 20G<-50 35 5 90 298 328> 435 110<162.092 270.923> 635 20<298 328>
VStem: 47 70<327.812 387.352>
LayerCount: 2
Fore
SplineSet
-50 345 m 5
 -30 355 l 5
 25 355 l 5
 75 255 l 5
 55 245 l 5
 0 245 l 5
 -50 345 l 5
EndSplineSet
Refer: 165 -1 N 1 0 0 1 55 0 2
Validated: 524293
EndChar

StartChar: i.med2
Encoding: 405 -1 217
Width: 240
VWidth: 0
Flags: W
HStem: 65 110<145 265> 245 110<110 210> 335 20G<-50 35 5 90>
VStem: 60 255
LayerCount: 2
Fore
SplineSet
-50 345 m 5xd0
 -30 355 l 5
 25 355 l 5xb0
 75 255 l 5
 55 245 l 5
 0 245 l 5
 -50 345 l 5xd0
EndSplineSet
Refer: 166 -1 N 1 0 0 1 55 0 2
Validated: 5
EndChar

StartChar: i.fin2
Encoding: 406 -1 218
Width: 419
VWidth: 0
Flags: W
HStem: 65 110<145 320> 245 110<110 190> 335 20G<-50 35 5 90> 635 20<320 350>
VStem: 291 70<181.183 293.07> 349 70<426.93 538.817>
LayerCount: 2
Fore
SplineSet
-50 345 m 5xd0
 -30 355 l 5
 25 355 l 5xb0
 75 255 l 5
 55 245 l 5
 0 245 l 5
 -50 345 l 5xd0
EndSplineSet
Refer: 167 -1 N 1 0 0 1 55 0 2
Validated: 8912901
EndChar

StartChar: j.med2
Encoding: 407 -1 219
Width: 240
VWidth: 0
Flags: W
HStem: 65 110<145 265> 245 110<110 210> 335 20G<-50 35 5 90>
VStem: 60 255
LayerCount: 2
Fore
SplineSet
-50 345 m 5xd0
 -30 355 l 5
 25 355 l 5xb0
 75 255 l 5
 55 245 l 5
 0 245 l 5
 -50 345 l 5xd0
EndSplineSet
Refer: 168 -1 N 1 0 0 1 55 0 2
Validated: 5
EndChar

StartChar: j.fin2
Encoding: 408 -1 220
Width: 420
VWidth: 0
Flags: W
HStem: 65 110<145 320> 245 110<110 190> 335 20G<-50 35 5 90> 635 20<320 350>
VStem: 291 70<181.183 293.07> 349 70<426.93 538.817>
LayerCount: 2
Fore
SplineSet
-50 345 m 5xd0
 -30 355 l 5
 25 355 l 5xb0
 75 255 l 5
 55 245 l 5
 0 245 l 5
 -50 345 l 5xd0
EndSplineSet
Refer: 169 -1 N 1 0 0 1 55 0 2
Validated: 8912901
EndChar

StartChar: k.med2
Encoding: 409 -1 221
Width: 278
VWidth: 0
Flags: W
HStem: 335 20G<-50 35 5 90> 355 35<60 89.3333 173 202> 400 21<163 193> 636 20<50 80>
VStem: 50 258
LayerCount: 2
Fore
SplineSet
-50 345 m 5xb8
 -30 355 l 5
 25 355 l 5
 75 255 l 5
 55 245 l 5
 0 245 l 5
 -50 345 l 5xb8
EndSplineSet
Refer: 170 -1 N 1 0 0 1 55 0 2
Validated: 524293
EndChar

StartChar: k.fin2
Encoding: 410 -1 222
Width: 488
VWidth: 0
Flags: W
HStem: 300 110<327.667 353> 335 20G<-50 35 5 90 60 89.3333> 400 21<163 193> 636 20<50 80>
LayerCount: 2
Fore
SplineSet
-50 345 m 5x50
 -30 355 l 5
 25 355 l 5
 75 255 l 5
 55 245 l 5
 0 245 l 5
 -50 345 l 5x50
EndSplineSet
Refer: 171 -1 N 1 0 0 1 55 0 2
Validated: 524293
EndChar

StartChar: l.med2
Encoding: 411 -1 223
Width: 300
VWidth: 0
Flags: W
HStem: 245 300 335 20G<-50 35 5 90> 525 20<155 185>
VStem: 60 260
LayerCount: 2
Fore
SplineSet
-50 345 m 5x90
 -30 355 l 5
 25 355 l 5x50
 75 255 l 5
 55 245 l 5
 0 245 l 5
 -50 345 l 5x90
EndSplineSet
Refer: 172 -1 N 1 0 0 1 55 0 2
Validated: 8912901
EndChar

StartChar: l.fin2
Encoding: 412 -1 224
Width: 355
VWidth: 0
Flags: W
HStem: 335 20G<-50 35 5 90> 525 20<155 185 155 185>
LayerCount: 2
Fore
SplineSet
-50 345 m 5
 -30 355 l 5
 25 355 l 5
 75 255 l 5
 55 245 l 5
 0 245 l 5
 -50 345 l 5
EndSplineSet
Refer: 173 -1 N 1 0 0 1 55 0 2
Validated: 524293
EndChar

StartChar: m.med2
Encoding: 413 -1 225
Width: 473
VWidth: 0
Flags: W
HStem: 64 21<218 248 373 403> 335 20G<-50 35 5 90 60 89.3333 243 278 439.667 453>
LayerCount: 2
Fore
SplineSet
-50 345 m 5
 -30 355 l 5
 25 355 l 5
 75 255 l 5
 55 245 l 5
 0 245 l 5
 -50 345 l 5
EndSplineSet
Refer: 174 -1 N 1 0 0 1 55 0 2
Validated: 524293
EndChar

StartChar: m.fin2
Encoding: 414 -1 226
Width: 493
VWidth: 0
Flags: W
HStem: 64 21<218 248 373 403> 335 20G<-50 35 5 90 60 89.3333 243 278 378 408> 635 20<378 408>
VStem: 423 70<353.32 503.056>
LayerCount: 2
Fore
SplineSet
-50 345 m 5
 -30 355 l 5
 25 355 l 5
 75 255 l 5
 55 245 l 5
 0 245 l 5
 -50 345 l 5
EndSplineSet
Refer: 175 -1 N 1 0 0 1 55 0 2
Validated: 524293
EndChar

StartChar: n.med2
Encoding: 415 -1 227
Width: 331
VWidth: 0
Flags: W
HStem: 65 21<411 441> 245 110<136 281> 335 20G<-50 35 5 90> 365 20<266 296> 425 110<157.333 186>
LayerCount: 2
Fore
SplineSet
-50 345 m 5xd8
 -30 355 l 5
 25 355 l 5xb8
 75 255 l 5
 55 245 l 5
 0 245 l 5
 -50 345 l 5xd8
EndSplineSet
Refer: 176 -1 N 1 0 0 1 55 0 2
Validated: 524293
EndChar

StartChar: n.fin2
Encoding: 416 -1 228
Width: 321
VWidth: 0
Flags: W
HStem: 65 21<411 441> 245 110<136 186> 335 20G<-50 35 5 90> 365 20<266 296> 425 110<157.333 186>
LayerCount: 2
Fore
SplineSet
-50 345 m 5xd8
 -30 355 l 5
 25 355 l 5xb8
 75 255 l 5
 55 245 l 5
 0 245 l 5
 -50 345 l 5xd8
EndSplineSet
Refer: 177 -1 N 1 0 0 1 55 0 2
Validated: 524293
EndChar

StartChar: o.med2
Encoding: 417 -1 229
Width: 356
VWidth: 0
Flags: W
HStem: 134 110<167.891 260.523> 335 20G<-50 35 5 90 60 90 306 336> 356 110<175.609 268.108>
VStem: 60 316
LayerCount: 2
Fore
SplineSet
-50 345 m 5
 -30 355 l 5
 25 355 l 5
 75 255 l 5
 55 245 l 5
 0 245 l 5
 -50 345 l 5
EndSplineSet
Refer: 178 -1 N 1 0 0 1 55 0 2
Validated: 524293
EndChar

StartChar: o.fin2
Encoding: 418 -1 230
Width: 363
VWidth: 0
Flags: W
HStem: 134 110<167.891 260.523> 335 20G<-50 35 5 90 60 90> 356 110<175.609 268.108>
VStem: 60 303
LayerCount: 2
Fore
SplineSet
-50 345 m 5
 -30 355 l 5
 25 355 l 5
 75 255 l 5
 55 245 l 5
 0 245 l 5
 -50 345 l 5
EndSplineSet
Refer: 179 -1 N 1 0 0 1 55 0 2
Validated: 524293
EndChar

StartChar: p.med2
Encoding: 419 -1 231
Width: 371
VWidth: 0
Flags: W
HStem: 65 110<199.84 269.242> 245 110<110 120 190 311> 335 20G<-50 35 5 90>
VStem: 60 331
LayerCount: 2
Fore
SplineSet
-50 345 m 5xd0
 -30 355 l 5
 25 355 l 5xb0
 75 255 l 5
 55 245 l 5
 0 245 l 5
 -50 345 l 5xd0
EndSplineSet
Refer: 180 -1 N 1 0 0 1 55 0 2
Validated: 524293
EndChar

StartChar: p.fin2
Encoding: 420 -1 232
Width: 475
VWidth: 0
Flags: W
HStem: 65 110<199.84 269.242> 245 110<110 120 190 300 320 370> 335 20G<-50 35 5 90>
LayerCount: 2
Fore
SplineSet
-50 345 m 5xc0
 -30 355 l 5
 25 355 l 5xa0
 75 255 l 5
 55 245 l 5
 0 245 l 5
 -50 345 l 5xc0
EndSplineSet
Refer: 181 -1 N 1 0 0 1 55 0 2
Validated: 524293
EndChar

StartChar: q.med2
Encoding: 421 -1 233
Width: 393
VWidth: 0
Flags: W
HStem: 65 110<221.525 292.333> 335 20G<-50 35 5 90> 355 160<43 293 343 373>
VStem: 362 70<163.667 285.667>
LayerCount: 2
Fore
SplineSet
-50 345 m 5xd0
 -30 355 l 5
 25 355 l 5
 75 255 l 5
 55 245 l 5
 0 245 l 5
 -50 345 l 5xd0
EndSplineSet
Refer: 182 -1 N 1 0 0 1 55 0 2
Validated: 524293
EndChar

StartChar: q.fin2
Encoding: 422 -1 234
Width: 463
VWidth: 0
Flags: W
HStem: 65 110<221.525 280.333> 335 20G<-50 35 5 90> 355 160<43 293> 635 20<323 353>
VStem: 393 70<257.424 431.255>
LayerCount: 2
Fore
SplineSet
-50 345 m 5xd8
 -30 355 l 5
 25 355 l 5
 75 255 l 5
 55 245 l 5
 0 245 l 5
 -50 345 l 5xd8
EndSplineSet
Refer: 183 -1 N 1 0 0 1 55 0 2
Validated: 524293
EndChar

StartChar: a.med2
Encoding: 389 -1 235
Width: 310
VWidth: 0
Flags: W
HStem: 335 20G<-50 35 5 90 60 89.6666 278.667 290>
VStem: 215 70<140.995 286.681>
LayerCount: 2
Fore
SplineSet
-50 345 m 5
 -30 355 l 5
 25 355 l 5
 75 255 l 5
 55 245 l 5
 0 245 l 5
 -50 345 l 5
EndSplineSet
Refer: 150 -1 N 1 0 0 1 55 0 2
Validated: 524293
EndChar

StartChar: r.med2
Encoding: 423 -1 236
Width: 317
VWidth: 0
Flags: W
HStem: 335 20G<-50 35 5 90> 355 162<60 112 127 157>
VStem: 75 70<305 457.93>
LayerCount: 2
Fore
SplineSet
-50 345 m 5xa0
 -30 355 l 5
 25 355 l 5
 75 255 l 5
 55 245 l 5
 0 245 l 5
 -50 345 l 5xa0
EndSplineSet
Refer: 184 -1 N 1 0 0 1 55 0 2
Validated: 524293
EndChar

StartChar: r.fin2
Encoding: 424 -1 237
Width: 420
VWidth: 0
Flags: W
HStem: 335 20G<-50 35 5 90> 355 162<60 112 127 172 277 307>
VStem: 75 70<305 457.93>
LayerCount: 2
Fore
SplineSet
-50 345 m 5xa0
 -30 355 l 5
 25 355 l 5
 75 255 l 5
 55 245 l 5
 0 245 l 5
 -50 345 l 5xa0
EndSplineSet
Refer: 185 -1 N 1 0 0 1 55 0 2
Validated: 524293
EndChar

StartChar: s.med2
Encoding: 425 -1 238
Width: 315
VWidth: 0
Flags: W
HStem: 248.443 287.557 335 20G<-50 35 5 90> 390 20<80 110 135 240>
VStem: 17 318
LayerCount: 2
Fore
SplineSet
-50 345 m 5x50
 -30 355 l 5
 25 355 l 5
 75 255 l 5
 55 245 l 5
 0 245 l 5
 -50 345 l 5x50
EndSplineSet
Refer: 186 -1 N 1 0 0 1 55 0 2
Validated: 8912901
EndChar

StartChar: s.fin2
Encoding: 426 -1 239
Width: 460
VWidth: 0
Flags: W
HStem: 245 110<166.333 190 213.452 213.452 296.333 309.667> 335 20G<-50 35 5 90> 390 20<17 47 80 110 147 177 210 240>
LayerCount: 2
Fore
SplineSet
-50 345 m 5xa0
 -30 355 l 5
 25 355 l 5x60
 75 255 l 5
 55 245 l 5
 0 245 l 5
 -50 345 l 5xa0
EndSplineSet
Refer: 187 -1 N 1 0 0 1 55 0 2
Validated: 524293
EndChar

StartChar: t.med2
Encoding: 427 -1 240
Width: 300
VWidth: 0
Flags: W
HStem: -55 110<264.461 326.75> 335 20G<-50 35 5 90> 525 20<155 185 155 185 250 280>
LayerCount: 2
Fore
SplineSet
-50 345 m 5
 -30 355 l 5
 25 355 l 5
 75 255 l 5
 55 245 l 5
 0 245 l 5
 -50 345 l 5
EndSplineSet
Refer: 188 -1 N 1 0 0 1 55 0 2
Validated: 524293
EndChar

StartChar: t.fin2
Encoding: 428 -1 241
Width: 480
VWidth: 0
Flags: W
HStem: -55 110<264.461 326.75> 245 110<300 305 325 375> 335 20G<-50 35 5 90> 525 20<155 185 155 185>
LayerCount: 2
Fore
SplineSet
-50 345 m 5xd0
 -30 355 l 5
 25 355 l 5xb0
 75 255 l 5
 55 245 l 5
 0 245 l 5
 -50 345 l 5xd0
EndSplineSet
Refer: 189 -1 N 1 0 0 1 55 0 2
Validated: 8912901
EndChar

StartChar: u.med2
Encoding: 429 -1 242
Width: 245
VWidth: 0
Flags: W
HStem: 65 21<235 265> 245 110<110 195> 335 20G<-50 35 5 90> 525 20<-35 -5 -35 -5>
VStem: 241 70<100.159 224.333>
LayerCount: 2
Fore
SplineSet
-50 345 m 5xd8
 -30 355 l 5
 25 355 l 5xb8
 75 255 l 5
 55 245 l 5
 0 245 l 5
 -50 345 l 5xd8
EndSplineSet
Refer: 190 -1 N 1 0 0 1 55 0 2
Validated: 8912901
EndChar

StartChar: u.fin2
Encoding: 430 -1 243
Width: 311
VWidth: 0
Flags: W
HStem: 65 21<235 265> 245 110<110 195> 335 20G<-50 35 5 90> 525 20<-35 -5 -35 -5>
VStem: 241 70<100.159 224.333>
LayerCount: 2
Fore
SplineSet
-50 345 m 5xd8
 -30 355 l 5
 25 355 l 5xb8
 75 255 l 5
 55 245 l 5
 0 245 l 5
 -50 345 l 5xd8
EndSplineSet
Refer: 191 -1 N 1 0 0 1 55 0 2
Validated: 8912901
EndChar

StartChar: v.med2
Encoding: 431 -1 244
Width: 300
VWidth: 0
Flags: W
HStem: 245 110<110 133.438 248.128 270> 335 20G<-50 35 5 90>
VStem: 50 305
LayerCount: 2
Fore
SplineSet
-50 345 m 5xa0
 -30 355 l 5
 25 355 l 5x60
 75 255 l 5
 55 245 l 5
 0 245 l 5
 -50 345 l 5xa0
EndSplineSet
Refer: 192 -1 N 1 0 0 1 55 0 2
Validated: 524293
EndChar

StartChar: v.fin2
Encoding: 432 -1 245
Width: 235
VWidth: 0
Flags: W
HStem: 335 20G<-50 35 5 90 60 105>
VStem: 50 305
LayerCount: 2
Fore
SplineSet
-50 345 m 5
 -30 355 l 5
 25 355 l 5
 75 255 l 5
 55 245 l 5
 0 245 l 5
 -50 345 l 5
EndSplineSet
Refer: 193 -1 N 1 0 0 1 55 0 2
Validated: 524293
EndChar

StartChar: w.med2
Encoding: 433 -1 246
Width: 380
VWidth: 0
Flags: W
HStem: 65 21<235 265 370 400> 245 110<110 195 215 230 265 330> 335 20G<-50 35 5 90> 525 20<-35 -5 -35 -5>
VStem: 376 70<100.159 224.333>
LayerCount: 2
Fore
SplineSet
-50 345 m 5xd8
 -30 355 l 5
 25 355 l 5xb8
 75 255 l 5
 55 245 l 5
 0 245 l 5
 -50 345 l 5xd8
EndSplineSet
Refer: 194 -1 N 1 0 0 1 55 0 2
Validated: 8912901
EndChar

StartChar: w.fin2
Encoding: 434 -1 247
Width: 446
VWidth: 0
Flags: W
HStem: 65 21<235 265 370 400> 245 110<110 195 215 230 265 330> 335 20G<-50 35 5 90> 525 20<-35 -5 -35 -5>
VStem: 376 70<100.159 224.333>
LayerCount: 2
Fore
SplineSet
-50 345 m 5xd8
 -30 355 l 5
 25 355 l 5xb8
 75 255 l 5
 55 245 l 5
 0 245 l 5
 -50 345 l 5xd8
EndSplineSet
Refer: 195 -1 N 1 0 0 1 55 0 2
Validated: 8912901
EndChar

StartChar: x.med2
Encoding: 435 -1 248
Width: 260
VWidth: 0
Flags: W
HStem: 335 20G<-50 35 5 90 60 240>
VStem: 60 220
LayerCount: 2
Fore
SplineSet
-50 345 m 5
 -30 355 l 5
 25 355 l 5
 75 255 l 5
 55 245 l 5
 0 245 l 5
 -50 345 l 5
EndSplineSet
Refer: 196 -1 N 1 0 0 1 55 0 2
Validated: 5
EndChar

StartChar: x.fin2
Encoding: 436 -1 249
Width: 280
VWidth: 0
Flags: W
HStem: 335 20G<-50 35 5 90 60 240>
VStem: 60 220
LayerCount: 2
Fore
SplineSet
-50 345 m 5
 -30 355 l 5
 25 355 l 5
 75 255 l 5
 55 245 l 5
 0 245 l 5
 -50 345 l 5
EndSplineSet
Refer: 197 -1 N 1 0 0 1 55 0 2
Validated: 5
EndChar

StartChar: y.med2
Encoding: 437 -1 250
Width: 240
VWidth: 0
Flags: W
HStem: 65 21<135 315> 245 110<110 155> 335 20G<-50 35 5 90>
VStem: 60 255
LayerCount: 2
Fore
SplineSet
-50 345 m 5xd0
 -30 355 l 5
 25 355 l 5xb0
 75 255 l 5
 55 245 l 5
 0 245 l 5
 -50 345 l 5xd0
EndSplineSet
Refer: 198 -1 N 1 0 0 1 55 0 2
Validated: 5
EndChar

StartChar: y.fin2
Encoding: 438 -1 251
Width: 365
VWidth: 0
Flags: W
HStem: 65 21<135 315> 245 110<110 155 175 190 210 260> 335 20G<-50 35 5 90>
LayerCount: 2
Fore
SplineSet
-50 345 m 5xc0
 -30 355 l 5
 25 355 l 5xa0
 75 255 l 5
 55 245 l 5
 0 245 l 5
 -50 345 l 5xc0
EndSplineSet
Refer: 199 -1 N 1 0 0 1 55 0 2
Validated: 5
EndChar

StartChar: z.med2
Encoding: 439 -1 252
Width: 170
VWidth: 0
Flags: W
HStem: 335 20G<-50 35 5 90 60 150> 425 110<20 140>
VStem: -30 220
LayerCount: 2
Fore
SplineSet
-50 345 m 5
 -30 355 l 5
 25 355 l 5
 75 255 l 5
 55 245 l 5
 0 245 l 5
 -50 345 l 5
EndSplineSet
Refer: 200 -1 N 1 0 0 1 55 0 2
Validated: 5
EndChar

StartChar: z.fin2
Encoding: 440 -1 253
Width: 325
VWidth: 0
Flags: W
HStem: 245 110<110 150 170 220> 335 20G<-50 35 5 90> 425 110<20 140>
LayerCount: 2
Fore
SplineSet
-50 345 m 5xa0
 -30 355 l 5
 25 355 l 5x60
 75 255 l 5
 55 245 l 5
 0 245 l 5
 -50 345 l 5xa0
EndSplineSet
Refer: 201 -1 N 1 0 0 1 55 0 2
Validated: 5
EndChar

StartChar: f.med3
Encoding: 441 -1 254
Width: 355
VWidth: 0
Flags: W
HStem: 65 21<190 370> 335 20G<-50 35 5 90 60 145> 355 170<115 240> 525 20<115 147.667>
VStem: 115 260
LayerCount: 2
Fore
SplineSet
-50 345 m 1xc8
 -30 355 l 1
 25 355 l 1
 75 255 l 1
 55 245 l 1
 0 245 l 1
 -50 345 l 1xc8
EndSplineSet
Refer: 211 -1 N 1 0 0 1 55 0 2
Validated: 8912901
EndChar

StartChar: f.fin3
Encoding: 442 -1 255
Width: 500
VWidth: 0
Flags: W
HStem: 65 21<190 370> 335 20G<-50 35 5 90 60 145 115 240 305 337.333> 525 20<115 147.667>
LayerCount: 2
Fore
SplineSet
-50 345 m 1
 -30 355 l 1
 25 355 l 1
 75 255 l 1
 55 245 l 1
 0 245 l 1
 -50 345 l 1
EndSplineSet
Refer: 212 -1 N 1 0 0 1 55 0 2
Validated: 524293
EndChar

StartChar: i.med3
Encoding: 443 -1 256
Width: 295
VWidth: 0
Flags: W
HStem: 65 110<200 320> 245 110<165 265> 335 20G<-50 35 5 90 60 145>
VStem: 115 255
LayerCount: 2
Fore
SplineSet
-50 345 m 1xd0
 -30 355 l 1
 25 355 l 1xb0
 75 255 l 1
 55 245 l 1
 0 245 l 1
 -50 345 l 1xd0
EndSplineSet
Refer: 217 -1 N 1 0 0 1 55 0 2
Validated: 5
EndChar

StartChar: i.fin3
Encoding: 444 -1 257
Width: 474
VWidth: 0
Flags: W
HStem: 65 110<200 375> 245 110<165 245> 335 20G<-50 35 5 90 60 145> 635 20<375 405>
VStem: 346 70<181.183 293.07> 404 70<426.93 538.817>
LayerCount: 2
Fore
SplineSet
-50 345 m 1xd0
 -30 355 l 1
 25 355 l 1xb0
 75 255 l 1
 55 245 l 1
 0 245 l 1
 -50 345 l 1xd0
EndSplineSet
Refer: 218 -1 N 1 0 0 1 55 0 2
Validated: 8912901
EndChar

StartChar: j.med3
Encoding: 445 -1 258
Width: 295
VWidth: 0
Flags: W
HStem: 65 110<200 320> 245 110<165 265> 335 20G<-50 35 5 90 60 145>
VStem: 115 255
LayerCount: 2
Fore
SplineSet
-50 345 m 1xd0
 -30 355 l 1
 25 355 l 1xb0
 75 255 l 1
 55 245 l 1
 0 245 l 1
 -50 345 l 1xd0
EndSplineSet
Refer: 219 -1 N 1 0 0 1 55 0 2
Validated: 5
EndChar

StartChar: j.fin3
Encoding: 446 -1 259
Width: 475
VWidth: 0
Flags: W
HStem: 65 110<200 375> 245 110<165 245> 335 20G<-50 35 5 90 60 145> 635 20<375 405>
VStem: 346 70<181.183 293.07> 404 70<426.93 538.817>
LayerCount: 2
Fore
SplineSet
-50 345 m 1xd0
 -30 355 l 1
 25 355 l 1xb0
 75 255 l 1
 55 245 l 1
 0 245 l 1
 -50 345 l 1xd0
EndSplineSet
Refer: 220 -1 N 1 0 0 1 55 0 2
Validated: 8912901
EndChar

StartChar: v.med3
Encoding: 447 -1 260
Width: 355
VWidth: 0
Flags: W
HStem: 245 110<165 188.438 303.128 325> 335 20G<-50 35 5 90 60 145>
VStem: 105 305
LayerCount: 2
Fore
SplineSet
-50 345 m 1xa0
 -30 355 l 1
 25 355 l 1x60
 75 255 l 1
 55 245 l 1
 0 245 l 1
 -50 345 l 1xa0
EndSplineSet
Refer: 244 -1 N 1 0 0 1 55 0 2
Validated: 524293
EndChar

StartChar: v.fin3
Encoding: 448 -1 261
Width: 290
VWidth: 0
Flags: W
HStem: 335 20G<-50 35 5 90 60 145 115 160>
VStem: 105 305
LayerCount: 2
Fore
SplineSet
-50 345 m 1
 -30 355 l 1
 25 355 l 1
 75 255 l 1
 55 245 l 1
 0 245 l 1
 -50 345 l 1
EndSplineSet
Refer: 245 -1 N 1 0 0 1 55 0 2
Validated: 524293
EndChar

StartChar: y.med3
Encoding: 449 -1 262
Width: 295
VWidth: 0
Flags: W
HStem: 65 21<190 370> 245 110<165 210> 335 20G<-50 35 5 90 60 145>
VStem: 115 255
LayerCount: 2
Fore
SplineSet
-50 345 m 1xd0
 -30 355 l 1
 25 355 l 1xb0
 75 255 l 1
 55 245 l 1
 0 245 l 1
 -50 345 l 1xd0
EndSplineSet
Refer: 250 -1 N 1 0 0 1 55 0 2
Validated: 5
EndChar

StartChar: y.fin3
Encoding: 450 -1 263
Width: 420
VWidth: 0
Flags: W
HStem: 65 21<190 370> 245 110<165 210 230 245 265 315> 335 20G<-50 35 5 90 60 145>
LayerCount: 2
Fore
SplineSet
-50 345 m 1xc0
 -30 355 l 1
 25 355 l 1xa0
 75 255 l 1
 55 245 l 1
 0 245 l 1
 -50 345 l 1xc0
EndSplineSet
Refer: 251 -1 N 1 0 0 1 55 0 2
Validated: 5
EndChar

StartChar: z.med3
Encoding: 451 -1 264
Width: 225
VWidth: 0
Flags: W
HStem: 335 20G<-50 35 5 90 60 145 115 205> 425 110<75 195>
VStem: 25 220
LayerCount: 2
Fore
SplineSet
-50 345 m 1
 -30 355 l 1
 25 355 l 1
 75 255 l 1
 55 245 l 1
 0 245 l 1
 -50 345 l 1
EndSplineSet
Refer: 252 -1 N 1 0 0 1 55 0 2
Validated: 5
EndChar

StartChar: z.fin3
Encoding: 452 -1 265
Width: 380
VWidth: 0
Flags: W
HStem: 245 110<165 205 225 275> 335 20G<-50 35 5 90 60 145> 425 110<75 195>
LayerCount: 2
Fore
SplineSet
-50 345 m 1xa0
 -30 355 l 1
 25 355 l 1x60
 75 255 l 1
 55 245 l 1
 0 245 l 1
 -50 345 l 1xa0
EndSplineSet
Refer: 253 -1 N 1 0 0 1 55 0 2
Validated: 5
EndChar

StartChar: v.med4
Encoding: 453 -1 266
Width: 410
VWidth: 0
Flags: W
HStem: 245 110<220 243.438 358.128 380> 335 20G<-50 35 5 90 60 145 115 200>
VStem: 160 305
LayerCount: 2
Fore
SplineSet
-50 345 m 1xa0
 -30 355 l 1
 25 355 l 1x60
 75 255 l 1
 55 245 l 1
 0 245 l 1
 -50 345 l 1xa0
EndSplineSet
Refer: 260 -1 N 1 0 0 1 55 0 2
Validated: 524293
EndChar

StartChar: v.fin4
Encoding: 454 -1 267
Width: 345
VWidth: 0
Flags: W
HStem: 335 20G<-50 35 5 90 60 145 115 200 170 215>
VStem: 160 305
LayerCount: 2
Fore
SplineSet
-50 345 m 1
 -30 355 l 1
 25 355 l 1
 75 255 l 1
 55 245 l 1
 0 245 l 1
 -50 345 l 1
EndSplineSet
Refer: 261 -1 N 1 0 0 1 55 0 2
Validated: 524293
EndChar

StartChar: semicolon
Encoding: 59 59 268
Width: 240
VWidth: 0
Flags: W
HStem: 370 21G<100 130 230 260> 400 100<94.6875 190>
VStem: 40 220
LayerCount: 2
Fore
SplineSet
120 370 m 1
 40 450 l 17
 60 470 l 1
 80 490 100 500 120 500 c 1
 140 500 160 490 180 470 c 1
 260 390 l 1
 240 370 l 1
 220 390 200 400 180 400 c 1
 160 400 140 390 120 370 c 1
40 165 m 25
 120 245 l 1
 200 165 l 1
 120 85 l 1
 40 165 l 25
EndSplineSet
Validated: 1
EndChar

StartChar: quotedbl
Encoding: 34 34 269
Width: 212
VWidth: 0
Flags: W
HStem: 501 154<40 84 128 172>
VStem: 40 44<501 655> 128 44<501 655>
LayerCount: 2
Fore
SplineSet
128 501 m 1
 128 655 l 1
 172 655 l 1
 172 501 l 1
 128 501 l 1
40 501 m 1
 40 655 l 1
 84 655 l 1
 84 501 l 1
 40 501 l 1
EndSplineSet
Validated: 1
EndChar

StartChar: quotesingle
Encoding: 39 39 270
Width: 124
VWidth: 0
Flags: W
HStem: 501 154<40 84>
VStem: 40 44<501 655>
LayerCount: 2
Fore
SplineSet
40 501 m 1
 40 655 l 1
 84 655 l 1
 84 501 l 1
 40 501 l 1
EndSplineSet
Validated: 1
EndChar

StartChar: exclam
Encoding: 33 33 271
Width: 477
VWidth: 0
Flags: W
HStem: 245 110<70 317 402 427>
LayerCount: 2
Fore
SplineSet
352 345 m 1
 372 355 l 1
 427 355 l 1
 477 255 l 1
 457 245 l 1
 402 245 l 1
 352 345 l 1
20 345 m 1
 40 355 l 1
 317 355 l 1
 367 255 l 1
 347 245 l 1
 70 245 l 1
 20 345 l 1
EndSplineSet
Validated: 1
EndChar

StartChar: question
Encoding: 63 63 272
Width: 477
VWidth: 0
Flags: W
HStem: 245 110<292 317 402 427> 356 110<123.669 216.263>
LayerCount: 2
Fore
SplineSet
90 262 m 1
 108 249 127 244 151 244 c 1
 201 144 l 1
 181 134 l 1
 137 134 100 160 82 196 c 2
 32 296 l 2
 25 311 20 327 20 345 c 0
 20 389 46 426 82 444 c 2
 102 454 l 2
 117 461 133 466 151 466 c 0
 195 466 232 440 250 404 c 2
 300 304 l 2
 307 289 312 273 312 255 c 1
 292 245 l 1
 248 334 l 1
 230 348 206 356 181 356 c 0
 167 356 154 354 142 349 c 1
 114 331 92 299 90 262 c 1
352 345 m 1
 372 355 l 1
 427 355 l 1
 477 255 l 1
 457 245 l 1
 402 245 l 1
 352 345 l 1
242 345 m 1
 262 355 l 1
 317 355 l 1
 367 255 l 1
 347 245 l 1
 292 245 l 1
 242 345 l 1
EndSplineSet
Validated: 5
EndChar

StartChar: exclamdown
Encoding: 161 161 273
Width: 477
VWidth: 0
Flags: W
HStem: 245 110<70 95 180 427>
LayerCount: 2
Fore
SplineSet
145 255 m 1
 125 245 l 1
 70 245 l 1
 20 345 l 1
 40 355 l 1
 95 355 l 1
 145 255 l 1
477 255 m 1
 457 245 l 1
 180 245 l 1
 130 345 l 1
 150 355 l 1
 427 355 l 1
 477 255 l 1
EndSplineSet
Validated: 1
EndChar

StartChar: questiondown
Encoding: 191 191 274
Width: 477
VWidth: 0
Flags: W
HStem: 134 110<280.737 373.331> 355 91G<20 105 130 215 296 338>
LayerCount: 2
Fore
SplineSet
407 338 m 1
 389 351 370 356 346 356 c 1
 296 456 l 1
 316 466 l 1
 360 466 397 440 415 404 c 2
 465 304 l 2
 472 289 477 273 477 255 c 0
 477 211 451 174 415 156 c 2
 395 146 l 2
 380 139 364 134 346 134 c 0
 302 134 265 160 247 196 c 2
 197 296 l 2
 190 311 185 327 185 345 c 1
 205 355 l 1
 249 266 l 1
 267 252 291 244 316 244 c 0
 330 244 343 246 355 251 c 1
 383 269 405 301 407 338 c 1
145 255 m 1
 125 245 l 1
 70 245 l 1
 20 345 l 1
 40 355 l 1
 95 355 l 1
 145 255 l 1
255 255 m 1
 235 245 l 1
 180 245 l 1
 130 345 l 1
 150 355 l 1
 205 355 l 1
 255 255 l 1
EndSplineSet
Validated: 5
EndChar

StartChar: plus
Encoding: 43 43 275
Width: 370
VWidth: 0
Flags: W
HStem: 267 66<20 350> 445 20G<152 218>
VStem: 152 66<135 465>
LayerCount: 2
Fore
SplineSet
218 135 m 1
 152 135 l 1
 152 465 l 1
 218 465 l 1
 218 135 l 1
20 267 m 1
 20 333 l 1
 350 333 l 1
 350 267 l 1
 20 267 l 1
EndSplineSet
Validated: 5
EndChar

StartChar: equal
Encoding: 61 61 276
Width: 370
VWidth: 0
Flags: W
HStem: 201 66<20 350> 333 66<20 350>
VStem: 20 330<201 267 333 399>
LayerCount: 2
Fore
SplineSet
20 201 m 1
 20 267 l 1
 350 267 l 1
 350 201 l 1
 20 201 l 1
20 333 m 1
 20 399 l 1
 350 399 l 1
 350 333 l 1
 20 333 l 1
EndSplineSet
Validated: 1
EndChar

StartChar: less
Encoding: 60 60 277
Width: 310
VWidth: 0
Flags: W
HStem: 505 20G<225 265>
VStem: 20 270
LayerCount: 2
Fore
SplineSet
245 75 m 5
 20 300 l 5
 65 345 l 5
 290 120 l 5
 245 75 l 5
65 255 m 5
 20 300 l 5
 245 525 l 5
 290 480 l 5
 65 255 l 5
EndSplineSet
Validated: 5
EndChar

StartChar: greater
Encoding: 62 62 278
Width: 310
VWidth: 0
Flags: W
HStem: 505 20G<45 85>
VStem: 20 270
LayerCount: 2
Fore
SplineSet
65 75 m 5
 20 120 l 5
 245 345 l 5
 290 300 l 5
 65 75 l 5
245 255 m 1
 20 480 l 1
 65 525 l 1
 290 300 l 1
 245 255 l 1
EndSplineSet
EndChar

StartChar: currency
Encoding: 164 164 279
Width: 355
Flags: W
HStem: 143 36<115.337 240.306> 420 36<115.694 240.306>
VStem: 22 36<236.745 362.878> 298 36<236.745 362.672>
LayerCount: 2
Fore
SplineSet
178 420 m 256
 145 420 117 408 93 384 c 0
 69 360 58 333 58 300 c 256
 58 267 69 239 93 215 c 0
 117 191 145 179 178 179 c 256
 211 179 239 191 263 215 c 0
 287 239 298 267 298 300 c 256
 298 333 287 360 263 384 c 0
 239 408 211 420 178 420 c 256
334 300 m 0
 334 263 323 230 300 203 c 1
 335 168 l 1
 327 159 319 150 310 142 c 1
 274 177 l 1
 247 154 215 143 178 143 c 0
 140 143 108 154 82 177 c 1
 45 142 l 1
 20 168 l 1
 56 203 l 1
 33 230 22 263 22 300 c 0
 22 338 33 370 56 396 c 1
 20 432 l 1
 45 457 l 1
 82 422 l 1
 109 445 141 456 178 456 c 0
 215 456 247 445 274 422 c 1
 310 457 l 1
 319 449 327 441 335 432 c 1
 300 396 l 1
 323 367 334 336 334 300 c 0
EndSplineSet
Validated: 1
EndChar

StartChar: zero
Encoding: 48 48 280
Width: 330
VWidth: 736
Flags: W
HStem: 66 30<127.003 202.443> 508 30<126.933 201.997>
VStem: 20 55<172.999 428.936> 254 55<172.207 429.921>
LayerCount: 2
Fore
SplineSet
309 302 m 0
 309 235 296 179 268 134 c 0
 240 89 205 66 164 66 c 256
 123 66 88 88 61 133 c 0
 34 178 20 235 20 302 c 0
 20 369 34 425 62 470 c 0
 90 515 124 538 165 538 c 256
 206 538 241 515 268 470 c 0
 295 425 309 369 309 302 c 0
254 302 m 256
 254 364 247 413 231 451 c 0
 215 489 193 508 164 508 c 0
 136 508 115 489 99 451 c 0
 83 413 75 364 75 302 c 256
 75 240 83 191 98 154 c 0
 114 116 136 96 165 96 c 0
 193 96 215 116 231 154 c 0
 246 191 254 240 254 302 c 256
EndSplineSet
Validated: 1
EndChar

StartChar: one
Encoding: 49 49 281
Width: 330
VWidth: 736
Flags: W
HStem: 73 11<116 152.535> 77 14<210.898 248> 446 21G<63 72.5> 523 20G<178 209>
VStem: 156 53<91.2638 478.389>
LayerCount: 2
Fore
SplineSet
209 105 m 2xb8
 209 95 217 91 233 91 c 2
 248 91 l 1
 248 79 l 1
 243 79 237 79 230 78 c 0
 223 77 218 77 215 77 c 0x78
 212 77 201 77 182 76 c 0
 177 76 171 76 164 75 c 0
 157 74 151 74 148 74 c 0
 145 74 134 74 116 73 c 1
 116 84 l 1
 131 84 l 2
 147 84 156 88 156 98 c 2
 156 465 l 2
 156 474 144 479 122 479 c 1
 102 467 82 456 63 446 c 1
 63 449 62 452 60 458 c 0
 58 464 57 468 57 471 c 1
 110 488 157 512 199 543 c 1
 209 543 l 1
 209 105 l 2xb8
EndSplineSet
Validated: 1
EndChar

StartChar: two
Encoding: 50 50 282
Width: 330
VWidth: 736
Flags: W
HStem: 76 46<79 279.715> 309 55<67.8908 124.62> 508 31<95.6691 206.788>
VStem: 21 32<384.286 465.417> 249 53<335.214 473.733> 292 9<144.625 164>
LayerCount: 2
Fore
SplineSet
16 76 m 1xf4
 29 108 52 143 85 180 c 0
 98 195 128 224 175 270 c 0
 225 319 249 364 249 407 c 0
 249 436 240 461 222 480 c 0
 204 499 180 508 152 508 c 256
 124 508 100 500 82 482 c 0
 64 464 53 441 53 415 c 1
 60 384 82 367 116 364 c 1
 123 360 127 355 127 347 c 0
 127 326 118 313 100 309 c 1
 77 312 58 322 43 339 c 0
 28 356 21 377 21 403 c 0
 21 443 33 476 59 501 c 0
 85 526 118 539 159 539 c 0
 200 539 234 526 261 501 c 0
 288 476 302 443 302 405 c 0xf8
 302 352 270 300 208 250 c 0
 142 197 99 154 79 122 c 1
 248 122 l 2
 263 122 274 126 280 132 c 0
 286 138 290 149 292 164 c 1
 301 164 l 1
 295 76 l 1
 16 76 l 1xf4
EndSplineSet
Validated: 1
EndChar

StartChar: three
Encoding: 51 51 283
Width: 330
VWidth: 736
Flags: W
HStem: 66 30<84.9686 202.426> 163 35<44.2584 67.8125> 299 28<137 210.301> 414 36<52.1414 70.8601> 508 30<92.4033 201.208>
VStem: 18 56<166.202 194.443> 238 52<358.396 480.311> 248 55<130.79 271.281>
LayerCount: 2
Fore
SplineSet
79 432 m 1xfe
 73 422 68 417 64 416 c 0
 60 415 56 414 55 414 c 0
 50 414 46 415 42 417 c 1
 33 424 27 430 26 435 c 1
 26 434 27 440 27 453 c 1
 33 476 47 496 69 512 c 1
 94 530 122 538 154 538 c 0
 194 538 226 527 252 505 c 0
 278 483 290 454 290 420 c 0xfe
 290 397 283 376 268 358 c 0
 253 340 231 326 205 317 c 1
 234 312 258 299 276 278 c 0
 294 257 303 233 303 204 c 0
 303 163 288 130 258 104 c 0
 228 78 189 66 141 66 c 0
 115 66 92 74 69 89 c 0
 42 106 26 128 21 155 c 1
 19 162 18 168 18 172 c 0
 18 181 24 188 36 193 c 0
 45 197 51 198 55 198 c 0
 60 198 64 197 68 195 c 1
 72 189 74 185 74 182 c 0
 74 178 72 174 69 170 c 0
 66 166 62 163 56 163 c 0
 52 163 48 164 44 166 c 1
 47 147 58 131 76 117 c 0
 94 103 116 96 141 96 c 0
 175 96 201 106 220 124 c 0
 239 142 248 168 248 201 c 0xfd
 248 233 240 257 224 274 c 0
 207 292 183 300 152 299 c 2
 137 298 l 1
 120 297 l 1
 114 300 111 305 111 313 c 0
 111 320 113 324 119 328 c 1
 146 327 l 2
 172 326 194 334 212 350 c 0
 230 366 238 388 238 417 c 0
 238 445 230 467 214 483 c 0
 198 499 177 508 150 508 c 0
 125 508 104 501 87 490 c 0
 70 479 59 465 52 448 c 1
 55 450 59 450 63 450 c 0
 66 450 68 449 71 447 c 1
 76 442 79 437 79 432 c 1xfe
EndSplineSet
Validated: 37
EndChar

StartChar: four
Encoding: 52 52 284
Width: 330
VWidth: 736
Flags: W
HStem: 71 12<154 242> 78 11<243.687 269> 197 35<49 188 241 313.999> 523 20G<207.949 241>
VStem: 188 53<89.2802 197 232 448>
LayerCount: 2
Fore
SplineSet
221 543 m 1xb8
 231 543 l 1
 241 543 l 1
 241 232 l 1
 315 232 l 1
 314 214 l 2
 314 213 313 207 312 197 c 1
 241 197 l 1
 241 103 l 2
 241 94 247 89 258 89 c 2
 269 89 l 1
 269 78 l 1x78
 265 78 260 78 254 77 c 0
 248 76 244 76 242 76 c 0
 240 76 230 76 214 75 c 2
 154 71 l 1
 154 83 l 1
 167 83 l 2
 181 83 188 87 188 96 c 2
 188 197 l 1
 5 197 l 1
 5 212 l 1
 221 543 l 1xb8
188 448 m 1
 49 232 l 1
 188 232 l 1
 188 448 l 1
EndSplineSet
Validated: 1
EndChar

StartChar: five
Encoding: 53 53 285
Width: 330
VWidth: 736
Flags: W
HStem: 66 30<83.8025 199.038> 157 36<46.2329 74.9736> 336 31<95.9505 202.039> 473 50<89.5632 262.365> 511 20G<58.1416 78 260.5 278>
VStem: 18 57<159.168 184.798> 47 12<278.297 298> 253 52<142.377 291.669>
LayerCount: 2
Fore
SplineSet
278 531 m 1xeb
 278 530 l 1
 275 517 270 505 263 494 c 1
 231 480 192 473 146 473 c 0
 127 473 107 475 89 479 c 1
 82 341 l 1
 100 358 125 367 156 367 c 0
 198 367 234 353 262 325 c 0
 290 297 305 261 305 219 c 0
 305 176 288 139 256 110 c 0
 224 81 187 66 143 66 c 0
 116 66 89 74 63 89 c 1
 33 106 18 127 18 153 c 0
 18 163 23 172 33 180 c 0
 43 188 53 193 63 193 c 1
 71 189 75 183 75 176 c 0xf5
 75 163 68 157 57 157 c 0
 54 157 51 157 46 159 c 1
 51 140 63 124 82 112 c 0
 100 101 120 96 141 96 c 0
 174 96 201 107 222 129 c 0
 243 151 253 180 253 213 c 0
 253 248 244 277 226 299 c 0
 206 324 179 336 145 336 c 0
 105 336 76 321 59 291 c 1
 59 282 56 278 51 278 c 0
 48 278 47 281 47 286 c 0
 47 288 47 289 48 292 c 0
 49 295 49 297 49 298 c 2
 59 531 l 1xeb
 97 526 135 523 173 523 c 0xf3
 208 523 243 526 278 531 c 1xeb
EndSplineSet
Validated: 1
EndChar

StartChar: six
Encoding: 54 54 286
Width: 330
VWidth: 736
Flags: W
HStem: 66 30<122.16 218.104> 349 29<128.667 218.318> 525 20G<176.5 212.304> 525 20G<176.5 212.304>
VStem: 22 55<153.666 307.139> 259 53<140.077 311.808>
LayerCount: 2
Fore
SplineSet
312 230 m 0xec
 312 182 298 143 271 112 c 0
 244 81 209 66 166 66 c 0
 126 66 93 83 66 117 c 1
 37 153 22 199 22 257 c 0
 22 318 40 376 75 432 c 0
 109 487 152 524 201 545 c 1
 214 522 l 1
 170 501 138 468 114 420 c 0
 98 388 87 353 81 313 c 1
 94 334 106 348 117 356 c 0
 135 370 157 378 181 378 c 0
 218 378 249 364 274 335 c 0
 299 306 312 271 312 230 c 0xec
77 247 m 1
 77 244 l 2
 77 145 109 96 172 96 c 0
 200 96 221 108 236 130 c 0
 251 152 259 183 259 223 c 2
 259 226 l 2
 259 307 229 349 168 349 c 0
 121 349 91 315 77 247 c 1
EndSplineSet
Validated: 1
EndChar

StartChar: seven
Encoding: 55 55 287
Width: 330
VWidth: 736
Flags: W
HStem: 436 21G<29 41> 483 46<54.3787 268>
VStem: 29 11<436 459.405> 108 56<71.377 176.459>
LayerCount: 2
Fore
SplineSet
315 529 m 1
 315 514 l 1
 239 371 189 240 164 119 c 1
 164 106 l 1
 164 94 l 1
 160 78 152 71 137 71 c 2
 133 71 l 2
 119 71 110 79 106 96 c 1
 108 111 l 2
 108 114 110 120 112 127 c 0
 143 222 195 341 268 483 c 1
 92 483 l 2
 75 483 62 479 54 472 c 0
 46 465 42 453 40 436 c 1
 29 436 l 1
 36 529 l 1
 315 529 l 1
EndSplineSet
Validated: 1
EndChar

StartChar: eight
Encoding: 56 56 288
Width: 330
VWidth: 736
Flags: W
HStem: 66 30<105.614 217.919> 508 30<113.507 216.154>
VStem: 17 46<129.127 251.195> 30 46<366.221 479.389> 252 44<359.69 480.635> 263 49<129.586 246.639>
LayerCount: 2
Fore
SplineSet
150 290 m 1xe4
 92 279 63 246 63 192 c 0
 63 163 72 141 90 123 c 0
 108 105 131 96 160 96 c 256
 189 96 214 105 234 122 c 0
 254 139 263 162 263 188 c 0
 263 241 226 274 150 290 c 1xe4
166 508 m 0
 140 508 118 500 101 483 c 0
 84 466 76 445 76 419 c 0
 76 372 112 343 182 331 c 1
 202 333 217 341 230 355 c 0
 245 371 252 392 252 418 c 0xd8
 252 444 244 466 228 483 c 0
 212 500 191 508 166 508 c 0
112 304 m 1
 57 325 30 361 30 411 c 0
 30 448 43 478 69 502 c 0
 95 526 128 538 168 538 c 0
 206 538 236 527 260 506 c 0
 284 485 296 457 296 423 c 0xd8
 296 378 271 343 220 318 c 1
 248 307 269 292 286 271 c 0
 303 250 312 225 312 199 c 0
 312 159 298 128 269 103 c 0
 240 78 203 66 158 66 c 0
 118 66 84 77 57 101 c 0
 30 125 17 155 17 191 c 0xe4
 17 216 27 239 46 261 c 0
 64 281 86 296 112 304 c 1
EndSplineSet
Validated: 1
EndChar

StartChar: nine
Encoding: 57 57 289
Width: 330
VWidth: 736
Flags: W
HStem: 224 30<109.609 207.886> 508 31<110.851 209.651>
VStem: 18 52<293.096 465.411> 252 55<263.611 454.924>
LayerCount: 2
Fore
SplineSet
18 373 m 0
 18 421 31 461 58 492 c 0
 85 523 120 539 162 539 c 0
 202 539 235 522 263 489 c 0
 292 454 307 408 307 352 c 0
 307 288 289 229 255 174 c 0
 221 119 178 81 127 60 c 1
 113 83 l 1
 159 102 194 134 217 179 c 0
 230 204 241 238 248 281 c 1
 237 264 227 251 216 244 c 0
 197 231 176 224 152 224 c 0
 115 224 83 240 57 269 c 0
 31 298 18 333 18 373 c 0
252 358 m 1
 252 401 247 435 237 457 c 0
 222 491 197 508 160 508 c 0
 131 508 109 497 93 475 c 0
 77 453 70 422 70 382 c 2
 70 378 l 2
 70 295 101 254 162 254 c 0
 212 254 241 288 252 358 c 1
EndSplineSet
Validated: 1
EndChar

StartChar: numbersign
Encoding: 35 35 290
Width: 362
Flags: W
HStem: 217 35<21 91 133 215 257 322> 349 35<40 109 151 233 275 341> 509 20G<132.103 172 256.103 297> 509 20G<132.103 172 256.103 297>
VStem: 21 321
LayerCount: 2
Fore
SplineSet
21 252 m 1xe8
 95 252 l 1
 109 349 l 1
 38 349 l 1
 40 384 l 1
 114 384 l 1
 135 529 l 1
 172 529 l 1
 151 384 l 1
 238 384 l 1
 259 529 l 1
 297 529 l 1
 275 384 l 1
 342 384 l 1
 341 349 l 1
 271 349 l 1
 257 252 l 1
 324 252 l 1
 322 217 l 1
 252 217 l 1
 232 72 l 1
 194 72 l 1
 215 217 l 1
 128 217 l 1
 108 72 l 1
 70 72 l 1
 91 217 l 1
 20 217 l 1
 21 252 l 1xe8
133 252 m 1
 219 252 l 1
 233 349 l 1
 147 349 l 1
 133 252 l 1
EndSplineSet
Validated: 1
EndChar

StartChar: dollar
Encoding: 36 36 291
Width: 305
Flags: W
HStem: 94 29<86.7358 141 170 203.241> 177 30<48.1399 71.8426> 415 28<221.142 241> 477 27<104.228 141 170 218.322>
VStem: 20 52<178.125 205.8> 33 40<356.764 455.351> 141 29<34 94 124 277 332 477 503.453 555> 221 47<415.302 442.996> 243 42<151.824 253.016>
LayerCount: 2
Fore
SplineSet
170 555 m 1xf6
 170 505 l 1
 219 501 252 481 268 445 c 1
 266 428 258 418 245 415 c 1
 238 415 l 1
 229 415 224 419 221 427 c 1xf7
 221 438 227 443 241 443 c 1
 233 455 222 464 207 470 c 0
 199 474 186 476 170 478 c 1
 170 323 l 1
 212 312 242 299 259 282 c 0
 276 265 285 243 285 215 c 0
 285 147 247 107 170 96 c 1
 170 34 l 1
 141 34 l 1
 141 94 l 1
 113 94 87 101 65 116 c 0
 41 131 26 153 20 180 c 1
 23 195 32 204 46 207 c 1
 53 207 l 1
 63 207 69 203 72 195 c 1xfa80
 72 183 66 177 55 177 c 0
 53 177 51 177 48 178 c 1
 52 166 63 154 81 141 c 0
 95 131 115 125 141 123 c 1
 141 285 l 1
 102 297 74 311 58 327 c 0
 42 343 33 367 33 397 c 0
 33 429 45 455 68 475 c 0
 87 492 112 501 141 504 c 1
 141 555 l 1
 170 555 l 1xf6
141 332 m 1
 141 477 l 1
 96 469 73 445 73 404 c 0
 73 382 81 364 99 352 c 0
 112 343 126 337 141 332 c 1
170 277 m 1
 170 124 l 1
 188 127 204 134 217 146 c 0
 234 161 243 180 243 203 c 0xf280
 243 226 235 244 220 255 c 0
 212 261 195 268 170 277 c 1
EndSplineSet
Validated: 1
EndChar

StartChar: percent
Encoding: 37 37 292
Width: 506
Flags: W
HStem: 72 25<347.359 417.568> 277 26<88.8183 158.965> 290 26<347.465 417.645> 496 25<89.3488 157.614> 509 20G<317 411> 509 20G<317 411>
VStem: 20 39<329.046 469.958> 189 39<329.492 469.454> 277 40<122.937 263.512> 448 38<124.273 262.933>
LayerCount: 2
Fore
SplineSet
377 529 m 1x8bc0
 411 529 l 1
 132 63 l 1
 96 63 l 1
 164 178 257 333 377 529 c 1x8bc0
124 521 m 256xd3c0
 153 521 178 510 198 486 c 0
 218 462 228 433 228 399 c 256
 228 365 218 337 198 313 c 0
 178 289 152 277 123 277 c 0
 94 277 70 289 50 313 c 0
 30 337 20 366 20 400 c 0
 20 433 30 462 50 486 c 0
 70 510 95 521 124 521 c 256xd3c0
124 496 m 0
 104 496 89 488 77 470 c 0
 65 452 59 428 59 399 c 256
 59 370 65 347 77 329 c 0
 89 311 105 303 125 303 c 0
 144 303 159 312 171 330 c 0
 183 348 189 371 189 400 c 0
 189 428 183 451 171 469 c 0
 159 487 143 496 124 496 c 0
382 316 m 0xa3c0
 411 316 436 304 456 281 c 0
 476 258 486 228 486 194 c 256
 486 160 475 131 455 107 c 0
 435 83 409 72 380 72 c 0
 351 72 327 84 307 108 c 0
 287 132 277 161 277 195 c 0
 277 228 288 256 308 280 c 0
 328 304 353 316 382 316 c 0xa3c0
383 290 m 0
 363 290 347 281 335 263 c 0
 323 245 317 222 317 193 c 256
 317 164 323 141 335 123 c 0
 347 105 364 97 384 97 c 0
 403 97 418 105 430 123 c 0
 442 141 448 164 448 193 c 0
 448 221 442 245 430 263 c 0
 418 281 402 290 383 290 c 0
EndSplineSet
Validated: 1
EndChar

StartChar: ampersand
Encoding: 38 38 293
Width: 443
Flags: W
HStem: 65 31<110.74 213.203> 65 21G<349 376> 281 21<396.237 406> 292 11<320 343.131> 503 28<164.382 237.315>
VStem: 20 53<125.675 246.027> 98 46<368.021 487.797> 258 44<390.47 487.625> 413 10<107.502 125>
LayerCount: 2
Fore
SplineSet
384 254 m 1x2f80
 365 217 344 186 320 160 c 1
 346 131 367 110 386 96 c 1xaf80
 403 96 412 106 413 125 c 1
 423 125 l 1
 417 88 395 69 357 65 c 1x4f80
 341 65 323 75 306 96 c 2
 282 126 l 1
 275 120 261 111 242 96 c 0
 214 76 186 65 157 65 c 0
 114 65 80 77 55 100 c 0
 32 121 20 148 20 180 c 0
 20 235 58 282 134 321 c 1
 130 327 124 338 116 354 c 0
 104 377 98 401 98 424 c 0
 98 455 108 481 129 501 c 0
 150 521 176 531 208 531 c 0
 234 531 255 523 273 508 c 0
 292 492 302 471 302 446 c 0
 302 421 289 397 264 372 c 0
 245 353 222 337 194 323 c 1
 221 281 253 239 289 196 c 0
 292 192 296 188 300 182 c 1
 306 189 314 199 325 214 c 0
 336 229 345 246 353 266 c 1
 353 283 342 292 320 292 c 1
 320 303 l 1
 363 303 l 1x9f80
 406 302 l 1
 421 281 l 1
 410 281 401 279 396 276 c 0
 391 273 388 265 384 254 c 1x2f80
179 345 m 1
 201 355 218 369 232 385 c 1
 249 404 258 423 258 444 c 0
 258 461 252 475 241 486 c 0
 230 497 216 503 200 503 c 256
 184 503 171 497 161 486 c 0
 150 474 144 457 144 436 c 0
 144 418 149 399 160 379 c 0
 166 368 172 356 179 345 c 1
150 298 m 1
 99 262 73 225 73 187 c 0
 73 161 81 139 98 122 c 0
 115 105 137 96 162 96 c 0
 190 96 224 113 264 148 c 1
 261 152 249 167 228 195 c 0
 211 217 186 250 153 294 c 0
 153 294 151 296 150 298 c 1
EndSplineSet
Validated: 1
EndChar

StartChar: at
Encoding: 64 64 294
Width: 527
Flags: W
HStem: 63 27<207.221 356.722> 162 29<348.251 402.42> 164 34<202.531 274.729> 396 20G<353.529 403> 397 32<249.945 320.836> 508 27<205.638 351.559>
VStem: 32 45<204.24 393.336> 147 46<202.965 337.746> 464 31<271.306 409.384>
LayerCount: 2
Fore
SplineSet
275 535 m 0xd780
 338 535 390 516 433 477 c 0
 474 440 495 395 495 342 c 0
 495 295 480 253 452 217 c 0
 424 181 393 162 360 162 c 0xd780
 331 162 312 178 304 209 c 1
 296 197 286 187 272 179 c 0
 256 169 240 164 224 164 c 0
 202 164 184 172 170 188 c 0
 155 205 147 228 147 259 c 0
 147 299 161 336 189 372 c 1
 218 410 252 429 290 429 c 0xaf80
 320 429 340 414 349 382 c 1
 360 416 l 1
 403 416 l 1
 350 234 l 2
 348 227 347 221 347 215 c 0
 347 199 354 191 367 191 c 0
 389 191 409 206 430 236 c 0
 452 269 464 305 464 345 c 0
 464 389 446 426 410 459 c 0
 374 492 329 508 277 508 c 0
 222 508 175 488 136 447 c 0
 97 406 77 357 77 298 c 256
 77 239 98 190 139 149 c 0
 178 110 223 90 275 90 c 0
 308 90 340 96 370 108 c 0
 397 119 417 132 429 147 c 1
 451 139 l 1
 440 120 418 103 387 88 c 1
 353 71 317 63 280 63 c 0
 209 63 150 87 102 135 c 0
 56 181 32 236 32 301 c 0
 32 363 56 418 103 465 c 0
 150 512 208 535 275 535 c 0xd780
290 397 m 0xaf80
 265 397 243 381 222 350 c 0
 203 321 193 289 193 257 c 0
 193 217 207 198 236 198 c 0
 263 198 287 215 308 250 c 0
 326 281 335 311 335 340 c 0
 335 355 331 369 322 380 c 0
 313 391 303 397 290 397 c 0xaf80
EndSplineSet
Validated: 1
EndChar

StartChar: backslash
Encoding: 92 92 295
Width: 445
VWidth: 0
Flags: W
LayerCount: 2
Fore
SplineSet
75 -55 m 9
 20 -55 l 17
 370 645 l 9
 425 645 l 17
 75 -55 l 9
EndSplineSet
EndChar

StartChar: bar
Encoding: 124 124 296
Width: 135
VWidth: 0
Flags: W
VStem: 40 55<-55 645>
LayerCount: 2
Fore
SplineSet
40 -55 m 17
 40 645 l 9
 95 645 l 17
 95 -55 l 9
 40 -55 l 17
EndSplineSet
Validated: 1
EndChar

StartChar: asciicircum
Encoding: 94 94 297
Width: 396
Flags: W
HStem: 263 266
VStem: 46 304
LayerCount: 2
Fore
SplineSet
88 263 m 1
 46 263 l 1
 180 529 l 1
 216 529 l 1
 350 263 l 1
 309 263 l 1
 198 485 l 1
 88 263 l 1
EndSplineSet
Validated: 1
EndChar

StartChar: underscore
Encoding: 95 95 298
Width: 500
Flags: W
HStem: -10 41<0 330>
VStem: 0 330<-10 31>
LayerCount: 2
Fore
SplineSet
330 -10 m 1
 0 -10 l 1
 0 31 l 1
 330 31 l 1
 330 -10 l 1
EndSplineSet
Validated: 1
EndChar

StartChar: grave
Encoding: 96 96 299
Width: 250
Flags: W
HStem: 436 103
VStem: -6 134
LayerCount: 2
Fore
SplineSet
128 436 m 1
 97 436 l 1
 78 451 59 466 40 481 c 1
 18 499 2 513 -6 522 c 1
 -2 533 9 539 28 539 c 1
 39 532 53 519 71 500 c 0
 90 479 109 457 128 436 c 1
EndSplineSet
Validated: 1
EndChar

StartChar: asciitilde
Encoding: 126 126 300
Width: 345
Flags: W
HStem: 191 37<182.988 283.208> 236 36<61.4719 158.353>
VStem: 20 305
LayerCount: 2
Fore
SplineSet
100 236 m 0
 75 236 56 220 43 188 c 1
 36 195 29 204 20 215 c 1
 36 253 62 272 99 272 c 0
 119 272 144 265 175 250 c 0
 206 235 229 228 244 228 c 0
 268 228 287 243 301 275 c 1
 325 248 l 1
 318 232 308 220 294 209 c 0
 279 198 263 191 245 191 c 0
 223 191 198 199 167 214 c 0
 136 229 114 236 100 236 c 0
EndSplineSet
Validated: 1
EndChar

StartChar: a.med0
Encoding: 455 -1 301
Width: 150
VWidth: 0
Flags: W
HStem: 335 20G<-50 -20 118.667 130>
VStem: 55 70<142.626 286.681>
LayerCount: 2
Fore
SplineSet
-50 345 m 1
 -30 355 l 1
 170 -45 l 1
 150 -55 l 1
 -50 345 l 1
170 -45 m 1
 150 -55 l 1
 100 45 l 2
 70 105 55 170 55 240 c 0
 55 300 68.667 335.667 96 347 c 0
 109.333 352.333 117.333 355 120 355 c 1
 170 255 l 1
 150 245 l 1
 133.333 228.333 125 196.667 125 150 c 0
 125 80 140 15 170 -45 c 1
EndSplineSet
Validated: 524293
EndChar

StartChar: a.fin0
Encoding: 456 -1 302
Width: 338
VWidth: 0
Flags: W
HStem: 335 20G<-50 -20> 635 20G<250 280>
VStem: 268 70<474.834 581.667>
LayerCount: 2
Fore
SplineSet
-50 345 m 1
 -30 355 l 1
 170 -45 l 1
 150 -55 l 1
 -50 345 l 1
250 645 m 1
 270 655 l 1
 320 555 l 2
 332 531 338 505.333 338 478 c 0
 338 455.333 332.833 429.833 322.5 401.5 c 0
 312.167 373.167 301.833 350 291.5 332 c 0
 281.167 314 265.667 288.333 245 255 c 0
 224.333 222.333 208.833 196.667 198.5 178 c 0
 188.166 159.333 177.833 136 167.5 108 c 0
 157.167 80 152 54.333 152 31 c 0
 152 3.66699 158 -21.667 170 -45 c 1
 150 -55 l 1
 100 45 l 2
 88 68.333 82 93.667 82 121 c 0
 82 144.333 87.167 170 97.5 198 c 0
 107.833 226 118.167 249.333 128.5 268 c 0
 138.833 286.667 154.333 312.333 175 345 c 0
 195.668 378.333 211.168 404 221.5 422 c 0
 231.834 440 242.167 463.167 252.5 491.5 c 0
 262.833 519.833 268 545.333 268 568 c 0
 268 595.333 262 621 250 645 c 1
EndSplineSet
Validated: 524293
EndChar

StartChar: e.med0
Encoding: 457 -1 303
Width: 66
VWidth: 0
Flags: W
HStem: 64 291
VStem: -50 161
LayerCount: 2
Fore
SplineSet
-50 345 m 1
 -30 355 l 1
 111 74 l 1
 91 64 l 1
 -50 345 l 1
68 255 m 1
 48 245 l 1
 44.5479 244.849 l 1
 41.3262 240.584 39.7158 235.289 39.7158 228.965 c 0
 39.7158 220.702 42.4775 211.047 48 200 c 1
 28 190 l 1
 -22 290 l 2
 -27.5225 301.047 -30.2842 310.702 -30.2842 318.965 c 0
 -30.2842 329.598 -25.9717 337.129 -17.3457 341.557 c 2
 2.6543 351.557 l 2
 7.45801 353.852 12.5732 355 18 355 c 1
 68 255 l 1
-22 290 m 1
 -2 300 l 1
 111 74 l 1
 91 64 l 1
 -22 290 l 1
-2 345 m 1
 18 355 l 1
 36 355 l 1
 86 255 l 1
 66 245 l 1
 48 245 l 1
 -2 345 l 1
EndSplineSet
Validated: 524293
EndChar

StartChar: e.fin0
Encoding: 458 -1 304
Width: 198
VWidth: 0
Flags: W
HStem: 64 21G<80.9644 111> 245 110<44.5479 93>
LayerCount: 2
Fore
SplineSet
-50 345 m 1
 -30 355 l 1
 111 74 l 1
 91 64 l 1
 -50 345 l 1
173 195 m 1
 193 205 l 1
 318 -45 l 1
 298 -55 l 1
 173 195 l 1
23 345 m 1
 43 355 l 1
 93 355 143 305 193 205 c 2
 243 105 l 1
 223 95 l 1
 173 195 123 245 73 245 c 1
 23 345 l 1
68 255 m 1
 48 245 l 1
 44.5479 244.849 l 1
 41.3262 240.584 39.7158 235.289 39.7158 228.965 c 0
 39.7158 220.702 42.4775 211.047 48 200 c 1
 28 190 l 1
 -22 290 l 2
 -27.5225 301.047 -30.2842 310.702 -30.2842 318.965 c 0
 -30.2842 329.598 -25.9717 337.129 -17.3457 341.557 c 2
 2.6543 351.557 l 2
 7.45801 353.852 12.5732 355 18 355 c 1
 68 255 l 1
-22 290 m 1
 -2 300 l 1
 111 74 l 1
 91 64 l 1
 -22 290 l 1
-2 345 m 1
 18 355 l 1
 43 355 l 1
 93 255 l 1
 73 245 l 1
 48 245 l 1
 -2 345 l 1
EndSplineSet
Validated: 524293
EndChar

StartChar: m.med0
Encoding: 459 -1 305
Width: 336
VWidth: 0
Flags: W
HStem: 64 21G<80.9644 111 236 266> 335 20G<-50 -19.9644 106 141 302.667 316>
LayerCount: 2
Fore
SplineSet
-50 345 m 1
 -30 355 l 1
 111 74 l 1
 91 64 l 1
 -50 345 l 1
91 64 m 1
 41 164 l 1
 41 257.334 64.333 350.667 111 444 c 1
 131 454 l 1
 181 354 l 1
 134.333 260.667 111 167.333 111 74 c 1
 91 64 l 1
106 345 m 1
 126 355 l 1
 266 75 l 1
 246 65 l 1
 106 345 l 1
246 65 m 1
 196 165 l 1
 196 203.667 203.167 240.167 217.5 274.5 c 0
 231.834 308.833 248.668 331 268 341 c 2
 288 351 l 2
 293.333 353.667 299.333 355 306 355 c 1
 356 255 l 1
 336 245 l 1
 332.667 245 330 244.667 328 244 c 1
 311.333 230.667 296.833 208 284.5 176 c 0
 272.167 144 266 110.333 266 75 c 1
 246 65 l 1
EndSplineSet
Validated: 524293
EndChar

StartChar: m.fin0
Encoding: 460 -1 306
Width: 356
VWidth: 0
Flags: W
HStem: 64 21G<80.9644 111 236 266> 335 20G<-50 -19.9644 106 141 241 271> 635 20G<241 271>
VStem: 286 70<353.32 503.055>
LayerCount: 2
Fore
SplineSet
-50 345 m 1
 -30 355 l 1
 111 74 l 1
 91 64 l 1
 -50 345 l 1
91 64 m 1
 41 164 l 1
 41 257.334 64.333 350.667 111 444 c 1
 131 454 l 1
 181 354 l 1
 134.333 260.667 111 167.333 111 74 c 1
 91 64 l 1
106 345 m 1
 126 355 l 1
 266 75 l 1
 246 65 l 1
 106 345 l 1
246 65 m 1
 196 165 l 1
 196 225 211 285 241 345 c 1
 261 355 l 1
 311 255 l 1
 281 195 266 135 266 75 c 1
 246 65 l 1
291 245 m 1
 241 345 l 1
 271 405 286 455 286 495 c 0
 286 534.81 271.188 584.436 241.561 643.877 c 0
 241.257 644.453 241.07 644.828 241 645 c 2
 261 655 l 1
 311 555 l 2
 311.078 554.856 311.264 554.482 311.561 553.877 c 0
 341.188 494.434 356 444.809 356 405 c 0
 356 365 341 315 311 255 c 1
 291 245 l 1
EndSplineSet
Validated: 524293
EndChar
